{
.appVersion = "3151";
.formatVersion = 3;
customParameters = (
{
name = "Use Typo Metrics";
value = 1;
},
{
name = fsType;
value = (
);
}
);
date = "2022-07-30 15:19:26 +0000";
familyName = "Duyet Serif";
featurePrefixes = (
{
automatic = 1;
code = "languagesystem DFLT dflt;

languagesystem latn dflt;
languagesystem latn AZE;
languagesystem latn CRT;
languagesystem latn KAZ;
languagesystem latn TAT;
languagesystem latn TRK;
languagesystem latn ROM;
languagesystem latn MOL;
languagesystem latn CAT;
";
name = Languagesystems;
}
);
features = (
{
automatic = 1;
code = "feature locl;
feature ordn;
feature case;
feature ss01;
";
tag = aalt;
},
{
code = "lookup ccmp_Other_1 {
	@CombiningTopAccents = [acutecomb brevecomb caroncomb circumflexcomb commaturnedabovecomb dieresiscomb dotaccentcomb gravecomb hungarumlautcomb macroncomb ringcomb tildecomb];
	@CombiningNonTopAccents = [cedillacomb ogonekcomb];
	sub [i j]' @CombiningTopAccents by [idotless jdotless];
	sub [i j]' @CombiningNonTopAccents @CombiningTopAccents by [idotless jdotless];
	sub iogonek' @CombiningTopAccents by idotless ogonekcomb;
} ccmp_Other_1;
";
tag = ccmp;
},
{
automatic = 1;
code = "lookup locl_latn_0 {
	script latn;
	language AZE;
	sub i by idotaccent;
	language CRT;
	sub i by idotaccent;
	language KAZ;
	sub i by idotaccent;
	language TAT;
	sub i by idotaccent;
	language TRK;
	sub i by idotaccent;
} locl_latn_0;

lookup locl_latn_1 {
	script latn;
	language ROM;
	sub Scedilla by Scommaaccent;
	sub scedilla by scommaaccent;
	language MOL;
	sub Scedilla by Scommaaccent;
	sub scedilla by scommaaccent;
} locl_latn_1;

lookup locl_latn_2 {
	script latn;
	language CAT;
	sub l periodcentered' l by periodcentered.loclCAT;
	sub L periodcentered' L by periodcentered.loclCAT.case;
} locl_latn_2;
";
tag = locl;
},
{
automatic = 1;
code = "sub [zero one two three four five six seven eight nine] [A a]' by ordfeminine;
sub [zero one two three four five six seven eight nine] [O o]' by ordmasculine;
";
tag = ordn;

glyphs = (
{
glyphname = A;
kernLeft = A;
kernRight = A;
lastChange = "2022-09-01 21:01:03 +0000";
layers = (
{
anchors = (
{
name = bottom;
pos = (229,0);
},
{
name = ogonek;
pos = (421,0);
},
{
name = top;
pos = (229,720);
}
);
layerId = m01;
shapes = (
{
closed = 1;
nodes = (
(158,0,ls),
(168,0,o),
(174,4,o),
(174,11,cs),
(174,17,o),
(168,21,o),
(154,23,cs),
(137,25,ls),
(101,29,o),
(91,50,o),
(102,88,cs),
(141,222,ls),
(147,240,o),
(159,248,o),
(179,248,cs),
(300,248,ls),
(321,248,o),
(334,239,o),
(338,222,cs),
(382,67,ls),
(390,38,o),
(384,27,o),
(358,25,cs),
(336,23,ls),
(322,22,o),
(316,17,o),
(316,11,cs),
(316,4,o),
(322,0,o),
(332,0,cs),
(529,0,ls),
(539,0,o),
(546,3,o),
(546,10,cs),
(546,17,o),
(540,21,o),
(530,23,cs),
(513,26,ls),
(483,31,o),
(473,43,o),
(462,80,cs),
(281,714,ls),
(277,727,o),
(269,730,o),
(262,730,cs),
(256,730,o),
(248,727,o),
(245,714,cs),
(67,89,ls),
(56,52,o),
(43,31,o),
(13,26,cs),
(-4,23,ls),
(-13,21,o),
(-18,17,o),
(-18,10,cs),
(-18,3,o),
(-12,0,o),
(-3,0,cs)
);
},
{
closed = 1;
nodes = (
(164,278,o),
(159,285,o),
(161,295,cs),
(238,563,l),
(244,563,l),
(317,295,ls),
(320,285,o),
(314,278,o),
(302,278,cs),
(176,278,ls)
);
}
);
width = 526;
}
);
unicode = 65;
},
{
glyphname = AE;
kernRight = E;
lastChange = "2022-08-23 19:51:09 +0000";
layers = (
{
background = {
shapes = (
{
closed = 1;
nodes = (
(176,0,ls),
(186,0,o),
(192,4,o),
(192,11,cs),
(192,17,o),
(186,21,o),
(172,23,cs),
(155,25,ls),
(120,29,o),
(109,50,o),
(121,88,cs),
(160,222,ls),
(166,240,o),
(177,248,o),
(198,248,cs),
(319,248,ls),
(339,248,o),
(352,239,o),
(356,222,cs),
(400,67,l),
(481,80,l),
(299,714,ls),
(296,727,o),
(288,730,o),
(281,730,cs),
(275,730,o),
(267,727,o),
(263,714,cs),
(85,89,ls),
(75,52,o),
(61,31,o),
(31,26,cs),
(14,23,ls),
(3,21,o),
(-2,17,o),
(-2,10,cs),
(-2,3,o),
(5,0,o),
(15,0,cs)
);
},
{
closed = 1;
nodes = (
(183,278,o),
(177,285,o),
(179,295,cs),
(256,563,l),
(262,563,l),
(336,295,ls),
(338,285,o),
(332,278,o),
(321,278,cs),
(194,278,ls)
);
},
{
closed = 1;
nodes = (
(816,0,ls),
(834,0,o),
(844,8,o),
(845,23,cs),
(857,201,ls),
(858,212,o),
(851,218,o),
(843,218,cs),
(834,218,o),
(828,213,o),
(826,205,cs),
(812,146,ls),
(790,53,o),
(734,25,o),
(657,25,cs),
(582,25,o),
(558,45,o),
(558,93,cs),
(558,344,ls),
(558,353,o),
(564,358,o),
(574,358,cs),
(630,358,ls),
(665,358,o),
(683,347,o),
(693,301,cs),
(705,252,ls),
(707,244,o),
(715,238,o),
(724,239,cs),
(733,240,o),
(737,245,o),
(737,256,cs),
(737,481,ls),
(737,492,o),
(733,497,o),
(724,498,cs),
(715,499,o),
(707,493,o),
(705,485,cs),
(693,435,ls),
(685,402,o),
(666,388,o),
(631,388,cs),
(574,388,ls),
(564,388,o),
(558,393,o),
(558,402,cs),
(558,643,ls),
(558,681,o),
(577,695,o),
(639,695,cs),
(731,695,o),
(782,654,o),
(799,564,cs),
(806,527,ls),
(807,519,o),
(813,514,o),
(822,514,cs),
(831,514,o),
(838,520,o),
(837,531,cs),
(828,697,ls),
(827,712,o),
(816,720,o),
(799,720,cs),
(413,720,ls),
(401,720,o),
(396,716,o),
(396,709,cs),
(396,703,o),
(400,699,o),
(411,697,cs),
(437,693,ls),
(469,688,o),
(476,682,o),
(476,654,cs),
(476,66,ls),
(476,38,o),
(469,32,o),
(437,27,cs),
(411,23,ls),
(400,21,o),
(396,17,o),
(396,11,cs),
(396,4,o),
(401,0,o),
(413,0,cs)
);
}
);
};
layerId = m01;
shapes = (
{
closed = 1;
nodes = (
(169,0,ls),
(182,0,o),
(187,4,o),
(187,11,cs),
(187,17,o),
(182,21,o),
(168,23,cs),
(150,25,ls),
(114,29,o),
(107,53,o),
(128,88,cs),
(277,348,ls),
(281,355,o),
(288,358,o),
(296,358,cs),
(460,358,ls),
(470,358,o),
(476,353,o),
(476,344,cs),
(476,66,ls),
(476,38,o),
(469,32,o),
(437,27,cs),
(411,23,ls),
(400,21,o),
(396,17,o),
(396,11,cs),
(396,4,o),
(401,0,o),
(413,0,cs),
(816,0,ls),
(834,0,o),
(844,8,o),
(845,23,cs),
(857,201,ls),
(858,212,o),
(851,218,o),
(843,218,cs),
(834,218,o),
(828,213,o),
(826,205,cs),
(812,146,ls),
(790,53,o),
(734,25,o),
(657,25,cs),
(582,25,o),
(558,45,o),
(558,93,cs),
(558,344,ls),
(558,353,o),
(564,358,o),
(574,358,cs),
(630,358,ls),
(665,358,o),
(683,347,o),
(693,301,cs),
(705,252,ls),
(707,244,o),
(715,238,o),
(724,239,cs),
(733,240,o),
(737,245,o),
(737,256,cs),
(737,481,ls),
(737,492,o),
(733,497,o),
(724,498,cs),
(715,499,o),
(707,493,o),
(705,485,cs),
(693,435,ls),
(685,402,o),
(666,388,o),
(631,388,cs),
(574,388,ls),
(564,388,o),
(558,393,o),
(558,402,cs),
(558,643,ls),
(558,681,o),
(577,695,o),
(639,695,cs),
(731,695,o),
(782,654,o),
(799,564,cs),
(806,527,ls),
(807,519,o),
(813,514,o),
(822,514,cs),
(831,514,o),
(838,520,o),
(837,531,cs),
(828,697,ls),
(827,712,o),
(816,720,o),
(799,720,cs),
(362,720,ls),
(351,720,o),
(345,716,o),
(345,709,cs),
(345,703,o),
(350,699,o),
(360,697,cs),
(386,692,ls),
(419,686,o),
(430,682,o),
(414,654,cs),
(90,89,ls),
(70,54,o),
(43,31,o),
(13,26,cs),
(-4,23,ls),
(-13,21,o),
(-18,18,o),
(-18,11,cs),
(-18,4,o),
(-12,0,o),
(-3,0,cs)
);
},
{
closed = 1;
nodes = (
(460,667,ls),
(466,678,o),
(476,676,o),
(476,664,cs),
(476,402,ls),
(476,393,o),
(470,388,o),
(460,388,cs),
(321,388,ls),
(309,388,o),
(305,396,o),
(309,405,cs)
);
}
);
width = 895;
}
);
metricLeft = A;
metricRight = E;
unicode = 198;
},
{
glyphname = B;
kernLeft = H;
lastChange = "2022-09-01 21:00:59 +0000";
layers = (
{
background = {
shapes = (
{
closed = 1;
nodes = (
(277,0,ls),
(415,0,o),
(518,85,o),
(518,204,cs),
(518,302,o),
(446,377,o),
(338,401,c),
(338,406,l),
(421,437,o),
(471,495,o),
(471,560,cs),
(471,652,o),
(388,720,o),
(273,720,cs),
(39,720,ls),
(28,720,o),
(22,716,o),
(22,709,cs),
(22,702,o),
(26,699,o),
(37,697,cs),
(63,693,ls),
(95,688,o),
(102,682,o),
(102,654,cs),
(102,66,ls),
(102,38,o),
(95,32,o),
(63,27,cs),
(37,23,ls),
(26,21,o),
(22,18,o),
(22,11,cs),
(22,4,o),
(28,0,o),
(39,0,cs)
);
},
{
closed = 1;
nodes = (
(208,25,o),
(184,47,o),
(184,94,cs),
(184,337,ls),
(184,371,o),
(206,386,o),
(255,386,cs),
(362,386,o),
(431,318,o),
(431,207,cs),
(431,96,o),
(362,25,o),
(262,25,cs)
);
},
{
closed = 1;
nodes = (
(202,411,o),
(184,427,o),
(184,466,cs),
(184,655,ls),
(184,682,o),
(204,695,o),
(245,695,cs),
(330,695,o),
(388,639,o),
(388,556,cs),
(388,473,o),
(327,411,o),
(245,411,cs)
);
}
);
};
layerId = m01;
shapes = (
{
closed = 1;
nodes = (
(277,0,ls),
(415,0,o),
(518,85,o),
(518,204,cs),
(518,296,o),
(458,366,o),
(354,397,cs),
(343,400,o),
(344,408,o),
(353,412,cs),
(429,446,o),
(471,500,o),
(471,560,cs),
(471,652,o),
(388,720,o),
(273,720,cs),
(39,720,ls),
(28,720,o),
(22,716,o),
(22,709,cs),
(22,702,o),
(26,699,o),
(37,697,cs),
(63,693,ls),
(95,688,o),
(102,682,o),
(102,654,cs),
(102,66,ls),
(102,38,o),
(95,32,o),
(63,27,cs),
(37,23,ls),
(26,21,o),
(22,18,o),
(22,11,cs),
(22,4,o),
(28,0,o),
(39,0,cs)
);
},
{
closed = 1;
nodes = (
(208,25,o),
(184,47,o),
(184,94,cs),
(184,337,ls),
(184,371,o),
(206,386,o),
(255,386,cs),
(362,386,o),
(431,318,o),
(431,207,cs),
(431,96,o),
(362,25,o),
(262,25,cs)
);
},
{
closed = 1;
nodes = (
(202,411,o),
(184,427,o),
(184,466,cs),
(184,655,ls),
(184,682,o),
(204,695,o),
(245,695,cs),
(330,695,o),
(388,639,o),
(388,556,cs),
(388,473,o),
(327,411,o),
(245,411,cs)
);
}
);
width = 550;
}
);
unicode = 66;
},
{
glyphname = C;
kernLeft = O;
kernRight = C;
lastChange = "2022-09-01 20:50:49 +0000";
layers = (
{
anchors = (
{
name = bottom;
pos = (276,0);
},
{
name = top;
pos = (280,720);
}
);
background = {
shapes = (
{
closed = 1;
nodes = (
(402,-9,o),
(450,2,o),
(486,18,cs),
(497,23,o),
(498,28,o),
(499,39,cs),
(508,201,ls),
(509,212,o),
(504,217,o),
(496,218,cs),
(486,219,o),
(480,214,o),
(477,205,cs),
(467,156,ls),
(444,49,o),
(398,18,o),
(329,18,cs),
(228,18,o),
(136,139,o),
(136,364,cs),
(136,582,o),
(216,703,o),
(329,703,cs),
(386,703,o),
(431,671,o),
(457,565,cs),
(466,526,ls),
(468,517,o),
(475,512,o),
(484,513,cs),
(492,514,o),
(497,519,o),
(497,530,cs),
(491,682,ls),
(491,693,o),
(489,698,o),
(478,703,cs),
(442,719,o),
(394,730,o),
(332,730,cs),
(172,730,o),
(46,584,o),
(46,364,cs),
(46,137,o),
(159,-9,o),
(329,-9,cs)
);
}
);
};
layerId = m01;
shapes = (
{
closed = 1;
nodes = (
(402,-9,o),
(450,2,o),
(486,18,cs),
(497,23,o),
(501,28,o),
(501,39,cs),
(506,201,ls),
(506,212,o),
(501,217,o),
(493,218,cs),
(484,219,o),
(477,214,o),
(475,205,cs),
(461,156,ls),
(431,49,o),
(393,20,o),
(324,20,cs),
(228,20,o),
(136,139,o),
(136,364,cs),
(136,582,o),
(216,701,o),
(323,701,cs),
(381,701,o),
(422,667,o),
(454,563,cs),
(466,526,ls),
(468,517,o),
(473,513,o),
(482,513,cs),
(491,513,o),
(496,519,o),
(496,530,cs),
(492,682,ls),
(492,693,o),
(489,698,o),
(478,703,cs),
(442,719,o),
(394,730,o),
(332,730,cs),
(172,730,o),
(46,584,o),
(46,364,cs),
(46,137,o),
(159,-9,o),
(329,-9,cs)
);
}
);
width = 552;
}
);
unicode = 67;
},
{
glyphname = D;
kernLeft = H;
kernRight = O;
lastChange = "2022-09-01 20:50:56 +0000";
layers = (
{
anchors = (
{
name = bottom;
pos = (265,0);
},
{
name = center;
pos = (265,360);
},
{
name = top;
pos = (255,720);
}
);
background = {
shapes = (
{
closed = 0;
nodes = (
(254,27,l),
(223,27,ls),
(191,27,o),
(184,39,o),
(184,67,cs),
(184,653,ls),
(184,681,o),
(191,689,o),
(223,693,cs),
(254,697,ls),
(262,698,o),
(267,702,o),
(267,708,cs),
(267,716,o),
(261,720,o),
(250,720,cs),
(39,720,ls),
(28,720,o),
(22,716,o),
(22,709,cs),
(22,703,o),
(26,699,o),
(37,697,cs),
(63,693,ls),
(95,688,o),
(102,682,o),
(102,654,cs),
(102,66,ls),
(102,38,o),
(95,32,o),
(63,27,cs),
(37,23,ls),
(26,21,o),
(22,17,o),
(22,11,cs),
(22,4,o),
(28,0,o),
(39,0,cs),
(310,0,ls),
(458,0,o),
(575,152,o),
(575,361,cs),
(575,568,o),
(458,720,o),
(310,720,cs)
);
},
{
closed = 0;
nodes = (
(310,693,l),
(419,693,o),
(485,591,o),
(485,361,cs),
(485,129,o),
(419,27,o),
(310,27,cs)
);
}
);
};
layerId = m01;
shapes = (
{
closed = 1;
nodes = (
(260,0,ls),
(445,0,o),
(564,139,o),
(564,357,cs),
(564,573,o),
(451,720,o),
(271,720,cs),
(39,720,ls),
(28,720,o),
(22,716,o),
(22,709,cs),
(22,702,o),
(26,699,o),
(37,697,cs),
(63,693,ls),
(95,688,o),
(102,682,o),
(102,654,cs),
(102,66,ls),
(102,42,o),
(91,31,o),
(63,27,cs),
(37,23,ls),
(26,21,o),
(22,18,o),
(22,11,cs),
(22,4,o),
(28,0,o),
(39,0,cs)
);
},
{
closed = 1;
nodes = (
(207,26,o),
(184,46,o),
(184,99,cs),
(184,621,ls),
(184,669,o),
(215,694,o),
(271,694,cs),
(405,694,o),
(474,570,o),
(474,357,cs),
(474,142,o),
(400,26,o),
(264,26,cs)
);
}
);
width = 610;
}
);
unicode = 68;
},
{
glyphname = Eth;
kernLeft = H;
kernRight = O;
lastChange = "2022-08-23 19:52:33 +0000";
layers = (
{
layerId = m01;
shapes = (
{
ref = D;
},
{
closed = 1;
nodes = (
(327,358,ls),
(334,358,o),
(338,362,o),
(338,368,cs),
(338,376,ls),
(338,382,o),
(334,386,o),
(327,386,cs),
(33,386,ls),
(26,386,o),
(22,382,o),
(22,376,cs),
(22,368,ls),
(22,362,o),
(26,358,o),
(33,358,cs)
);
}
);
width = 610;
}
);
unicode = 208;
},
{
glyphname = E;
kernLeft = H;
kernRight = E;
lastChange = "2022-09-01 20:51:22 +0000";
layers = (
{
anchors = (
{
name = bottom;
pos = (227,0);
},
{
name = ogonek;
pos = (385,0);
},
{
name = top;
pos = (227,720);
},
{
name = topleft;
pos = (20,720);
}
);
background = {
shapes = (
{
closed = 1;
nodes = (
(443,0,ls),
(460,0,o),
(470,8,o),
(471,23,cs),
(483,201,ls),
(484,212,o),
(477,218,o),
(469,218,cs),
(460,218,o),
(454,213,o),
(452,205,cs),
(435,128,ls),
(416,45,o),
(363,25,o),
(283,25,cs),
(208,25,o),
(184,45,o),
(184,93,cs),
(184,344,ls),
(184,353,o),
(190,358,o),
(200,358,cs),
(260,358,ls),
(294,358,o),
(314,347,o),
(323,301,cs),
(332,252,ls),
(334,244,o),
(342,238,o),
(351,239,cs),
(359,240,o),
(363,245,o),
(363,256,cs),
(363,481,ls),
(363,492,o),
(359,497,o),
(351,498,cs),
(342,499,o),
(334,493,o),
(332,485,cs),
(323,435,ls),
(317,402,o),
(296,388,o),
(261,388,cs),
(200,388,ls),
(190,388,o),
(184,393,o),
(184,402,cs),
(184,643,ls),
(184,681,o),
(204,695,o),
(266,695,cs),
(346,695,o),
(411,674,o),
(424,582,cs),
(432,527,ls),
(434,519,o),
(439,514,o),
(448,514,cs),
(458,514,o),
(465,520,o),
(463,531,cs),
(454,697,ls),
(453,712,o),
(443,720,o),
(425,720,cs),
(39,720,ls),
(28,720,o),
(22,716,o),
(22,709,cs),
(22,703,o),
(26,699,o),
(37,697,cs),
(63,693,ls),
(95,688,o),
(102,682,o),
(102,654,cs),
(102,66,ls),
(102,38,o),
(95,32,o),
(63,27,cs),
(37,23,ls),
(26,21,o),
(22,17,o),
(22,11,cs),
(22,4,o),
(28,0,o),
(39,0,cs)
);
}
);
};
layerId = m01;
shapes = (
{
closed = 1;
nodes = (
(443,0,ls),
(460,0,o),
(470,8,o),
(471,23,cs),
(483,201,ls),
(484,212,o),
(477,218,o),
(469,218,cs),
(460,218,o),
(454,213,o),
(452,205,cs),
(438,146,ls),
(416,53,o),
(360,25,o),
(283,25,cs),
(208,25,o),
(184,45,o),
(184,93,cs),
(184,344,ls),
(184,353,o),
(190,358,o),
(200,358,cs),
(256,358,ls),
(291,358,o),
(309,347,o),
(320,301,cs),
(331,252,ls),
(334,244,o),
(342,238,o),
(351,239,cs),
(359,240,o),
(363,245,o),
(363,256,cs),
(363,481,ls),
(363,492,o),
(359,497,o),
(351,498,cs),
(342,499,o),
(334,493,o),
(331,485,cs),
(320,435,ls),
(312,402,o),
(292,388,o),
(258,388,cs),
(200,388,ls),
(190,388,o),
(184,393,o),
(184,402,cs),
(184,643,ls),
(184,681,o),
(204,695,o),
(266,695,cs),
(358,695,o),
(408,654,o),
(425,564,cs),
(432,527,ls),
(434,519,o),
(439,514,o),
(448,514,cs),
(458,514,o),
(465,520,o),
(463,531,cs),
(454,697,ls),
(453,712,o),
(443,720,o),
(425,720,cs),
(39,720,ls),
(28,720,o),
(22,716,o),
(22,709,cs),
(22,703,o),
(26,699,o),
(37,697,cs),
(63,693,ls),
(95,688,o),
(102,682,o),
(102,654,cs),
(102,66,ls),
(102,38,o),
(95,32,o),
(63,27,cs),
(37,23,ls),
(26,21,o),
(22,17,o),
(22,11,cs),
(22,4,o),
(28,0,o),
(39,0,cs)
);
}
);
width = 521;
}
);
unicode = 69;
},
{
glyphname = F;
kernLeft = H;
lastChange = "2022-09-01 20:52:39 +0000";
layers = (
{
background = {
shapes = (
{
closed = 1;
nodes = (
(273,0,ls),
(284,0,o),
(290,4,o),
(290,12,cs),
(290,18,o),
(285,22,o),
(277,23,cs),
(223,30,ls),
(191,34,o),
(184,43,o),
(184,71,cs),
(184,344,ls),
(184,353,o),
(190,358,o),
(200,358,cs),
(243,358,ls),
(277,358,o),
(297,347,o),
(306,301,cs),
(315,253,ls),
(316,245,o),
(324,239,o),
(334,240,cs),
(342,241,o),
(346,246,o),
(346,257,cs),
(346,480,ls),
(346,491,o),
(342,496,o),
(334,497,cs),
(324,498,o),
(316,492,o),
(315,484,cs),
(306,435,ls),
(300,402,o),
(278,388,o),
(244,388,cs),
(200,388,ls),
(190,388,o),
(184,393,o),
(184,402,cs),
(184,638,ls),
(184,676,o),
(204,695,o),
(271,695,cs),
(336,695,o),
(394,674,o),
(408,582,cs),
(416,527,ls),
(417,519,o),
(423,514,o),
(432,514,cs),
(442,514,o),
(448,520,o),
(447,531,cs),
(438,697,ls),
(437,712,o),
(427,720,o),
(409,720,cs),
(39,720,ls),
(28,720,o),
(22,716,o),
(22,709,cs),
(22,703,o),
(26,699,o),
(37,697,cs),
(63,693,ls),
(95,688,o),
(102,682,o),
(102,654,cs),
(102,66,ls),
(102,38,o),
(95,32,o),
(63,27,cs),
(37,23,ls),
(26,21,o),
(22,17,o),
(22,11,cs),
(22,4,o),
(28,0,o),
(39,0,cs)
);
}
);
};
layerId = m01;
shapes = (
{
closed = 1;
nodes = (
(273,0,ls),
(284,0,o),
(290,4,o),
(290,12,cs),
(290,18,o),
(285,22,o),
(277,23,cs),
(223,30,ls),
(191,34,o),
(184,43,o),
(184,71,cs),
(184,344,ls),
(184,353,o),
(190,358,o),
(200,358,cs),
(239,358,ls),
(274,358,o),
(291,347,o),
(302,301,cs),
(315,252,ls),
(317,244,o),
(323,239,o),
(332,239,cs),
(340,239,o),
(346,245,o),
(346,256,cs),
(346,481,ls),
(346,492,o),
(340,498,o),
(332,498,cs),
(323,498,o),
(317,493,o),
(315,485,cs),
(302,435,ls),
(294,402,o),
(275,388,o),
(240,388,cs),
(200,388,ls),
(190,388,o),
(184,393,o),
(184,402,cs),
(184,638,ls),
(184,676,o),
(204,695,o),
(271,695,cs),
(324,695,o),
(392,663,o),
(411,560,cs),
(416,527,ls),
(417,519,o),
(423,514,o),
(432,514,cs),
(442,514,o),
(448,520,o),
(447,531,cs),
(438,697,ls),
(437,712,o),
(427,720,o),
(409,720,cs),
(39,720,ls),
(28,720,o),
(22,716,o),
(22,709,cs),
(22,703,o),
(26,699,o),
(37,697,cs),
(63,693,ls),
(95,688,o),
(102,682,o),
(102,654,cs),
(102,66,ls),
(102,38,o),
(95,32,o),
(63,27,cs),
(37,23,ls),
(26,21,o),
(22,17,o),
(22,11,cs),
(22,4,o),
(28,0,o),
(39,0,cs)
);
}
);
width = 469;
}
);
unicode = 70;
},
{
glyphname = G;
kernLeft = O;
kernRight = G;
lastChange = "2022-09-01 20:53:01 +0000";
layers = (
{
anchors = (
{
name = bottom;
pos = (291,0);
},
{
name = top;
pos = (291,720);
}
);
background = {
shapes = (
{
closed = 1;
nodes = (
(402,-9,o),
(450,2,o),
(486,18,cs),
(497,23,o),
(498,28,o),
(499,39,cs),
(508,201,ls),
(509,212,o),
(504,217,o),
(496,218,cs),
(486,219,o),
(480,214,o),
(477,205,cs),
(467,156,ls),
(444,49,o),
(398,18,o),
(329,18,cs),
(228,18,o),
(136,139,o),
(136,364,cs),
(136,582,o),
(216,703,o),
(329,703,cs),
(386,703,o),
(431,671,o),
(457,565,cs),
(466,526,ls),
(468,517,o),
(475,512,o),
(484,513,cs),
(492,514,o),
(497,519,o),
(497,530,cs),
(491,682,ls),
(491,693,o),
(489,698,o),
(478,703,cs),
(442,719,o),
(394,730,o),
(332,730,cs),
(172,730,o),
(46,584,o),
(46,364,cs),
(46,137,o),
(159,-9,o),
(329,-9,cs)
);
}
);
};
guides = (
{
pos = (361,730);
},
{
angle = 90;
pos = (452,530);
}
);
layerId = m01;
shapes = (
{
closed = 1;
nodes = (
(397,-9,o),
(444,2,o),
(481,18,cs),
(504,28,o),
(512,35,o),
(512,50,cs),
(512,321,ls),
(512,349,o),
(513,359,o),
(546,363,cs),
(564,365,ls),
(572,366,o),
(576,370,o),
(576,376,cs),
(576,384,o),
(570,388,o),
(559,388,cs),
(348,388,ls),
(337,388,o),
(331,384,o),
(331,377,cs),
(331,371,o),
(336,366,o),
(346,365,cs),
(391,361,ls),
(423,358,o),
(430,350,o),
(430,322,cs),
(430,103,ls),
(430,38,o),
(398,18,o),
(335,18,cs),
(217,18,o),
(136,139,o),
(136,364,cs),
(136,582,o),
(216,701,o),
(329,701,cs),
(404,701,o),
(440,667,o),
(475,556,cs),
(484,526,ls),
(486,517,o),
(491,513,o),
(500,513,cs),
(508,513,o),
(514,519,o),
(514,530,cs),
(511,682,ls),
(511,693,o),
(506,698,o),
(496,703,cs),
(459,719,o),
(409,730,o),
(350,730,cs),
(172,730,o),
(46,584,o),
(46,364,cs),
(46,137,o),
(147,-9,o),
(335,-9,cs)
);
}
);
width = 599;
}
);
unicode = 71;
},
{
glyphname = H;
kernLeft = H;
kernRight = H;
lastChange = "2022-09-01 20:53:06 +0000";
layers = (
{
background = {
shapes = (
{
closed = 1;
nodes = (
(263,0,l),
(263,22,l),
(213,29,ls),
(191,32,o),
(184,38,o),
(184,62,cs),
(184,358,l),
(444,358,l),
(444,62,ls),
(444,38,o),
(437,32,o),
(415,29,cs),
(365,22,l),
(365,0,l),
(606,0,l),
(606,22,l),
(554,29,ls),
(532,32,o),
(526,38,o),
(526,62,cs),
(526,658,ls),
(526,682,o),
(532,688,o),
(554,691,cs),
(606,698,l),
(606,720,l),
(365,720,l),
(365,698,l),
(415,691,ls),
(437,688,o),
(444,682,o),
(444,658,cs),
(444,388,l),
(184,388,l),
(184,658,ls),
(184,682,o),
(191,688,o),
(213,691,cs),
(263,698,l),
(263,720,l),
(22,720,l),
(22,698,l),
(74,691,ls),
(95,688,o),
(102,682,o),
(102,658,cs),
(102,62,ls),
(102,38,o),
(95,32,o),
(74,29,cs),
(22,22,l),
(22,0,l)
);
}
);
};
layerId = m01;
shapes = (
{
closed = 1;
nodes = (
(250,0,ls),
(261,0,o),
(267,4,o),
(267,12,cs),
(267,18,o),
(262,22,o),
(254,23,cs),
(223,27,ls),
(191,31,o),
(184,39,o),
(184,67,cs),
(184,344,ls),
(184,353,o),
(190,358,o),
(200,358,cs),
(428,358,ls),
(438,358,o),
(444,353,o),
(444,344,cs),
(444,67,ls),
(444,39,o),
(437,31,o),
(405,27,cs),
(374,23,ls),
(366,22,o),
(361,18,o),
(361,12,cs),
(361,4,o),
(367,0,o),
(378,0,cs),
(589,0,ls),
(600,0,o),
(606,4,o),
(606,11,cs),
(606,17,o),
(601,21,o),
(591,23,cs),
(565,27,ls),
(532,32,o),
(526,38,o),
(526,66,cs),
(526,654,ls),
(526,682,o),
(532,688,o),
(565,693,cs),
(591,697,ls),
(601,699,o),
(606,703,o),
(606,709,cs),
(606,716,o),
(600,720,o),
(589,720,cs),
(378,720,ls),
(367,720,o),
(361,716,o),
(361,708,cs),
(361,702,o),
(366,698,o),
(374,697,cs),
(405,693,ls),
(437,689,o),
(444,681,o),
(444,653,cs),
(444,402,ls),
(444,393,o),
(438,388,o),
(428,388,cs),
(200,388,ls),
(190,388,o),
(184,393,o),
(184,402,cs),
(184,653,ls),
(184,681,o),
(191,689,o),
(223,693,cs),
(254,697,ls),
(262,698,o),
(267,702,o),
(267,708,cs),
(267,716,o),
(261,720,o),
(250,720,cs),
(39,720,ls),
(28,720,o),
(22,716,o),
(22,709,cs),
(22,703,o),
(26,699,o),
(37,697,cs),
(63,693,ls),
(95,688,o),
(102,682,o),
(102,654,cs),
(102,66,ls),
(102,38,o),
(95,32,o),
(63,27,cs),
(37,23,ls),
(26,21,o),
(22,17,o),
(22,11,cs),
(22,4,o),
(28,0,o),
(39,0,cs)
);
}
);
width = 628;
}
);
unicode = 72;
},
{
glyphname = Hbar;
kernLeft = H;
kernRight = H;
lastChange = "2022-08-23 19:52:53 +0000";
layers = (
{
layerId = m01;
shapes = (
{
ref = H;
},
{
closed = 1;
nodes = (
(595,532,ls),
(601,532,o),
(606,536,o),
(606,542,cs),
(606,550,ls),
(606,556,o),
(601,560,o),
(595,560,cs),
(33,560,ls),
(26,560,o),
(22,556,o),
(22,550,cs),
(22,542,ls),
(22,536,o),
(26,532,o),
(33,532,cs)
);
}
);
width = 628;
}
);
unicode = 294;
},
{
glyphname = I;
kernLeft = H;
kernRight = H;
lastChange = "2022-08-25 19:54:44 +0000";
layers = (
{
anchors = (
{
name = bottom;
pos = (125,0);
},
{
name = ogonek;
pos = (160,0);
},
{
name = top;
pos = (125,720);
},
{
name = topleft;
pos = (20,720);
}
);
background = {
shapes = (
{
closed = 1;
nodes = (
(264,0,l),
(264,22,l),
(213,29,ls),
(191,32,o),
(184,38,o),
(184,62,cs),
(184,658,ls),
(184,682,o),
(191,688,o),
(213,691,cs),
(264,698,l),
(264,720,l),
(22,720,l),
(22,698,l),
(74,691,ls),
(95,688,o),
(102,682,o),
(102,658,cs),
(102,62,ls),
(102,38,o),
(95,32,o),
(74,29,cs),
(22,22,l),
(22,0,l)
);
}
);
};
layerId = m01;
shapes = (
{
closed = 1;
nodes = (
(247,0,ls),
(259,0,o),
(264,4,o),
(264,11,cs),
(264,17,o),
(260,21,o),
(250,23,cs),
(223,27,ls),
(191,32,o),
(184,38,o),
(184,66,cs),
(184,654,ls),
(184,682,o),
(191,688,o),
(223,693,cs),
(250,697,ls),
(260,699,o),
(264,703,o),
(264,709,cs),
(264,716,o),
(259,720,o),
(247,720,cs),
(39,720,ls),
(28,720,o),
(22,716,o),
(22,709,cs),
(22,703,o),
(26,699,o),
(37,697,cs),
(63,693,ls),
(95,688,o),
(102,682,o),
(102,654,cs),
(102,66,ls),
(102,38,o),
(95,32,o),
(63,27,cs),
(37,23,ls),
(26,21,o),
(22,17,o),
(22,11,cs),
(22,4,o),
(28,0,o),
(39,0,cs)
);
}
);
width = 286;
}
);
unicode = 73;
},
{
glyphname = J;
kernRight = J;
lastChange = "2022-09-01 21:01:27 +0000";
layers = (
{
layerId = m01;
shapes = (
{
closed = 1;
nodes = (
(120,-215,o),
(184,-116,o),
(184,44,cs),
(184,654,ls),
(184,682,o),
(191,688,o),
(223,693,cs),
(250,697,ls),
(260,699,o),
(264,702,o),
(264,709,cs),
(264,716,o),
(259,720,o),
(247,720,cs),
(39,720,ls),
(28,720,o),
(22,716,o),
(22,709,cs),
(22,702,o),
(26,699,o),
(37,697,cs),
(63,693,ls),
(95,688,o),
(102,682,o),
(102,654,cs),
(102,-91,ls),
(102,-144,o),
(86,-175,o),
(57,-175,cs),
(16,-175,o),
(33,-109,o),
(-15,-109,cs),
(-39,-109,o),
(-56,-128,o),
(-56,-155,cs),
(-56,-191,o),
(-28,-215,o),
(16,-215,cs)
);
}
);
width = 286;
}
);
unicode = 74;
},
{
glyphname = K;
kernLeft = H;
kernRight = K;
lastChange = "2022-09-01 20:53:20 +0000";
layers = (
{
anchors = (
{
name = bottom;
pos = (268,0);
},
{
name = top;
pos = (248,720);
}
);
background = {
shapes = (
{
closed = 1;
nodes = (
(250,0,ls),
(261,0,o),
(267,4,o),
(267,12,cs),
(267,18,o),
(262,22,o),
(254,23,cs),
(223,27,ls),
(191,31,o),
(184,39,o),
(184,67,cs),
(184,653,ls),
(184,681,o),
(191,689,o),
(223,693,cs),
(254,697,ls),
(262,698,o),
(267,702,o),
(267,708,cs),
(267,716,o),
(261,720,o),
(250,720,cs),
(39,720,ls),
(28,720,o),
(22,716,o),
(22,709,cs),
(22,703,o),
(26,699,o),
(37,697,cs),
(63,693,ls),
(95,688,o),
(102,682,o),
(102,654,cs),
(102,66,ls),
(102,38,o),
(95,32,o),
(63,27,cs),
(37,23,ls),
(26,21,o),
(22,17,o),
(22,11,cs),
(22,4,o),
(28,0,o),
(39,0,cs)
);
},
{
closed = 1;
nodes = (
(424,623,ls),
(462,675,o),
(488,691,o),
(535,695,cs),
(557,697,ls),
(568,698,o),
(572,703,o),
(572,709,cs),
(572,716,o),
(566,720,o),
(555,720,cs),
(360,720,ls),
(350,720,o),
(344,716,o),
(344,710,cs),
(344,703,o),
(348,699,o),
(359,697,cs),
(385,693,ls),
(416,688,o),
(417,669,o),
(392,635,cs),
(190,359,l),
(176,359,l),
(176,286,l)
);
},
{
closed = 1;
nodes = (
(228,372,l),
(228,360,l),
(236,360,l),
(409,74,ls),
(427,45,o),
(420,28,o),
(391,25,cs),
(371,23,ls),
(362,22,o),
(356,17,o),
(356,11,cs),
(356,5,o),
(362,0,o),
(373,0,cs),
(577,0,ls),
(588,0,o),
(593,4,o),
(593,11,cs),
(593,18,o),
(589,22,o),
(580,23,cs),
(552,27,ls),
(534,30,o),
(522,38,o),
(509,59,cs),
(278,437,l)
);
}
);
};
layerId = m01;
shapes = (
{
closed = 1;
nodes = (
(250,0,ls),
(261,0,o),
(267,4,o),
(267,12,cs),
(267,18,o),
(262,22,o),
(254,23,cs),
(223,27,ls),
(191,31,o),
(184,39,o),
(184,67,cs),
(184,274,ls),
(184,293,o),
(187,302,o),
(198,316,cs),
(222,349,ls),
(229,359,o),
(238,358,o),
(244,348,cs),
(409,74,ls),
(427,45,o),
(420,28,o),
(391,25,cs),
(371,23,ls),
(362,22,o),
(356,17,o),
(356,11,cs),
(356,5,o),
(362,0,o),
(373,0,cs),
(577,0,ls),
(588,0,o),
(593,4,o),
(593,11,cs),
(593,18,o),
(589,22,o),
(580,23,cs),
(552,27,ls),
(534,30,o),
(522,38,o),
(509,59,cs),
(293,413,ls),
(286,424,o),
(286,434,o),
(294,446,cs),
(424,623,ls),
(462,675,o),
(488,691,o),
(535,695,cs),
(557,697,ls),
(568,698,o),
(572,703,o),
(572,709,cs),
(572,716,o),
(566,720,o),
(555,720,cs),
(360,720,ls),
(350,720,o),
(344,716,o),
(344,710,cs),
(344,703,o),
(348,699,o),
(359,697,cs),
(385,693,ls),
(416,688,o),
(417,669,o),
(392,635,cs),
(204,378,ls),
(195,366,o),
(184,370,o),
(184,383,cs),
(184,653,ls),
(184,681,o),
(191,689,o),
(223,693,cs),
(254,697,ls),
(262,698,o),
(267,702,o),
(267,708,cs),
(267,716,o),
(261,720,o),
(250,720,cs),
(39,720,ls),
(28,720,o),
(22,716,o),
(22,709,cs),
(22,703,o),
(26,699,o),
(37,697,cs),
(63,693,ls),
(95,688,o),
(102,682,o),
(102,654,cs),
(102,66,ls),
(102,38,o),
(95,32,o),
(63,27,cs),
(37,23,ls),
(26,21,o),
(22,17,o),
(22,11,cs),
(22,4,o),
(28,0,o),
(39,0,cs)
);
}
);
width = 570;
}
);
unicode = 75;
},
{
glyphname = L;
kernLeft = H;
kernRight = L;
lastChange = "2022-09-01 20:16:45 +0000";
layers = (
{
anchors = (
{
name = bottom;
pos = (207,0);
},
{
name = center;
pos = (207,360);
},
{
name = top;
pos = (125,720);
},
{
name = topright;
pos = (275,720);
}
);
layerId = m01;
shapes = (
{
closed = 1;
nodes = (
(411,0,ls),
(428,0,o),
(438,8,o),
(439,23,cs),
(453,211,ls),
(454,222,o),
(447,228,o),
(439,228,cs),
(430,228,o),
(424,223,o),
(422,215,cs),
(407,148,ls),
(384,45,o),
(320,25,o),
(267,25,cs),
(220,25,o),
(184,45,o),
(184,93,cs),
(184,653,ls),
(184,681,o),
(191,689,o),
(223,693,cs),
(254,697,ls),
(262,698,o),
(267,702,o),
(267,708,cs),
(267,716,o),
(261,720,o),
(250,720,cs),
(39,720,ls),
(28,720,o),
(22,716,o),
(22,709,cs),
(22,703,o),
(26,699,o),
(37,697,cs),
(63,693,ls),
(95,688,o),
(102,682,o),
(102,654,cs),
(102,66,ls),
(102,38,o),
(95,32,o),
(63,27,cs),
(37,23,ls),
(26,21,o),
(22,17,o),
(22,11,cs),
(22,4,o),
(28,0,o),
(39,0,cs)
);
}
);
width = 475;
}
);
unicode = 76;
},
{
glyphname = Lslash;
kernLeft = H;
kernRight = L;
lastChange = "2022-08-23 19:53:25 +0000";
layers = (
{
layerId = m01;
shapes = (
{
ref = L;
},
{
closed = 1;
nodes = (
(158,383,l),
(17,307,ls),
(12,304,o),
(10,298,o),
(14,293,cs),
(20,286,ls),
(23,281,o),
(29,280,o),
(34,283,cs),
(158,350,l)
);
},
{
closed = 1;
nodes = (
(158,353,l),
(304,432,ls),
(309,435,o),
(310,441,o),
(307,446,cs),
(301,453,ls),
(298,458,o),
(292,459,o),
(286,456,cs),
(158,386,l)
);
}
);
width = 475;
}
);
unicode = 321;
},
{
glyphname = M;
lastChange = "2022-09-01 20:53:28 +0000";
layers = (
{
background = {
shapes = (
{
closed = 1;
nodes = (
(368,10,o),
(376,13,o),
(379,26,cs),
(560,661,l),
(575,661,l),
(577,720,l),
(573,720,ls),
(551,720,o),
(540,712,o),
(536,695,cs),
(386,177,l),
(381,177,l),
(238,690,ls),
(232,711,o),
(218,720,o),
(194,720,cs),
(146,720,l),
(344,26,ls),
(347,13,o),
(355,10,o),
(362,10,cs)
);
},
{
closed = 1;
nodes = (
(731,0,ls),
(743,0,o),
(749,4,o),
(749,11,cs),
(749,17,o),
(744,21,o),
(734,23,cs),
(707,27,ls),
(675,32,o),
(669,38,o),
(668,66,cs),
(645,654,ls),
(644,682,o),
(652,688,o),
(684,693,cs),
(711,697,ls),
(721,699,o),
(726,703,o),
(726,709,cs),
(726,716,o),
(720,720,o),
(708,720,cs),
(577,720,l),
(565,685,l),
(586,66,ls),
(588,38,o),
(580,32,o),
(547,27,cs),
(521,23,ls),
(511,21,o),
(506,17,o),
(506,11,cs),
(506,4,o),
(512,0,o),
(523,0,cs)
);
},
{
closed = 1;
nodes = (
(168,720,l),
(56,720,ls),
(45,720,o),
(39,716,o),
(39,709,cs),
(39,703,o),
(44,699,o),
(54,697,cs),
(80,693,ls),
(115,688,o),
(123,682,o),
(122,654,cs),
(99,86,ls),
(98,48,o),
(86,30,o),
(46,25,cs),
(31,23,ls),
(21,22,o),
(16,17,o),
(16,11,cs),
(16,4,o),
(22,0,o),
(33,0,cs),
(198,0,ls),
(209,0,o),
(215,4,o),
(215,11,cs),
(215,17,o),
(210,22,o),
(200,23,cs),
(185,25,ls),
(147,30,o),
(133,48,o),
(135,86,cs),
(158,661,l),
(163,661,l)
);
}
);
};
guides = (
{
angle = 177.9834;
pos = (96,370);
showMeasurement = 1;
},
{
angle = 1.9481;
pos = (571,360);
showMeasurement = 1;
}
);
layerId = m01;
shapes = (
{
closed = 1;
nodes = (
(368,10,o),
(376,13,o),
(379,26,cs),
(554,640,ls),
(557,648,o),
(567,647,o),
(567,638,cs),
(586,66,ls),
(588,38,o),
(580,32,o),
(547,27,cs),
(521,23,ls),
(511,21,o),
(506,17,o),
(506,11,cs),
(506,4,o),
(512,0,o),
(523,0,cs),
(731,0,ls),
(743,0,o),
(749,4,o),
(749,11,cs),
(749,17,o),
(744,21,o),
(734,23,cs),
(707,27,ls),
(675,32,o),
(669,38,o),
(668,66,cs),
(645,654,ls),
(644,682,o),
(652,688,o),
(684,693,cs),
(711,697,ls),
(721,699,o),
(726,703,o),
(726,709,cs),
(726,716,o),
(720,720,o),
(708,720,cs),
(573,720,ls),
(551,720,o),
(540,712,o),
(536,695,cs),
(391,191,ls),
(389,182,o),
(379,182,o),
(377,191,cs),
(238,690,ls),
(232,711,o),
(218,720,o),
(194,720,cs),
(56,720,ls),
(45,720,o),
(39,716,o),
(39,709,cs),
(39,703,o),
(44,699,o),
(54,697,cs),
(80,693,ls),
(115,688,o),
(123,682,o),
(122,654,cs),
(99,86,ls),
(98,48,o),
(86,30,o),
(46,25,cs),
(31,23,ls),
(21,22,o),
(16,17,o),
(16,11,cs),
(16,4,o),
(22,0,o),
(33,0,cs),
(198,0,ls),
(209,0,o),
(215,4,o),
(215,11,cs),
(215,17,o),
(210,22,o),
(200,23,cs),
(185,25,ls),
(147,30,o),
(133,48,o),
(135,86,cs),
(158,638,ls),
(158,647,o),
(168,648,o),
(170,639,cs),
(344,26,ls),
(347,13,o),
(355,10,o),
(362,10,cs)
);
}
);
width = 765;
}
);
unicode = 77;
},
{
glyphname = N;
kernLeft = N;
kernRight = N;
lastChange = "2022-09-01 20:53:33 +0000";
layers = (
{
anchors = (
{
name = bottom;
pos = (270,0);
},
{
name = top;
pos = (270,720);
}
);
background = {
shapes = (
{
closed = 1;
nodes = (
(511,-9,o),
(520,-1,o),
(520,13,cs),
(520,634,ls),
(520,676,o),
(532,690,o),
(573,695,cs),
(588,697,ls),
(598,698,o),
(603,703,o),
(603,709,cs),
(603,716,o),
(597,720,o),
(585,720,cs),
(421,720,ls),
(409,720,o),
(404,716,o),
(404,709,cs),
(404,703,o),
(408,699,o),
(419,697,cs),
(439,694,ls),
(466,690,o),
(484,676,o),
(484,634,cs),
(484,165,l),
(478,165,l),
(187,698,ls),
(178,714,o),
(167,720,o),
(147,720,cs),
(36,720,ls),
(24,720,o),
(18,716,o),
(18,709,cs),
(18,703,o),
(23,699,o),
(33,697,cs),
(60,693,ls),
(94,688,o),
(101,682,o),
(101,654,cs),
(101,86,ls),
(101,48,o),
(89,30,o),
(48,25,cs),
(33,23,ls),
(23,22,o),
(18,17,o),
(18,11,cs),
(18,4,o),
(24,0,o),
(36,0,cs),
(200,0,ls),
(212,0,o),
(217,4,o),
(217,11,cs),
(217,17,o),
(213,22,o),
(202,23,cs),
(187,25,ls),
(150,30,o),
(137,48,o),
(137,86,cs),
(137,617,l),
(143,617,l),
(475,7,ls),
(482,-5,o),
(488,-9,o),
(499,-9,cs)
);
}
);
};
layerId = m01;
shapes = (
{
closed = 1;
nodes = (
(508,-9,o),
(520,-1,o),
(520,23,cs),
(520,634,ls),
(520,676,o),
(532,690,o),
(573,695,cs),
(588,697,ls),
(598,698,o),
(603,703,o),
(603,709,cs),
(603,716,o),
(597,720,o),
(585,720,cs),
(421,720,ls),
(409,720,o),
(404,716,o),
(404,709,cs),
(404,703,o),
(408,699,o),
(419,697,cs),
(439,694,ls),
(466,690,o),
(484,676,o),
(484,634,cs),
(484,181,ls),
(484,173,o),
(475,171,o),
(470,179,cs),
(199,698,ls),
(191,714,o),
(178,720,o),
(159,720,cs),
(36,720,ls),
(24,720,o),
(18,716,o),
(18,709,cs),
(18,703,o),
(23,699,o),
(33,697,cs),
(60,693,ls),
(94,688,o),
(101,682,o),
(101,654,cs),
(101,86,ls),
(101,48,o),
(89,30,o),
(48,25,cs),
(33,23,ls),
(23,22,o),
(18,17,o),
(18,11,cs),
(18,4,o),
(24,0,o),
(36,0,cs),
(200,0,ls),
(212,0,o),
(217,4,o),
(217,11,cs),
(217,17,o),
(213,22,o),
(202,23,cs),
(187,25,ls),
(150,30,o),
(137,48,o),
(137,86,cs),
(137,600,ls),
(137,610,o),
(146,612,o),
(151,603,cs),
(462,15,ls),
(471,-3,o),
(478,-9,o),
(493,-9,cs)
);
}
);
width = 621;
}
);
unicode = 78;
},
{
glyphname = Eng;
kernLeft = N;
kernRight = N;
lastChange = "2022-08-23 20:12:33 +0000";
layers = (
{
layerId = m01;
shapes = (
{
closed = 1;
nodes = (
(455,-215,o),
(520,-116,o),
(520,44,cs),
(520,634,ls),
(520,676,o),
(532,690,o),
(573,695,cs),
(588,697,ls),
(598,698,o),
(603,703,o),
(603,709,cs),
(603,716,o),
(597,720,o),
(585,720,cs),
(421,720,ls),
(409,720,o),
(404,716,o),
(404,709,cs),
(404,703,o),
(408,699,o),
(419,697,cs),
(439,694,ls),
(466,690,o),
(484,676,o),
(484,634,cs),
(484,181,ls),
(484,173,o),
(475,171,o),
(470,179,cs),
(187,698,ls),
(178,714,o),
(167,720,o),
(147,720,cs),
(36,720,ls),
(24,720,o),
(18,716,o),
(18,709,cs),
(18,703,o),
(23,699,o),
(33,697,cs),
(60,693,ls),
(94,688,o),
(101,682,o),
(101,654,cs),
(101,86,ls),
(101,48,o),
(89,30,o),
(48,25,cs),
(33,23,ls),
(23,22,o),
(18,17,o),
(18,11,cs),
(18,4,o),
(24,0,o),
(36,0,cs),
(200,0,ls),
(212,0,o),
(217,4,o),
(217,11,cs),
(217,17,o),
(213,22,o),
(202,23,cs),
(187,25,ls),
(150,30,o),
(137,48,o),
(137,86,cs),
(137,600,ls),
(137,610,o),
(146,612,o),
(151,603,cs),
(434,82,ls),
(439,71,o),
(442,63,o),
(442,52,cs),
(442,-91,ls),
(442,-144,o),
(425,-175,o),
(397,-175,cs),
(355,-175,o),
(371,-119,o),
(323,-119,cs),
(296,-119,o),
(278,-138,o),
(278,-161,cs),
(278,-193,o),
(310,-215,o),
(355,-215,cs)
);
}
);
width = 621;
}
);
unicode = 330;
},
{
glyphname = O;
kernLeft = O;
kernRight = O;
lastChange = "2022-09-01 19:27:44 +0000";
layers = (
{
anchors = (
{
name = bottom;
pos = (270,0);
},
{
name = center;
pos = (270,360);
},
{
name = ogonek;
pos = (486,10);
},
{
name = top;
pos = (270,720);
},
{
name = topleft;
pos = (20,720);
},
{
name = topright;
pos = (520,720);
}
);
background = {
shapes = (
{
pos = (-3,0);
ref = H;
}
);
};
guides = (
{
pos = (459,730);
},
{
angle = 90;
pos = (40,665);
},
{
angle = 90;
pos = (500,665);
}
);
layerId = m01;
shapes = (
{
closed = 1;
nodes = (
(458,-9,o),
(575,153,o),
(575,361,cs),
(575,568,o),
(458,730,o),
(310,730,cs),
(162,730,o),
(46,568,o),
(46,361,cs),
(46,153,o),
(162,-9,o),
(310,-9,cs)
);
},
{
closed = 1;
nodes = (
(202,18,o),
(137,130,o),
(137,361,cs),
(137,591,o),
(202,703,o),
(310,703,cs),
(419,703,o),
(484,591,o),
(484,361,cs),
(484,130,o),
(419,18,o),
(310,18,cs)
);
}
);
width = 621;
}
);
unicode = 79;
},
{
glyphname = Oslash;
kernLeft = O;
kernRight = O;
lastChange = "2022-08-23 19:53:48 +0000";
layers = (
{
background = {
shapes = (
{
closed = 1;
nodes = (
(91,-60,ls),
(97,-60,o),
(101,-58,o),
(103,-52,cs),
(393,538,ls),
(397,545,o),
(392,550,o),
(384,550,cs),
(376,550,ls),
(370,550,o),
(366,548,o),
(363,542,cs),
(74,-48,ls),
(70,-55,o),
(75,-60,o),
(83,-60,cs)
);
}
);
};
layerId = m01;
shapes = (
{
ref = O;
},
{
closed = 1;
nodes = (
(112,-60,ls),
(117,-60,o),
(122,-58,o),
(124,-52,cs),
(532,778,ls),
(536,785,o),
(531,790,o),
(523,790,cs),
(511,790,ls),
(505,790,o),
(500,788,o),
(498,782,cs),
(90,-48,ls),
(86,-55,o),
(91,-60,o),
(99,-60,cs)
);
}
);
width = 621;
}
);
unicode = 216;
},
{
glyphname = OE;
kernLeft = O;
kernRight = E;
lastChange = "2022-08-23 19:53:43 +0000";
layers = (
{
layerId = m01;
shapes = (
{
closed = 1;
nodes = (
(361,-9,o),
(396,0,o),
(447,0,cs),
(788,0,ls),
(805,0,o),
(815,8,o),
(816,23,cs),
(828,201,ls),
(829,212,o),
(822,218,o),
(814,218,cs),
(805,218,o),
(799,213,o),
(797,205,cs),
(783,146,ls),
(761,53,o),
(705,25,o),
(628,25,cs),
(553,25,o),
(529,45,o),
(529,93,cs),
(529,344,ls),
(529,353,o),
(535,358,o),
(545,358,cs),
(601,358,ls),
(636,358,o),
(654,347,o),
(665,301,cs),
(676,252,ls),
(678,244,o),
(687,238,o),
(696,239,cs),
(704,240,o),
(708,245,o),
(708,256,cs),
(708,481,ls),
(708,492,o),
(704,497,o),
(696,498,cs),
(687,499,o),
(678,493,o),
(676,485,cs),
(665,435,ls),
(657,402,o),
(637,388,o),
(603,388,cs),
(545,388,ls),
(535,388,o),
(529,393,o),
(529,402,cs),
(529,643,ls),
(529,681,o),
(549,695,o),
(611,695,cs),
(703,695,o),
(753,654,o),
(770,564,cs),
(777,527,ls),
(779,519,o),
(784,514,o),
(793,514,cs),
(803,514,o),
(810,520,o),
(808,531,cs),
(799,697,ls),
(798,712,o),
(788,720,o),
(770,720,cs),
(447,720,ls),
(396,720,o),
(361,729,o),
(315,729,cs),
(155,729,o),
(46,567,o),
(46,359,cs),
(46,153,o),
(155,-9,o),
(315,-9,cs)
);
},
{
closed = 1;
nodes = (
(191,18,o),
(137,130,o),
(137,359,cs),
(137,590,o),
(191,702,o),
(320,702,cs),
(396,702,o),
(447,672,o),
(447,604,cs),
(447,116,ls),
(447,50,o),
(396,18,o),
(320,18,cs)
);
}
);
width = 866;
}
);
metricLeft = O;
metricRight = E;
unicode = 338;
},
{
glyphname = P;
kernLeft = H;
lastChange = "2022-09-01 20:53:52 +0000";
layers = (
{
background = {
shapes = (
{
closed = 1;
nodes = (
(184,319,ls),
(184,329,o),
(185,336,o),
(195,336,cs),
(206,336,o),
(215,334,o),
(229,330,cs),
(241,327,o),
(261,325,o),
(292,325,cs),
(411,325,o),
(508,402,o),
(508,514,cs),
(508,648,o),
(408,720,o),
(283,720,cs),
(238,720,o),
(187,715,o),
(143,715,cs),
(113,715,o),
(79,720,o),
(44,720,cs),
(26,720,o),
(24,713,o),
(24,705,cs),
(24,693,o),
(32,693,o),
(69,688,cs),
(92,686,o),
(102,672,o),
(102,634,cs),
(102,78,ls),
(102,49,o),
(95,34,o),
(74,32,cs),
(32,27,o),
(24,25,o),
(24,11,cs),
(24,3,o),
(31,0,o),
(49,0,cs),
(63,0,o),
(78,5,o),
(150,5,cs),
(220,5,o),
(240,0,o),
(259,0,cs),
(274,0,o),
(282,7,o),
(282,15,cs),
(282,27,o),
(260,26,o),
(220,32,cs),
(193,35,o),
(184,52,o),
(184,90,cs)
);
},
{
closed = 1;
nodes = (
(184,655,ls),
(184,681,o),
(201,693,o),
(251,693,cs),
(359,693,o),
(419,625,o),
(419,520,cs),
(419,420,o),
(362,352,o),
(254,352,cs),
(229,352,o),
(210,359,o),
(200,368,cs),
(187,377,o),
(184,386,o),
(184,397,cs)
);
}
);
};
guides = (
{
pos = (261,326);
}
);
layerId = m01;
shapes = (
{
closed = 1;
nodes = (
(273,0,ls),
(284,0,o),
(290,4,o),
(290,12,cs),
(290,18,o),
(285,22,o),
(277,23,cs),
(235,29,ls),
(192,35,o),
(184,42,o),
(184,70,cs),
(184,312,ls),
(184,321,o),
(190,326,o),
(200,326,cs),
(283,326,ls),
(415,326,o),
(508,406,o),
(508,520,cs),
(508,638,o),
(415,720,o),
(279,720,cs),
(39,720,ls),
(28,720,o),
(22,716,o),
(22,709,cs),
(22,702,o),
(26,699,o),
(37,697,cs),
(63,693,ls),
(95,688,o),
(102,682,o),
(102,654,cs),
(102,66,ls),
(102,38,o),
(95,32,o),
(63,27,cs),
(37,23,ls),
(26,21,o),
(22,18,o),
(22,11,cs),
(22,4,o),
(28,0,o),
(39,0,cs)
);
},
{
closed = 1;
nodes = (
(184,655,l),
(184,683,o),
(206,695,o),
(254,695,cs),
(361,695,o),
(422,632,o),
(422,523,cs),
(422,416,o),
(361,351,o),
(261,351,cs),
(208,351,o),
(184,368,o),
(184,406,cs)
);
}
);
width = 536;
}
);
unicode = 80;
},
{
glyphname = Thorn;
kernLeft = H;
lastChange = "2022-08-23 19:53:56 +0000";
layers = (
{
background = {
shapes = (
{
closed = 1;
nodes = (
(273,0,ls),
(284,0,o),
(290,4,o),
(290,12,cs),
(290,18,o),
(285,22,o),
(277,23,cs),
(235,29,ls),
(192,35,o),
(184,42,o),
(184,70,cs),
(184,312,ls),
(184,321,o),
(190,326,o),
(200,326,cs),
(283,326,ls),
(415,326,o),
(508,406,o),
(508,520,cs),
(508,638,o),
(415,720,o),
(279,720,cs),
(39,720,ls),
(28,720,o),
(22,716,o),
(22,709,cs),
(22,702,o),
(26,699,o),
(37,697,cs),
(63,693,ls),
(95,688,o),
(102,682,o),
(102,654,cs),
(102,66,ls),
(102,38,o),
(95,32,o),
(63,27,cs),
(37,23,ls),
(26,21,o),
(22,18,o),
(22,11,cs),
(22,4,o),
(28,0,o),
(39,0,cs)
);
},
{
closed = 1;
nodes = (
(184,655,l),
(184,683,o),
(206,695,o),
(254,695,cs),
(361,695,o),
(422,632,o),
(422,523,cs),
(422,416,o),
(361,351,o),
(261,351,cs),
(208,351,o),
(184,368,o),
(184,406,cs)
);
}
);
};
layerId = m01;
shapes = (
{
closed = 1;
nodes = (
(273,0,ls),
(284,0,o),
(290,4,o),
(290,11,cs),
(290,17,o),
(285,21,o),
(275,23,cs),
(223,31,ls),
(191,36,o),
(184,43,o),
(184,71,cs),
(184,171,ls),
(184,180,o),
(190,185,o),
(200,185,cs),
(283,185,ls),
(415,185,o),
(508,265,o),
(508,379,cs),
(508,497,o),
(415,579,o),
(279,579,cs),
(200,579,ls),
(190,579,o),
(184,584,o),
(184,593,cs),
(184,649,ls),
(184,677,o),
(191,684,o),
(223,689,cs),
(275,697,ls),
(285,699,o),
(290,703,o),
(290,709,cs),
(290,716,o),
(284,720,o),
(273,720,cs),
(39,720,ls),
(28,720,o),
(22,716,o),
(22,709,cs),
(22,703,o),
(26,699,o),
(37,697,cs),
(63,693,ls),
(95,688,o),
(102,682,o),
(102,654,cs),
(102,66,ls),
(102,38,o),
(95,32,o),
(63,27,cs),
(37,23,ls),
(26,21,o),
(22,17,o),
(22,11,cs),
(22,4,o),
(28,0,o),
(39,0,cs)
);
},
{
closed = 1;
nodes = (
(208,210,o),
(184,227,o),
(184,265,cs),
(184,514,ls),
(184,542,o),
(206,554,o),
(254,554,cs),
(361,554,o),
(422,491,o),
(422,382,cs),
(422,275,o),
(361,210,o),
(261,210,cs)
);
}
);
width = 536;
}
);
unicode = 222;
},
{
glyphname = Q;
kernLeft = O;
kernRight = O;
lastChange = "2022-09-01 19:45:32 +0000";
layers = (
{
background = {
shapes = (
{
closed = 1;
nodes = (
(458,-9,o),
(575,153,o),
(575,361,cs),
(575,568,o),
(458,730,o),
(310,730,cs),
(162,730,o),
(46,568,o),
(46,361,cs),
(46,153,o),
(162,-9,o),
(310,-9,cs)
);
},
{
closed = 1;
nodes = (
(202,18,o),
(137,130,o),
(137,361,cs),
(137,591,o),
(202,703,o),
(310,703,cs),
(419,703,o),
(484,591,o),
(484,361,cs),
(484,130,o),
(419,18,o),
(310,18,cs)
);
},
{
closed = 1;
nodes = (
(552,-215,o),
(588,-202,o),
(612,-186,cs),
(619,-181,o),
(621,-177,o),
(621,-172,cs),
(621,-161,o),
(608,-158,o),
(596,-165,cs),
(572,-178,o),
(551,-184,o),
(526,-184,cs),
(473,-184,o),
(428,-152,o),
(400,-74,cs),
(382,-21,o),
(351,-5,o),
(281,5,c),
(243,3,l),
(292,-13,o),
(307,-24,o),
(316,-71,cs),
(338,-185,o),
(430,-215,o),
(499,-215,cs)
);
}
);
};
layerId = m01;
shapes = (
{
closed = 1;
nodes = (
(552,-215,o),
(588,-202,o),
(612,-186,cs),
(619,-181,o),
(621,-177,o),
(621,-172,cs),
(621,-161,o),
(608,-158,o),
(596,-165,cs),
(572,-178,o),
(551,-184,o),
(526,-184,cs),
(473,-184,o),
(428,-152,o),
(400,-74,cs),
(391,-46,o),
(377,-29,o),
(358,-17,cs),
(350,-12,o),
(350,-5,o),
(359,-3,cs),
(483,27,o),
(575,176,o),
(575,361,cs),
(575,568,o),
(458,730,o),
(310,730,cs),
(162,730,o),
(46,568,o),
(46,361,cs),
(46,180,o),
(135,33,o),
(255,-1,c),
(294,-15,o),
(308,-28,o),
(316,-71,cs),
(338,-185,o),
(430,-215,o),
(499,-215,cs)
);
},
{
closed = 1;
nodes = (
(202,18,o),
(137,130,o),
(137,361,cs),
(137,591,o),
(202,703,o),
(310,703,cs),
(419,703,o),
(484,591,o),
(484,361,cs),
(484,130,o),
(419,18,o),
(310,18,cs)
);
}
);
width = 621;
}
);
unicode = 81;
},
{
glyphname = R;
kernLeft = H;
kernRight = R;
lastChange = "2022-09-01 20:17:03 +0000";
layers = (
{
anchors = (
{
name = bottom;
pos = (277,0);
},
{
name = top;
pos = (257,720);
}
);
background = {
shapes = (
{
closed = 1;
nodes = (
(273,0,ls),
(284,0,o),
(290,4,o),
(290,12,cs),
(290,18,o),
(285,22,o),
(277,23,cs),
(235,29,ls),
(192,35,o),
(184,42,o),
(184,70,cs),
(184,320,ls),
(184,335,o),
(197,346,o),
(218,346,cs),
(288,346,ls),
(414,346,o),
(518,434,o),
(518,540,cs),
(518,645,o),
(420,720,o),
(284,720,cs),
(39,720,ls),
(28,720,o),
(22,716,o),
(22,709,cs),
(22,702,o),
(26,699,o),
(37,697,cs),
(63,693,ls),
(95,688,o),
(102,682,o),
(102,654,cs),
(102,66,ls),
(102,38,o),
(95,32,o),
(63,27,cs),
(37,23,ls),
(26,21,o),
(22,18,o),
(22,11,cs),
(22,4,o),
(28,0,o),
(39,0,cs)
);
},
{
closed = 1;
nodes = (
(208,371,o),
(184,388,o),
(184,426,cs),
(184,655,l),
(184,683,o),
(206,695,o),
(256,695,cs),
(366,695,o),
(431,636,o),
(431,538,cs),
(431,437,o),
(365,371,o),
(261,371,cs)
);
},
{
closed = 1;
nodes = (
(562,-9,o),
(601,10,o),
(601,33,cs),
(601,44,o),
(589,48,o),
(576,41,cs),
(560,31,o),
(552,29,o),
(540,29,cs),
(505,29,o),
(484,56,o),
(467,125,cs),
(442,227,ls),
(424,296,o),
(394,330,o),
(338,346,c),
(338,352,l),
(218,346,l),
(313,346,o),
(338,323,o),
(363,216,cs),
(390,105,ls),
(408,29,o),
(451,-9,o),
(518,-9,cs)
);
}
);
};
guides = (
{
angle = 15.5241;
pos = (439,117);
showMeasurement = 1;
}
);
layerId = m01;
shapes = (
{
closed = 1;
nodes = (
(562,-9,o),
(601,10,o),
(601,33,cs),
(601,44,o),
(589,48,o),
(576,41,cs),
(560,31,o),
(552,29,o),
(540,29,cs),
(505,29,o),
(484,56,o),
(467,125,cs),
(442,227,ls),
(427,287,o),
(400,321,o),
(351,341,cs),
(340,345,o),
(340,352,o),
(352,355,cs),
(440,383,o),
(506,456,o),
(506,540,cs),
(506,645,o),
(408,720,o),
(273,720,cs),
(39,720,ls),
(28,720,o),
(22,716,o),
(22,709,cs),
(22,702,o),
(26,699,o),
(37,697,cs),
(63,693,ls),
(95,688,o),
(102,682,o),
(102,654,cs),
(102,66,ls),
(102,38,o),
(95,32,o),
(63,27,cs),
(37,23,ls),
(26,21,o),
(22,18,o),
(22,11,cs),
(22,4,o),
(28,0,o),
(39,0,cs),
(273,0,ls),
(284,0,o),
(290,4,o),
(290,12,cs),
(290,18,o),
(285,22,o),
(277,23,cs),
(235,29,ls),
(192,35,o),
(184,42,o),
(184,70,cs),
(184,320,ls),
(184,335,o),
(197,346,o),
(218,346,cs),
(313,346,o),
(338,323,o),
(363,216,cs),
(390,105,ls),
(408,29,o),
(451,-9,o),
(518,-9,cs)
);
},
{
closed = 1;
nodes = (
(208,371,o),
(184,388,o),
(184,426,cs),
(184,655,ls),
(184,683,o),
(206,695,o),
(245,695,cs),
(354,695,o),
(420,636,o),
(420,538,cs),
(420,437,o),
(365,371,o),
(261,371,cs)
);
}
);
width = 590;
}
);
unicode = 82;
},
{
glyphname = S;
kernLeft = S;
kernRight = S;
lastChange = "2022-09-01 20:17:08 +0000";
layers = (
{
anchors = (
{
name = bottom;
pos = (209,0);
},
{
name = top;
pos = (229,720);
}
);
background = {
shapes = (
{
closed = 0;
nodes = (
(373,153,ls),
(373,96,o),
(330,23,o),
(243,23,cs),
(148,23,o),
(114,66,o),
(89,166,cs),
(82,193,ls),
(78,205,o),
(72,208,o),
(64,208,cs),
(57,208,o),
(51,203,o),
(51,191,cs),
(56,40,ls),
(56,29,o),
(60,23,o),
(69,18,cs),
(100,-1,o),
(146,-9,o),
(217,-9,cs),
(365,-9,o),
(445,95,o),
(445,187,cs)
);
}
);
};
layerId = m01;
shapes = (
{
closed = 1;
nodes = (
(340,-9,o),
(434,66,o),
(434,178,cs),
(434,263,o),
(383,335,o),
(268,416,cs),
(160,490,o),
(123,536,o),
(123,593,cs),
(123,661,o),
(164,700,o),
(231,700,cs),
(298,700,o),
(328,655,o),
(361,552,cs),
(369,527,ls),
(373,517,o),
(376,513,o),
(384,513,cs),
(394,513,o),
(399,519,o),
(399,530,cs),
(396,681,ls),
(396,692,o),
(390,697,o),
(381,703,cs),
(353,720,o),
(307,730,o),
(261,730,cs),
(138,730,o),
(51,666,o),
(51,567,cs),
(51,492,o),
(100,430,o),
(214,359,cs),
(316,292,o),
(361,226,o),
(361,148,cs),
(361,67,o),
(313,20,o),
(236,20,cs),
(162,20,o),
(116,66,o),
(90,163,cs),
(79,201,ls),
(76,214,o),
(71,219,o),
(62,219,cs),
(52,219,o),
(47,212,o),
(47,199,cs),
(53,42,ls),
(53,27,o),
(59,23,o),
(69,18,cs),
(97,4,o),
(166,-9,o),
(212,-9,cs)
);
}
);
width = 468;
}
);
unicode = 83;
},
{
glyphname = Germandbls;
lastChange = "2022-08-18 20:20:07 +0000";
layers = (
{
background = {
shapes = (
{
ref = H;
}
);
};
layerId = m01;
shapes = (
{
closed = 1;
nodes = (
(484,-9,o),
(574,47,o),
(574,169,cs),
(574,254,o),
(500,345,o),
(391,425,c),
(379,391,l),
(570,627,l),
(514,698,o),
(459,730,o),
(348,730,cs),
(209,730,o),
(102,643,o),
(102,495,cs),
(102,66,ls),
(102,38,o),
(95,32,o),
(63,27,cs),
(37,23,ls),
(26,21,o),
(22,17,o),
(22,11,cs),
(22,4,o),
(28,0,o),
(39,0,cs),
(156,0,ls),
(174,0,o),
(184,9,o),
(184,24,cs),
(184,511,ls),
(184,655,o),
(259,701,o),
(348,701,cs),
(419,701,o),
(476,664,o),
(506,590,c),
(523,629,l),
(322,381,l),
(339,370,ls),
(439,306,o),
(501,217,o),
(501,139,cs),
(501,38,o),
(447,20,o),
(405,20,cs),
(353,20,o),
(310,64,o),
(296,133,cs),
(283,191,ls),
(281,204,o),
(274,209,o),
(264,209,cs),
(254,209,o),
(250,202,o),
(250,189,cs),
(250,42,ls),
(250,27,o),
(255,23,o),
(266,18,cs),
(293,4,o),
(345,-9,o),
(392,-9,cs)
);
}
);
width = 608;
}
);
metricLeft = H;
metricRight = S;
unicode = 7838;
},
{
glyphname = T;
kernLeft = T;
kernRight = T;
lastChange = "2022-09-01 21:02:25 +0000";
layers = (
{
anchors = (
{
name = bottom;
pos = (231,0);
},
{
name = center;
pos = (231,360);
},
{
name = top;
pos = (231,720);
}
);
layerId = m01;
shapes = (
{
closed = 1;
nodes = (
(394,0,ls),
(406,0,o),
(412,4,o),
(412,11,cs),
(412,17,o),
(407,22,o),
(397,23,cs),
(345,30,ls),
(315,34,o),
(306,41,o),
(306,69,cs),
(306,669,ls),
(306,688,o),
(313,695,o),
(342,695,cs),
(399,695,o),
(463,655,o),
(480,560,cs),
(485,527,ls),
(486,519,o),
(492,514,o),
(501,514,cs),
(511,514,o),
(518,520,o),
(516,531,cs),
(506,712,ls),
(505,727,o),
(498,735,o),
(485,735,cs),
(470,735,o),
(467,720,o),
(393,720,cs),
(137,720,ls),
(63,720,o),
(60,735,o),
(45,735,cs),
(32,735,o),
(25,727,o),
(24,712,cs),
(14,531,ls),
(13,520,o),
(20,514,o),
(29,514,cs),
(38,514,o),
(44,519,o),
(45,527,cs),
(51,560,ls),
(67,655,o),
(131,695,o),
(189,695,cs),
(217,695,o),
(224,688,o),
(224,669,cs),
(224,69,ls),
(224,41,o),
(215,34,o),
(185,30,cs),
(133,23,ls),
(123,22,o),
(118,17,o),
(118,11,cs),
(118,4,o),
(124,0,o),
(136,0,cs)
);
}
);
width = 530;
}
);
unicode = 84;
},
{
glyphname = U;
kernLeft = U;
kernRight = U;
lastChange = "2022-09-01 20:54:19 +0000";
layers = (
{
anchors = (
{
name = bottom;
pos = (268,0);
},
{
name = ogonek;
pos = (334,0);
},
{
name = top;
pos = (288,720);
},
{
name = topright;
pos = (516,720);
}
);
background = {
shapes = (
{
pos = (3,0);
ref = H;
}
);
};
layerId = m01;
shapes = (
{
closed = 1;
nodes = (
(440,-9,o),
(522,71,o),
(522,192,cs),
(522,634,ls),
(522,671,o),
(534,689,o),
(561,693,cs),
(588,697,ls),
(598,699,o),
(603,702,o),
(603,709,cs),
(603,716,o),
(597,720,o),
(585,720,cs),
(420,720,ls),
(408,720,o),
(402,716,o),
(402,708,cs),
(402,702,o),
(407,698,o),
(415,697,cs),
(446,693,ls),
(474,689,o),
(485,671,o),
(485,633,cs),
(485,191,ls),
(485,90,o),
(430,31,o),
(336,31,cs),
(243,31,o),
(187,89,o),
(187,191,cs),
(187,653,ls),
(187,681,o),
(195,689,o),
(227,693,cs),
(258,697,ls),
(266,698,o),
(270,702,o),
(270,708,cs),
(270,716,o),
(264,720,o),
(253,720,cs),
(43,720,ls),
(31,720,o),
(25,716,o),
(25,709,cs),
(25,702,o),
(30,699,o),
(40,697,cs),
(67,693,ls),
(99,688,o),
(106,682,o),
(106,654,cs),
(106,192,ls),
(106,73,o),
(192,-9,o),
(316,-9,cs)
);
}
);
width = 616;
}
);
unicode = 85;
},
{
glyphname = V;
lastChange = "2022-09-01 20:54:24 +0000";
layers = (
{
background = {
shapes = (
{
closed = 1;
nodes = (
(269,-10,o),
(277,-7,o),
(281,6,cs),
(459,631,ls),
(469,668,o),
(483,689,o),
(513,694,cs),
(530,697,ls),
(540,699,o),
(546,703,o),
(546,710,cs),
(546,717,o),
(539,720,o),
(529,720,cs),
(368,720,ls),
(358,720,o),
(352,716,o),
(352,709,cs),
(352,703,o),
(358,699,o),
(371,697,cs),
(389,695,ls),
(424,691,o),
(434,670,o),
(423,632,cs),
(288,157,l),
(282,157,l),
(144,653,ls),
(136,682,o),
(141,693,o),
(168,695,cs),
(190,697,ls),
(204,698,o),
(209,703,o),
(209,709,cs),
(209,716,o),
(204,720,o),
(193,720,cs),
(-3,720,ls),
(-12,720,o),
(-18,717,o),
(-18,710,cs),
(-18,703,o),
(-13,699,o),
(-4,697,cs),
(13,694,ls),
(43,689,o),
(53,677,o),
(63,640,cs),
(245,6,ls),
(248,-7,o),
(256,-10,o),
(263,-10,cs)
);
}
);
};
layerId = m01;
shapes = (
{
closed = 1;
nodes = (
(269,-10,o),
(277,-7,o),
(281,6,cs),
(459,631,ls),
(469,668,o),
(483,689,o),
(513,694,cs),
(530,697,ls),
(540,699,o),
(546,703,o),
(546,710,cs),
(546,717,o),
(539,720,o),
(529,720,cs),
(368,720,ls),
(358,720,o),
(352,716,o),
(352,709,cs),
(352,703,o),
(358,699,o),
(371,697,cs),
(389,695,ls),
(424,691,o),
(434,670,o),
(423,632,cs),
(291,172,ls),
(289,164,o),
(279,164,o),
(277,172,cs),
(144,653,ls),
(136,682,o),
(141,693,o),
(168,695,cs),
(190,697,ls),
(204,698,o),
(209,703,o),
(209,709,cs),
(209,716,o),
(204,720,o),
(193,720,cs),
(-3,720,ls),
(-12,720,o),
(-18,717,o),
(-18,710,cs),
(-18,703,o),
(-13,699,o),
(-4,697,cs),
(13,694,ls),
(43,689,o),
(53,677,o),
(63,640,cs),
(245,6,ls),
(248,-7,o),
(256,-10,o),
(263,-10,cs)
);
}
);
width = 526;
}
);
unicode = 86;
},
{
glyphname = W;
kernLeft = W;
kernRight = W;
lastChange = "2022-09-01 20:54:28 +0000";
layers = (
{
anchors = (
{
name = bottom;
pos = (326,0);
},
{
name = top;
pos = (346,720);
}
);
background = {
shapes = (
{
closed = 1;
nodes = (
(503,-10,o),
(509,-7,o),
(513,6,cs),
(691,631,ls),
(704,677,o),
(716,694,o),
(737,696,cs),
(750,697,ls),
(762,698,o),
(769,702,o),
(769,709,cs),
(769,716,o),
(761,720,o),
(750,720,cs),
(621,720,ls),
(611,720,o),
(605,716,o),
(605,710,cs),
(605,703,o),
(610,699,o),
(622,697,cs),
(635,695,ls),
(661,691,o),
(666,670,o),
(656,632,cs),
(520,157,l),
(514,157,l),
(376,653,ls),
(368,682,o),
(371,692,o),
(391,695,cs),
(404,697,ls),
(415,699,o),
(421,703,o),
(421,709,cs),
(421,716,o),
(415,720,o),
(405,720,cs),
(247,720,ls),
(237,720,o),
(230,717,o),
(230,710,cs),
(230,703,o),
(236,699,o),
(246,697,cs),
(263,694,ls),
(281,691,o),
(289,677,o),
(299,640,cs),
(481,6,ls),
(484,-7,o),
(490,-10,o),
(497,-10,cs)
);
},
{
closed = 1;
nodes = (
(393,477,l),
(290,151,l),
(284,151,l),
(144,653,ls),
(136,682,o),
(141,691,o),
(168,695,cs),
(181,697,ls),
(192,699,o),
(198,703,o),
(198,709,cs),
(198,716,o),
(192,720,o),
(182,720,cs),
(-3,720,ls),
(-12,720,o),
(-18,717,o),
(-18,710,cs),
(-18,703,o),
(-13,699,o),
(-4,697,cs),
(13,694,ls),
(43,689,o),
(53,677,o),
(63,640,cs),
(245,6,ls),
(248,-7,o),
(255,-10,o),
(262,-10,cs),
(268,-10,o),
(274,-7,o),
(278,6,cs),
(414,432,l)
);
},
{
closed = 1;
nodes = (
(427,395,l),
(505,631,ls),
(520,676,o),
(530,694,o),
(551,696,cs),
(564,697,ls),
(576,698,o),
(583,702,o),
(583,709,cs),
(583,716,o),
(575,720,o),
(564,720,cs),
(454,720,ls),
(444,720,o),
(438,715,o),
(438,709,cs),
(438,702,o),
(443,699,o),
(455,697,cs),
(468,695,ls),
(482,693,o),
(489,682,o),
(471,632,cs),
(406,440,l)
);
}
);
};
layerId = m01;
shapes = (
{
closed = 1;
nodes = (
(503,-10,o),
(509,-7,o),
(513,6,cs),
(691,631,ls),
(704,677,o),
(716,694,o),
(737,696,cs),
(750,697,ls),
(762,698,o),
(769,702,o),
(769,709,cs),
(769,716,o),
(761,720,o),
(750,720,cs),
(621,720,ls),
(611,720,o),
(605,716,o),
(605,710,cs),
(605,703,o),
(610,699,o),
(622,697,cs),
(635,695,ls),
(661,691,o),
(666,670,o),
(656,632,cs),
(523,171,ls),
(521,161,o),
(512,162,o),
(509,171,cs),
(458,359,ls),
(444,411,o),
(444,450,o),
(461,500,cs),
(505,631,ls),
(520,676,o),
(530,694,o),
(551,696,cs),
(564,697,ls),
(576,698,o),
(583,702,o),
(583,709,cs),
(583,716,o),
(575,720,o),
(564,720,cs),
(454,720,ls),
(444,720,o),
(438,715,o),
(438,709,cs),
(438,702,o),
(443,699,o),
(455,697,cs),
(468,695,ls),
(482,693,o),
(489,682,o),
(471,632,cs),
(430,510,ls),
(427,501,o),
(417,501,o),
(415,510,cs),
(376,653,ls),
(368,682,o),
(371,692,o),
(391,695,cs),
(404,697,ls),
(415,699,o),
(421,703,o),
(421,709,cs),
(421,716,o),
(415,720,o),
(405,720,cs),
(247,720,ls),
(237,720,o),
(230,717,o),
(230,710,cs),
(230,703,o),
(236,699,o),
(246,697,cs),
(263,694,ls),
(281,691,o),
(289,677,o),
(299,640,cs),
(347,469,ls),
(362,417,o),
(362,379,o),
(346,328,cs),
(294,165,ls),
(291,156,o),
(282,156,o),
(279,165,cs),
(144,653,ls),
(136,682,o),
(141,691,o),
(168,695,cs),
(181,697,ls),
(192,699,o),
(198,703,o),
(198,709,cs),
(198,716,o),
(192,720,o),
(182,720,cs),
(-3,720,ls),
(-12,720,o),
(-18,717,o),
(-18,710,cs),
(-18,703,o),
(-13,699,o),
(-4,697,cs),
(13,694,ls),
(43,689,o),
(53,677,o),
(63,640,cs),
(245,6,ls),
(248,-7,o),
(255,-10,o),
(262,-10,cs),
(268,-10,o),
(274,-7,o),
(278,6,cs),
(377,316,ls),
(381,325,o),
(390,326,o),
(392,316,cs),
(481,6,ls),
(484,-7,o),
(490,-10,o),
(497,-10,cs)
);
}
);
width = 749;
}
);
unicode = 87;
},
{
glyphname = X;
lastChange = "2022-09-01 20:54:34 +0000";
layers = (
{
background = {
shapes = (
{
closed = 1;
nodes = (
(585,0,ls),
(599,0,o),
(606,4,o),
(606,10,cs),
(606,17,o),
(600,22,o),
(586,24,cs),
(565,27,ls),
(546,30,o),
(528,35,o),
(512,67,cs),
(210,653,ls),
(197,679,o),
(208,690,o),
(235,694,cs),
(256,697,ls),
(269,699,o),
(276,703,o),
(276,710,cs),
(276,716,o),
(269,720,o),
(255,720,cs),
(53,720,ls),
(40,720,o),
(33,716,o),
(33,710,cs),
(33,703,o),
(39,699,o),
(52,697,cs),
(74,694,ls),
(93,691,o),
(112,683,o),
(126,653,cs),
(429,67,ls),
(442,42,o),
(429,30,o),
(402,27,cs),
(379,24,ls),
(368,22,o),
(361,18,o),
(361,12,cs),
(361,5,o),
(368,0,o),
(382,0,cs)
);
},
{
closed = 1;
nodes = (
(232,0,ls),
(247,0,o),
(253,4,o),
(253,10,cs),
(253,17,o),
(247,21,o),
(233,24,cs),
(201,30,ls),
(175,35,o),
(171,48,o),
(185,77,cs),
(297,312,l),
(319,312,l),
(267,382,l),
(277,361,o),
(276,346,o),
(268,329,cs),
(153,91,ls),
(133,51,o),
(108,36,o),
(59,28,cs),
(40,25,ls),
(28,23,o),
(23,18,o),
(23,12,cs),
(23,6,o),
(28,0,o),
(44,0,cs)
);
},
{
closed = 1;
nodes = (
(354,375,o),
(354,390,o),
(362,407,cs),
(471,629,ls),
(491,669,o),
(516,686,o),
(554,692,cs),
(573,695,ls),
(585,697,o),
(590,702,o),
(590,708,cs),
(590,714,o),
(585,720,o),
(569,720,cs),
(393,720,ls),
(378,720,o),
(373,716,o),
(373,710,cs),
(373,703,o),
(378,699,o),
(392,696,cs),
(424,690,ls),
(451,685,o),
(454,672,o),
(440,643,cs),
(334,424,l),
(312,424,l),
(365,354,l)
);
}
);
};
layerId = m01;
shapes = (
{
closed = 1;
nodes = (
(232,0,ls),
(247,0,o),
(253,4,o),
(253,10,cs),
(253,17,o),
(247,21,o),
(233,24,cs),
(201,30,ls),
(175,35,o),
(171,48,o),
(185,77,cs),
(289,296,ls),
(294,308,o),
(305,308,o),
(310,296,cs),
(429,67,ls),
(442,42,o),
(429,30,o),
(402,27,cs),
(379,24,ls),
(368,22,o),
(361,18,o),
(361,12,cs),
(361,5,o),
(368,0,o),
(382,0,cs),
(585,0,ls),
(599,0,o),
(606,4,o),
(606,10,cs),
(606,17,o),
(600,22,o),
(586,24,cs),
(565,27,ls),
(546,30,o),
(528,35,o),
(512,67,cs),
(363,356,ls),
(353,375,o),
(354,390,o),
(362,407,cs),
(471,629,ls),
(491,669,o),
(516,686,o),
(554,692,cs),
(573,695,ls),
(585,697,o),
(590,702,o),
(590,708,cs),
(590,714,o),
(585,720,o),
(569,720,cs),
(393,720,ls),
(378,720,o),
(373,716,o),
(373,710,cs),
(373,703,o),
(378,699,o),
(392,696,cs),
(424,690,ls),
(451,685,o),
(454,672,o),
(440,643,cs),
(342,440,ls),
(336,428,o),
(325,428,o),
(320,440,cs),
(210,653,ls),
(197,679,o),
(208,690,o),
(235,694,cs),
(256,697,ls),
(269,699,o),
(276,703,o),
(276,710,cs),
(276,716,o),
(269,720,o),
(255,720,cs),
(53,720,ls),
(40,720,o),
(33,716,o),
(33,710,cs),
(33,703,o),
(39,699,o),
(52,697,cs),
(74,694,ls),
(93,691,o),
(112,683,o),
(126,653,cs),
(270,376,ls),
(279,359,o),
(275,344,o),
(268,329,cs),
(153,91,ls),
(133,51,o),
(108,36,o),
(59,28,cs),
(40,25,ls),
(28,23,o),
(23,18,o),
(23,12,cs),
(23,6,o),
(28,0,o),
(44,0,cs)
);
}
);
width = 628;
}
);
unicode = 88;
},
{
glyphname = Y;
kernLeft = Y;
kernRight = Y;
lastChange = "2022-09-01 21:02:35 +0000";
layers = (
{
anchors = (
{
name = bottom;
pos = (239,0);
},
{
name = top;
pos = (259,720);
},
{
name = topleft;
pos = (20,720);
}
);
background = {
shapes = (
{
closed = 1;
nodes = (
(405,0,ls),
(416,0,o),
(422,4,o),
(422,11,cs),
(422,17,o),
(417,22,o),
(407,23,cs),
(355,30,ls),
(325,34,o),
(316,41,o),
(316,69,cs),
(316,313,ls),
(316,334,o),
(321,349,o),
(331,368,cs),
(482,631,ls),
(507,675,o),
(520,691,o),
(542,695,cs),
(553,697,ls),
(564,699,o),
(569,703,o),
(569,710,cs),
(569,717,o),
(562,720,o),
(552,720,cs),
(389,720,ls),
(378,720,o),
(373,716,o),
(373,709,cs),
(373,703,o),
(378,699,o),
(392,697,cs),
(417,694,ls),
(453,690,o),
(463,666,o),
(444,632,cs),
(299,376,l),
(293,376,l),
(144,653,ls),
(129,681,o),
(141,693,o),
(168,695,cs),
(190,697,ls),
(204,698,o),
(209,703,o),
(209,709,cs),
(209,716,o),
(204,720,o),
(193,720,cs),
(-3,720,ls),
(-12,720,o),
(-18,717,o),
(-18,710,cs),
(-18,703,o),
(-13,699,o),
(-4,697,cs),
(6,695,ls),
(31,690,o),
(43,678,o),
(54,656,cs),
(223,348,ls),
(231,333,o),
(235,321,o),
(235,305,cs),
(235,69,ls),
(235,41,o),
(225,34,o),
(195,30,cs),
(144,23,ls),
(133,22,o),
(129,17,o),
(129,11,cs),
(129,4,o),
(135,0,o),
(146,0,cs)
);
}
);
};
layerId = m01;
shapes = (
{
closed = 1;
nodes = (
(405,0,ls),
(416,0,o),
(422,4,o),
(422,11,cs),
(422,17,o),
(417,22,o),
(407,23,cs),
(355,30,ls),
(325,34,o),
(316,41,o),
(316,69,cs),
(316,313,ls),
(316,334,o),
(321,349,o),
(331,368,cs),
(482,631,ls),
(507,675,o),
(520,691,o),
(542,695,cs),
(553,697,ls),
(564,699,o),
(569,703,o),
(569,710,cs),
(569,717,o),
(562,720,o),
(552,720,cs),
(389,720,ls),
(378,720,o),
(373,716,o),
(373,709,cs),
(373,703,o),
(378,699,o),
(392,697,cs),
(417,694,ls),
(453,690,o),
(463,666,o),
(444,632,cs),
(308,391,ls),
(302,381,o),
(291,381,o),
(285,391,cs),
(144,653,ls),
(129,681,o),
(141,693,o),
(168,695,cs),
(190,697,ls),
(204,698,o),
(209,703,o),
(209,709,cs),
(209,716,o),
(204,720,o),
(193,720,cs),
(-3,720,ls),
(-12,720,o),
(-18,717,o),
(-18,710,cs),
(-18,703,o),
(-13,699,o),
(-4,697,cs),
(6,695,ls),
(31,690,o),
(43,678,o),
(54,656,cs),
(223,348,ls),
(231,333,o),
(235,321,o),
(235,305,cs),
(235,69,ls),
(235,41,o),
(225,34,o),
(195,30,cs),
(144,23,ls),
(133,22,o),
(129,17,o),
(129,11,cs),
(129,4,o),
(135,0,o),
(146,0,cs)
);
}
);
width = 549;
}
);
unicode = 89;
},
{
glyphname = Z;
kernLeft = Z;
kernRight = Z;
lastChange = "2022-08-31 20:25:35 +0000";
layers = (
{
anchors = (
{
name = bottom;
pos = (214,0);
},
{
name = center;
pos = (214,360);
},
{
name = top;
pos = (234,720);
}
);
background = {
shapes = (
{
closed = 1;
nodes = (
(419,0,ls),
(436,0,o),
(446,8,o),
(447,23,cs),
(461,211,ls),
(462,222,o),
(455,228,o),
(447,228,cs),
(438,228,o),
(432,223,o),
(430,215,cs),
(411,128,ls),
(392,45,o),
(339,30,o),
(286,30,cs),
(115,30,l),
(115,35,l),
(453,691,ls),
(462,709,o),
(453,720,o),
(431,720,cs),
(177,720,ls),
(103,720,o),
(100,740,o),
(85,740,cs),
(74,740,o),
(67,732,o),
(66,717,cs),
(45,531,ls),
(44,520,o),
(51,514,o),
(60,514,cs),
(69,514,o),
(74,519,o),
(76,527,cs),
(93,577,ls),
(124,666,o),
(171,690,o),
(229,690,cs),
(362,690,l),
(362,685,l),
(24,29,ls),
(15,11,o),
(24,0,o),
(46,0,cs)
);
}
);
};
layerId = m01;
shapes = (
{
closed = 1;
nodes = (
(419,0,ls),
(436,0,o),
(446,8,o),
(447,23,cs),
(461,211,ls),
(462,222,o),
(455,228,o),
(447,228,cs),
(438,228,o),
(432,223,o),
(430,215,cs),
(415,148,ls),
(392,45,o),
(325,30,o),
(261,30,cs),
(133,30,ls),
(122,30,o),
(116,36,o),
(121,46,cs),
(453,691,ls),
(462,709,o),
(453,720,o),
(431,720,cs),
(177,720,ls),
(103,720,o),
(100,740,o),
(85,740,cs),
(74,740,o),
(67,732,o),
(66,717,cs),
(45,531,ls),
(44,520,o),
(51,514,o),
(60,514,cs),
(69,514,o),
(74,519,o),
(76,527,cs),
(93,577,ls),
(123,665,o),
(171,690,o),
(229,690,cs),
(344,690,ls),
(355,690,o),
(361,684,o),
(356,674,cs),
(24,29,ls),
(15,11,o),
(24,0,o),
(46,0,cs)
);
}
);
width = 491;
}
);
unicode = 90;
},
{
glyphname = a;
kernLeft = a;
kernRight = a;
lastChange = "2022-09-01 20:17:48 +0000";
layers = (
{
anchors = (
{
name = bottom;
pos = (200,0);
},
{
name = ogonek;
pos = (344,0);
},
{
name = top;
pos = (200,510);
}
);
background = {
shapes = (
{
closed = 1;
nodes = (
(194,-9,o),
(229,14,o),
(266,58,cs),
(276,71,o),
(290,70,o),
(292,57,cs),
(299,21,o),
(321,-9,o),
(358,-9,cs),
(407,-9,o),
(453,32,o),
(453,129,cs),
(453,141,o),
(447,146,o),
(439,146,cs),
(431,146,o),
(424,141,o),
(424,130,cs),
(424,74,o),
(404,53,o),
(384,53,cs),
(369,53,o),
(360,66,o),
(360,95,cs),
(360,401,ls),
(360,479,o),
(320,516,o),
(246,516,cs),
(148,516,o),
(36,433,o),
(36,355,cs),
(36,337,o),
(48,327,o),
(68,327,cs),
(93,327,o),
(123,345,o),
(131,388,cs),
(145,458,o),
(178,486,o),
(217,486,cs),
(256,486,o),
(282,461,o),
(282,397,cs),
(282,175,ls),
(282,97,o),
(228,37,o),
(169,37,cs),
(131,37,o),
(110,61,o),
(110,106,cs),
(110,186,o),
(178,241,o),
(292,269,c),
(292,296,l),
(139,259,o),
(28,178,o),
(28,88,cs),
(28,29,o),
(74,-9,o),
(138,-9,cs)
);
}
);
};
layerId = m01;
shapes = (
{
closed = 1;
nodes = (
(194,-9,o),
(229,14,o),
(266,58,cs),
(276,71,o),
(290,70,o),
(292,57,cs),
(299,21,o),
(321,-9,o),
(358,-9,cs),
(407,-9,o),
(453,32,o),
(453,129,cs),
(453,141,o),
(447,146,o),
(439,146,cs),
(431,146,o),
(424,141,o),
(424,130,cs),
(424,74,o),
(404,53,o),
(384,53,cs),
(369,53,o),
(360,66,o),
(360,95,cs),
(360,401,ls),
(360,479,o),
(320,516,o),
(246,516,cs),
(148,516,o),
(36,433,o),
(36,355,cs),
(36,337,o),
(48,327,o),
(68,327,cs),
(93,327,o),
(123,345,o),
(131,388,cs),
(145,458,o),
(178,486,o),
(217,486,cs),
(256,486,o),
(282,461,o),
(282,397,cs),
(282,306,ls),
(282,298,o),
(277,292,o),
(267,289,cs),
(128,250,o),
(28,173,o),
(28,88,cs),
(28,29,o),
(74,-9,o),
(138,-9,cs)
);
},
{
closed = 1;
nodes = (
(131,37,o),
(110,61,o),
(110,106,cs),
(110,178,o),
(164,229,o),
(258,259,cs),
(273,264,o),
(282,259,o),
(282,248,cs),
(282,175,ls),
(282,97,o),
(228,37,o),
(169,37,cs)
);
}
);
width = 459;
}
);
unicode = 97;
},
{
glyphname = ae;
kernLeft = a;
kernRight = e;
lastChange = "2022-08-23 19:55:07 +0000";
layers = (
{
background = {
shapes = (
{
closed = 1;
nodes = (
(194,-9,o),
(229,14,o),
(266,58,cs),
(276,71,o),
(290,70,o),
(360,95,c),
(360,401,ls),
(360,479,o),
(320,516,o),
(246,516,cs),
(148,516,o),
(36,433,o),
(36,355,cs),
(36,337,o),
(48,327,o),
(68,327,cs),
(93,327,o),
(123,345,o),
(131,388,cs),
(145,458,o),
(178,486,o),
(217,486,cs),
(256,486,o),
(282,461,o),
(282,397,cs),
(282,306,ls),
(282,298,o),
(277,292,o),
(267,289,cs),
(128,250,o),
(28,173,o),
(28,88,cs),
(28,29,o),
(74,-9,o),
(138,-9,cs)
);
},
{
closed = 1;
nodes = (
(131,37,o),
(110,61,o),
(110,106,cs),
(110,178,o),
(164,229,o),
(258,259,cs),
(273,264,o),
(282,259,o),
(282,248,cs),
(282,175,ls),
(282,97,o),
(228,37,o),
(169,37,cs)
);
},
{
closed = 1;
nodes = (
(547,-9,o),
(603,32,o),
(628,151,cs),
(630,163,o),
(627,171,o),
(618,171,cs),
(610,171,o),
(605,167,o),
(603,160,cs),
(580,74,o),
(545,42,o),
(486,42,cs),
(413,42,o),
(360,113,o),
(360,254,cs),
(360,270,o),
(368,277,o),
(383,277,cs),
(601,277,ls),
(621,277,o),
(630,289,o),
(630,310,cs),
(630,455,o),
(568,516,o),
(478,516,cs),
(365,516,o),
(289,406,o),
(289,249,cs),
(289,94,o),
(361,-9,o),
(471,-9,cs)
);
},
{
closed = 1;
nodes = (
(368,302,o),
(361,308,o),
(362,318,cs),
(374,428,o),
(417,491,o),
(477,491,cs),
(526,491,o),
(551,439,o),
(551,352,cs),
(551,317,o),
(534,302,o),
(496,302,cs),
(379,302,ls)
);
}
);
};
layerId = m01;
shapes = (
{
closed = 1;
nodes = (
(193,-9,o),
(233,15,o),
(266,55,cs),
(360,175,l),
(360,401,ls),
(360,479,o),
(320,516,o),
(246,516,cs),
(148,516,o),
(36,433,o),
(36,355,cs),
(36,337,o),
(48,327,o),
(68,327,cs),
(93,327,o),
(123,345,o),
(131,388,cs),
(145,458,o),
(178,486,o),
(217,486,cs),
(256,486,o),
(282,461,o),
(282,397,cs),
(282,306,ls),
(282,298,o),
(277,292,o),
(267,289,cs),
(128,250,o),
(28,173,o),
(28,88,cs),
(28,29,o),
(74,-9,o),
(137,-9,cs)
);
},
{
closed = 1;
nodes = (
(131,37,o),
(110,61,o),
(110,106,cs),
(110,178,o),
(164,229,o),
(258,259,cs),
(273,264,o),
(282,259,o),
(282,248,cs),
(282,175,ls),
(282,97,o),
(228,37,o),
(169,37,cs)
);
},
{
closed = 1;
nodes = (
(547,-9,o),
(603,32,o),
(628,151,cs),
(630,163,o),
(627,171,o),
(618,171,cs),
(610,171,o),
(605,167,o),
(603,160,cs),
(580,74,o),
(545,42,o),
(486,42,cs),
(413,42,o),
(360,113,o),
(360,254,cs),
(360,270,o),
(368,277,o),
(383,277,cs),
(601,277,ls),
(621,277,o),
(630,289,o),
(630,310,cs),
(630,455,o),
(568,516,o),
(478,516,cs),
(365,516,o),
(289,406,o),
(289,249,cs),
(289,94,o),
(361,-9,o),
(471,-9,cs)
);
},
{
closed = 1;
nodes = (
(368,302,o),
(361,308,o),
(362,318,cs),
(374,428,o),
(417,491,o),
(477,491,cs),
(526,491,o),
(551,439,o),
(551,352,cs),
(551,317,o),
(534,302,o),
(496,302,cs),
(379,302,ls)
);
}
);
width = 659;
}
);
metricRight = e;
unicode = 230;
},
{
glyphname = b;
kernRight = o;
lastChange = "2022-09-01 20:59:06 +0000";
layers = (
{
background = {
shapes = (
{
closed = 1;
nodes = (
(74,-9,cs),
(80,-9,o),
(86,-6,o),
(94,3,cs),
(150,61,l),
(150,724,ls),
(150,735,o),
(145,740,o),
(137,740,cs),
(130,740,o),
(122,737,o),
(109,730,cs),
(90,719,o),
(61,708,o),
(18,700,cs),
(10,699,o),
(6,694,o),
(6,688,cs),
(6,682,o),
(10,677,o),
(18,676,cs),
(43,673,ls),
(64,670,o),
(71,664,o),
(71,640,cs),
(71,160,ls),
(71,80,o),
(68,35,o),
(62,5,cs),
(60,-4,o),
(67,-9,o)
);
},
{
closed = 1;
nodes = (
(366,-9,o),
(463,107,o),
(463,274,cs),
(463,419,o),
(388,516,o),
(282,516,cs),
(240,516,o),
(207,501,o),
(179,477,cs),
(155,456,l),
(145,456,l),
(150,365,l),
(150,432,o),
(193,471,o),
(246,471,cs),
(330,471,o),
(378,397,o),
(378,260,cs),
(378,110,o),
(321,16,o),
(235,16,cs),
(184,16,o),
(150,53,o),
(150,113,c),
(106,27,l),
(123,27,l),
(158,2,o),
(193,-9,o),
(231,-9,cs)
);
}
);
};
layerId = m01;
shapes = (
{
closed = 1;
nodes = (
(366,-9,o),
(463,107,o),
(463,274,cs),
(463,419,o),
(388,516,o),
(282,516,cs),
(240,516,o),
(207,502,o),
(174,472,cs),
(161,461,o),
(150,466,o),
(150,477,cs),
(150,724,ls),
(150,735,o),
(145,740,o),
(137,740,cs),
(130,740,o),
(122,737,o),
(109,730,cs),
(90,719,o),
(61,708,o),
(18,700,cs),
(10,699,o),
(6,694,o),
(6,688,cs),
(6,682,o),
(10,677,o),
(18,676,cs),
(43,673,ls),
(64,670,o),
(71,664,o),
(71,640,cs),
(71,160,ls),
(71,80,o),
(68,35,o),
(62,5,cs),
(60,-4,o),
(63,-9,o),
(71,-9,cs),
(78,-9,o),
(85,-6,o),
(100,9,cs),
(114,25,o),
(128,28,o),
(146,17,cs),
(176,-1,o),
(205,-9,o),
(237,-9,cs)
);
},
{
closed = 1;
nodes = (
(184,16,o),
(150,53,o),
(150,113,cs),
(150,365,ls),
(150,432,o),
(193,471,o),
(246,471,cs),
(330,471,o),
(378,397,o),
(378,260,cs),
(378,110,o),
(321,16,o),
(235,16,cs)
);
}
);
width = 509;
}
);
unicode = 98;
},
{
glyphname = c;
kernLeft = o;
kernRight = c;
lastChange = "2022-09-01 20:18:01 +0000";
layers = (
{
anchors = (
{
name = bottom;
pos = (182,0);
},
{
name = top;
pos = (208,510);
}
);
background = {
shapes = (
{
closed = 1;
nodes = (
(283,-9,o),
(337,26,o),
(363,167,cs),
(366,179,o),
(362,187,o),
(353,187,cs),
(345,187,o),
(342,183,o),
(339,176,cs),
(313,74,o),
(279,42,o),
(225,42,cs),
(158,42,o),
(112,114,o),
(112,257,cs),
(112,405,o),
(162,491,o),
(223,491,cs),
(263,491,o),
(285,463,o),
(306,392,cs),
(317,352,ls),
(320,343,o),
(324,339,o),
(332,339,cs),
(340,339,o),
(345,344,o),
(345,354,cs),
(342,480,ls),
(342,488,o),
(339,492,o),
(332,496,cs),
(309,509,o),
(279,516,o),
(248,516,cs),
(123,516,o),
(26,406,o),
(26,236,cs),
(26,84,o),
(106,-9,o),
(207,-9,cs)
);
}
);
};
layerId = m01;
shapes = (
{
closed = 1;
nodes = (
(283,-9,o),
(337,26,o),
(363,167,cs),
(366,179,o),
(362,187,o),
(353,187,cs),
(345,187,o),
(342,183,o),
(339,176,cs),
(313,74,o),
(279,42,o),
(225,42,cs),
(158,42,o),
(112,114,o),
(112,257,cs),
(112,425,o),
(171,490,o),
(217,490,cs),
(256,490,o),
(283,462,o),
(315,352,cs),
(317,343,o),
(323,339,o),
(331,339,cs),
(338,339,o),
(345,344,o),
(345,354,cs),
(343,476,ls),
(343,487,o),
(339,493,o),
(331,498,cs),
(309,511,o),
(285,516,o),
(248,516,cs),
(123,516,o),
(26,406,o),
(26,236,cs),
(26,84,o),
(106,-9,o),
(207,-9,cs)
);
}
);
width = 390;
}
);
unicode = 99;
},
{
glyphname = d;
kernLeft = o;
kernRight = d;
lastChange = "2022-09-01 20:59:12 +0000";
layers = (
{
anchors = (
{
name = bottom;
pos = (229,0);
},
{
name = center;
pos = (229,255);
},
{
name = top;
pos = (229,740);
},
{
name = topright;
pos = (402,740);
}
);
background = {
shapes = (
{
closed = 1;
nodes = (
(256,-9,o),
(286,6,o),
(322,47,cs),
(343,71,l),
(353,71,l),
(348,169,l),
(348,95,o),
(292,37,o),
(233,37,cs),
(162,37,o),
(120,110,o),
(120,247,cs),
(120,397,o),
(177,491,o),
(263,491,cs),
(314,491,o),
(348,454,o),
(348,394,c),
(392,480,l),
(375,480,l),
(340,505,o),
(305,516,o),
(267,516,cs),
(132,516,o),
(34,400,o),
(34,233,cs),
(34,88,o),
(106,-9,o),
(208,-9,cs)
);
},
{
closed = 1;
nodes = (
(474,-9,o),
(520,32,o),
(520,129,cs),
(520,141,o),
(514,146,o),
(506,146,cs),
(498,146,o),
(491,141,o),
(491,130,cs),
(491,74,o),
(470,53,o),
(451,53,cs),
(436,53,o),
(427,66,o),
(427,95,cs),
(427,724,ls),
(427,735,o),
(422,740,o),
(414,740,cs),
(407,740,o),
(399,737,o),
(386,730,cs),
(367,719,o),
(338,708,o),
(290,700,cs),
(282,699,o),
(277,694,o),
(277,688,cs),
(277,682,o),
(282,677,o),
(290,676,cs),
(320,673,ls),
(342,671,o),
(348,664,o),
(348,640,cs),
(348,73,ls),
(348,21,o),
(383,-9,o),
(425,-9,cs)
);
}
);
};
layerId = m01;
shapes = (
{
closed = 1;
nodes = (
(259,-9,o),
(289,6,o),
(331,58,cs),
(339,68,o),
(350,67,o),
(352,57,cs),
(359,21,o),
(381,-9,o),
(425,-9,cs),
(474,-9,o),
(520,32,o),
(520,129,cs),
(520,141,o),
(514,146,o),
(506,146,cs),
(498,146,o),
(491,141,o),
(491,130,cs),
(491,74,o),
(470,53,o),
(451,53,cs),
(436,53,o),
(427,66,o),
(427,95,cs),
(427,724,ls),
(427,735,o),
(422,740,o),
(414,740,cs),
(407,740,o),
(399,737,o),
(386,730,cs),
(367,719,o),
(338,708,o),
(290,700,cs),
(282,699,o),
(277,694,o),
(277,688,cs),
(277,682,o),
(282,677,o),
(290,676,cs),
(320,673,ls),
(342,671,o),
(348,664,o),
(348,640,cs),
(348,512,ls),
(348,502,o),
(342,500,o),
(330,505,cs),
(309,513,o),
(289,516,o),
(267,516,cs),
(132,516,o),
(34,400,o),
(34,233,cs),
(34,88,o),
(106,-9,o),
(208,-9,cs)
);
},
{
closed = 1;
nodes = (
(162,37,o),
(120,110,o),
(120,247,cs),
(120,397,o),
(177,491,o),
(263,491,cs),
(314,491,o),
(348,454,o),
(348,394,cs),
(348,169,ls),
(348,95,o),
(292,37,o),
(233,37,cs)
);
}
);
width = 526;
}
);
unicode = 100;
},
{
glyphname = eth;
kernLeft = o;
kernRight = o;
lastChange = "2022-08-23 19:55:36 +0000";
layers = (
{
layerId = m01;
shapes = (
{
closed = 1;
nodes = (
(344,-9,o),
(423,100,o),
(423,261,cs),
(423,480,o),
(268,709,o),
(71,750,cs),
(56,753,o),
(49,746,o),
(49,738,cs),
(49,731,o),
(54,727,o),
(62,725,cs),
(197,686,o),
(278,580,o),
(317,442,cs),
(321,432,o),
(314,429,o),
(305,434,cs),
(281,449,o),
(252,456,o),
(221,456,cs),
(113,456,o),
(32,360,o),
(32,229,cs),
(32,98,o),
(120,-9,o),
(228,-9,cs)
);
},
{
closed = 1;
nodes = (
(152,18,o),
(115,84,o),
(115,224,cs),
(115,366,o),
(150,431,o),
(225,431,cs),
(306,431,o),
(347,358,o),
(347,218,cs),
(347,84,o),
(308,18,o),
(230,18,cs)
);
}
);
width = 465;
}
);
unicode = 240;
},
{
glyphname = dcroat;
kernLeft = o;
kernRight = d;
lastChange = "2022-08-23 19:55:32 +0000";
layers = (
{
layerId = m01;
shapes = (
{
ref = d;
},
{
closed = 1;
nodes = (
(491,578,ls),
(498,578,o),
(503,582,o),
(503,588,cs),
(503,596,ls),
(503,602,o),
(498,606,o),
(491,606,cs),
(175,606,ls),
(168,606,o),
(163,602,o),
(163,596,cs),
(163,588,ls),
(163,582,o),
(168,578,o),
(175,578,cs)
);
}
);
width = 526;
}
);
unicode = 273;
},
{
glyphname = e;
kernLeft = o;
kernRight = e;
lastChange = "2022-09-01 20:18:09 +0000";
layers = (
{
anchors = (
{
name = bottom;
pos = (178,0);
},
{
name = ogonek;
pos = (239,0);
},
{
name = top;
pos = (193,510);
}
);
background = {
shapes = (
{
closed = 1;
nodes = (
(297,-9,o),
(352,32,o),
(377,151,cs),
(379,163,o),
(376,171,o),
(367,171,cs),
(359,171,o),
(354,167,o),
(352,160,cs),
(329,74,o),
(294,42,o),
(236,42,cs),
(162,42,o),
(109,113,o),
(109,262,cs),
(109,407,o),
(158,491,o),
(227,491,cs),
(275,491,o),
(300,439,o),
(300,352,cs),
(300,317,o),
(283,302,o),
(245,302,cs),
(78,302,l),
(78,277,l),
(351,277,l),
(370,277,o),
(379,289,o),
(379,310,cs),
(379,455,o),
(317,516,o),
(228,516,cs),
(114,516,o),
(26,406,o),
(26,249,cs),
(26,94,o),
(110,-9,o),
(221,-9,cs)
);
}
);
};
layerId = m01;
shapes = (
{
closed = 1;
nodes = (
(297,-9,o),
(352,32,o),
(377,151,cs),
(379,163,o),
(376,171,o),
(367,171,cs),
(359,171,o),
(354,167,o),
(352,160,cs),
(329,74,o),
(294,42,o),
(236,42,cs),
(162,42,o),
(109,113,o),
(109,254,cs),
(109,270,o),
(117,277,o),
(132,277,cs),
(351,277,ls),
(370,277,o),
(379,289,o),
(379,310,cs),
(379,455,o),
(317,516,o),
(228,516,cs),
(114,516,o),
(26,406,o),
(26,249,cs),
(26,94,o),
(110,-9,o),
(221,-9,cs)
);
},
{
closed = 1;
nodes = (
(117,302,o),
(110,308,o),
(112,318,cs),
(123,428,o),
(167,491,o),
(227,491,cs),
(275,491,o),
(300,439,o),
(300,352,cs),
(300,317,o),
(283,302,o),
(245,302,cs),
(129,302,ls)
);
}
);
width = 408;
}
);
unicode = 101;
},
{
glyphname = f;
kernLeft = f;
lastChange = "2022-09-01 20:59:24 +0000";
layers = (
{
background = {
shapes = (
{
closed = 1;
nodes = (
(286,0,l),
(286,21,l),
(215,27,ls),
(184,30,o),
(176,38,o),
(176,67,cs),
(176,610,ls),
(176,692,o),
(194,717,o),
(225,717,cs),
(283,717,o),
(256,632,o),
(319,632,cs),
(343,632,o),
(359,645,o),
(359,670,cs),
(359,713,o),
(312,748,o),
(251,748,cs),
(152,748,o),
(98,654,o),
(98,550,cs),
(98,67,ls),
(98,38,o),
(89,28,o),
(59,25,cs),
(17,21,l),
(17,0,l)
);
},
{
closed = 1;
nodes = (
(98,518,o),
(75,502,o),
(32,502,c),
(32,482,l),
(302,482,l),
(302,510,l),
(166,510,l),
(98,544,l)
);
}
);
};
guides = (
{
pos = (259,276);
}
);
layerId = m01;
shapes = (
{
closed = 1;
nodes = (
(98,39,o),
(91,27,o),
(59,25,cs),
(30,23,ls),
(20,22,o),
(15,17,o),
(15,11,cs),
(15,4,o),
(21,0,o),
(32,0,cs),
(271,0,ls),
(283,0,o),
(289,4,o),
(289,12,cs),
(289,18,o),
(284,22,o),
(276,23,cs),
(215,28,ls),
(183,31,o),
(176,39,o),
(176,67,cs),
(176,470,ls),
(176,477,o),
(182,482,o),
(190,482,cs),
(289,482,ls),
(298,482,o),
(306,487,o),
(306,496,cs),
(306,505,o),
(298,510,o),
(289,510,cs),
(190,510,ls),
(182,510,o),
(176,515,o),
(176,522,cs),
(176,610,ls),
(176,692,o),
(194,717,o),
(225,717,cs),
(283,717,o),
(256,632,o),
(319,632,cs),
(343,632,o),
(359,645,o),
(359,670,cs),
(359,713,o),
(312,748,o),
(251,748,cs),
(152,748,o),
(98,654,o),
(98,550,cs),
(98,544,ls),
(98,521,o),
(79,506,o),
(44,503,cs),
(34,502,o),
(30,498,o),
(30,492,cs),
(30,486,o),
(36,482,o),
(44,482,cs),
(70,482,ls),
(87,482,o),
(98,473,o),
(98,458,cs),
(98,67,ls)
);
}
);
width = 331;
}
);
unicode = 102;
},
{
glyphname = g;
kernLeft = g;
kernRight = g;
lastChange = "2022-09-01 20:59:30 +0000";
layers = (
{
anchors = (
{
name = bottom;
pos = (196,-205);
},
{
name = top;
pos = (196,510);
}
);
background = {
shapes = (
{
closed = 1;
nodes = (
(337,-215,o),
(443,-144,o),
(443,-46,cs),
(443,36,o),
(374,87,o),
(263,87,cs),
(164,87,ls),
(131,87,o),
(121,111,o),
(141,132,cs),
(161,151,ls),
(181,170,o),
(199,180,o),
(227,180,cs),
(323,180,o),
(397,252,o),
(397,348,cs),
(397,444,o),
(323,516,o),
(227,516,cs),
(130,516,o),
(54,444,o),
(54,352,cs),
(54,288,o),
(93,226,o),
(156,200,cs),
(166,196,o),
(166,189,o),
(158,183,cs),
(75,121,ls),
(38,94,o),
(49,59,o),
(105,39,cs),
(123,32,o),
(123,18,o),
(105,4,cs),
(26,-56,o),
(16,-76,o),
(16,-111,cs),
(16,-168,o),
(89,-215,o),
(205,-215,cs)
);
},
{
closed = 1;
nodes = (
(133,-193,o),
(85,-154,o),
(85,-95,cs),
(85,-67,o),
(92,-45,o),
(139,-1,cs),
(161,19,o),
(179,26,o),
(227,26,cs),
(253,26,ls),
(327,26,o),
(369,-8,o),
(369,-68,cs),
(369,-141,o),
(301,-193,o),
(218,-193,cs)
);
},
{
closed = 1;
nodes = (
(170,205,o),
(136,261,o),
(136,350,cs),
(136,437,o),
(171,494,o),
(225,494,cs),
(279,494,o),
(315,437,o),
(315,350,cs),
(315,261,o),
(281,205,o),
(225,205,cs)
);
},
{
closed = 1;
nodes = (
(322,483,l),
(322,517,o),
(337,534,o),
(360,534,cs),
(385,534,o),
(383,514,o),
(413,514,cs),
(436,514,o),
(453,528,o),
(453,551,cs),
(453,578,o),
(428,598,o),
(393,598,cs),
(348,598,o),
(294,551,o),
(294,483,c)
);
}
);
};
guides = (
{
pos = (124,26);
},
{
angle = 221.1345;
pos = (146,16);
},
{
angle = -42.8789;
pos = (137,144);
showMeasurement = 1;
},
{
angle = 90;
pos = (208,82);
showMeasurement = 1;
}
);
layerId = m01;
shapes = (
{
closed = 1;
nodes = (
(337,-215,o),
(443,-144,o),
(443,-46,cs),
(443,36,o),
(374,87,o),
(263,87,cs),
(164,87,ls),
(131,87,o),
(121,111,o),
(141,132,cs),
(161,151,ls),
(181,170,o),
(199,180,o),
(227,180,cs),
(323,180,o),
(397,252,o),
(397,348,cs),
(397,401,o),
(375,446,o),
(338,477,cs),
(328,486,o),
(321,495,o),
(325,508,cs),
(330,525,o),
(343,534,o),
(360,534,cs),
(385,534,o),
(383,514,o),
(413,514,cs),
(436,514,o),
(453,528,o),
(453,551,cs),
(453,578,o),
(428,598,o),
(393,598,cs),
(356,598,o),
(313,567,o),
(299,517,cs),
(297,508,o),
(290,505,o),
(279,508,cs),
(263,513,o),
(245,516,o),
(227,516,cs),
(130,516,o),
(54,444,o),
(54,352,cs),
(54,288,o),
(93,226,o),
(156,200,cs),
(166,196,o),
(166,189,o),
(158,183,cs),
(75,121,ls),
(38,94,o),
(49,59,o),
(105,39,cs),
(123,32,o),
(123,18,o),
(105,4,cs),
(26,-56,o),
(16,-76,o),
(16,-111,cs),
(16,-168,o),
(89,-215,o),
(205,-215,cs)
);
},
{
closed = 1;
nodes = (
(133,-193,o),
(85,-154,o),
(85,-95,cs),
(85,-67,o),
(92,-45,o),
(139,-1,cs),
(161,19,o),
(179,26,o),
(227,26,cs),
(253,26,ls),
(327,26,o),
(369,-8,o),
(369,-68,cs),
(369,-141,o),
(301,-193,o),
(218,-193,cs)
);
},
{
closed = 1;
nodes = (
(170,205,o),
(136,261,o),
(136,350,cs),
(136,437,o),
(171,494,o),
(225,494,cs),
(279,494,o),
(315,437,o),
(315,350,cs),
(315,261,o),
(281,205,o),
(225,205,cs)
);
}
);
width = 462;
}
);
unicode = 103;
},
{
glyphname = h;
kernLeft = h;
kernRight = n;
lastChange = "2022-09-01 20:59:43 +0000";
layers = (
{
background = {
shapes = (
{
closed = 1;
nodes = (
(232,0,ls),
(240,0,o),
(246,4,o),
(246,11,cs),
(246,18,o),
(241,22,o),
(233,23,cs),
(202,26,ls),
(170,29,o),
(163,39,o),
(163,67,cs),
(163,724,ls),
(163,735,o),
(159,740,o),
(151,740,cs),
(144,740,o),
(136,737,o),
(123,730,cs),
(103,719,o),
(75,708,o),
(32,700,cs),
(24,699,o),
(20,694,o),
(20,688,cs),
(20,682,o),
(24,677,o),
(32,676,cs),
(56,673,ls),
(78,670,o),
(85,664,o),
(85,640,cs),
(85,67,ls),
(85,39,o),
(78,29,o),
(46,25,cs),
(30,23,ls),
(22,22,o),
(17,17,o),
(17,11,cs),
(17,5,o),
(23,0,o),
(31,0,cs)
);
},
{
closed = 1;
nodes = (
(163,335,l),
(163,408,o),
(220,470,o),
(293,470,cs),
(344,470,o),
(373,446,o),
(373,381,cs),
(373,67,ls),
(373,39,o),
(366,29,o),
(334,25,cs),
(317,23,ls),
(309,22,o),
(305,17,o),
(305,11,cs),
(305,5,o),
(309,0,o),
(321,0,cs),
(514,0,ls),
(522,0,o),
(528,4,o),
(528,11,cs),
(528,18,o),
(523,22,o),
(515,23,cs),
(490,26,ls),
(458,30,o),
(451,39,o),
(451,67,cs),
(451,392,ls),
(451,473,o),
(406,516,o),
(335,516,cs),
(285,516,o),
(244,500,o),
(198,463,cs),
(169,440,l),
(159,440,l)
);
}
);
};
guides = (
{
angle = 222.6141;
pos = (160,452);
}
);
layerId = m01;
shapes = (
{
closed = 1;
nodes = (
(232,0,ls),
(240,0,o),
(246,4,o),
(246,11,cs),
(246,18,o),
(241,22,o),
(233,23,cs),
(202,26,ls),
(170,29,o),
(163,39,o),
(163,67,cs),
(163,335,ls),
(163,408,o),
(220,470,o),
(293,470,cs),
(344,470,o),
(373,446,o),
(373,381,cs),
(373,67,ls),
(373,39,o),
(366,29,o),
(334,25,cs),
(317,23,ls),
(309,22,o),
(305,17,o),
(305,11,cs),
(305,5,o),
(309,0,o),
(321,0,cs),
(514,0,ls),
(522,0,o),
(528,4,o),
(528,11,cs),
(528,18,o),
(523,22,o),
(515,23,cs),
(490,26,ls),
(458,30,o),
(451,39,o),
(451,67,cs),
(451,392,ls),
(451,473,o),
(406,516,o),
(335,516,cs),
(285,516,o),
(245,501,o),
(187,455,cs),
(174,444,o),
(163,447,o),
(163,459,cs),
(163,724,ls),
(163,735,o),
(159,740,o),
(151,740,cs),
(144,740,o),
(136,737,o),
(123,730,cs),
(103,719,o),
(75,708,o),
(32,700,cs),
(24,699,o),
(20,694,o),
(20,688,cs),
(20,682,o),
(24,677,o),
(32,676,cs),
(56,673,ls),
(78,670,o),
(85,664,o),
(85,640,cs),
(85,67,ls),
(85,39,o),
(78,29,o),
(46,25,cs),
(30,23,ls),
(22,22,o),
(17,17,o),
(17,11,cs),
(17,5,o),
(23,0,o),
(31,0,cs)
);
}
);
width = 540;
}
);
unicode = 104;
},
{
glyphname = hbar;
kernLeft = h;
kernRight = n;
lastChange = "2022-08-23 19:55:55 +0000";
layers = (
{
layerId = m01;
shapes = (
{
ref = h;
},
{
closed = 1;
nodes = (
(337,578,ls),
(344,578,o),
(348,582,o),
(348,588,cs),
(348,596,ls),
(348,602,o),
(344,606,o),
(337,606,cs),
(21,606,ls),
(14,606,o),
(9,602,o),
(9,596,cs),
(9,588,ls),
(9,582,o),
(14,578,o),
(21,578,cs)
);
}
);
width = 540;
}
);
unicode = 295;
},
{
glyphname = i;
kernLeft = i;
kernRight = i;
lastChange = "2022-09-01 20:59:49 +0000";
layers = (
{
anchors = (
{
name = bottom;
pos = (112,0);
}
);
background = {
shapes = (
{
closed = 1;
nodes = (
(243,0,l),
(243,21,l),
(208,26,ls),
(176,31,o),
(169,39,o),
(169,67,cs),
(169,513,l),
(146,513,l),
(117,495,o),
(78,479,o),
(25,471,c),
(25,451,l),
(62,446,ls),
(85,443,o),
(91,436,o),
(91,413,cs),
(91,67,ls),
(91,38,o),
(83,29,o),
(52,25,cs),
(17,21,l),
(17,0,l)
);
},
{
closed = 1;
nodes = (
(163,605,o),
(187,627,o),
(187,658,cs),
(187,689,o),
(163,710,o),
(131,710,cs),
(99,710,o),
(74,689,o),
(74,658,cs),
(74,627,o),
(99,605,o),
(131,605,cs)
);
}
);
};
guides = (
{
angle = 270;
pos = (79,240);
},
{
angle = 90;
pos = (147,290);
}
);
layerId = m01;
shapes = (
{
closed = 1;
nodes = (
(227,0,ls),
(238,0,o),
(244,4,o),
(244,12,cs),
(244,18,o),
(239,22,o),
(231,23,cs),
(202,26,ls),
(176,29,o),
(169,39,o),
(169,67,c),
(169,501,ls),
(169,509,o),
(166,513,o),
(159,513,cs),
(153,513,o),
(148,510,o),
(141,504,cs),
(114,482,o),
(89,467,o),
(41,461,cs),
(29,459,o),
(23,456,o),
(23,450,cs),
(23,444,o),
(26,440,o),
(38,439,cs),
(62,436,ls),
(84,433,o),
(91,427,o),
(91,403,cs),
(91,67,ls),
(91,39,o),
(84,30,o),
(46,25,cs),
(32,23,ls),
(22,21,o),
(17,17,o),
(17,11,cs),
(17,4,o),
(23,0,o),
(34,0,cs)
);
},
{
closed = 1;
nodes = (
(163,605,o),
(187,627,o),
(187,658,cs),
(187,689,o),
(163,710,o),
(131,710,cs),
(99,710,o),
(74,689,o),
(74,658,cs),
(74,627,o),
(99,605,o),
(131,605,cs)
);
}
);
width = 256;
}
);
unicode = 105;
},
{
glyphname = idotless;
kernLeft = i;
kernRight = i;
lastChange = "2022-08-23 19:56:03 +0000";
layers = (
{
anchors = (
{
name = bottom;
pos = (112,0);
},
{
name = ogonek;
pos = (167,0);
},
{
name = top;
pos = (112,510);
}
);
layerId = m01;
shapes = (
{
closed = 1;
nodes = (
(227,0,ls),
(238,0,o),
(244,4,o),
(244,12,cs),
(244,18,o),
(239,22,o),
(231,23,cs),
(202,26,ls),
(176,29,o),
(169,39,o),
(169,67,c),
(169,501,ls),
(169,509,o),
(166,513,o),
(159,513,cs),
(153,513,o),
(148,510,o),
(141,504,cs),
(114,482,o),
(89,467,o),
(41,461,cs),
(29,459,o),
(23,456,o),
(23,450,cs),
(23,444,o),
(26,440,o),
(38,439,cs),
(62,436,ls),
(84,433,o),
(91,427,o),
(91,403,cs),
(91,67,ls),
(91,39,o),
(84,30,o),
(46,25,cs),
(32,23,ls),
(22,21,o),
(17,17,o),
(17,11,cs),
(17,4,o),
(23,0,o),
(34,0,cs)
);
}
);
width = 256;
}
);
unicode = 305;
},
{
glyphname = j;
kernLeft = j;
kernRight = j;
lastChange = "2022-09-01 20:59:53 +0000";
layers = (
{
layerId = m01;
shapes = (
{
closed = 1;
nodes = (
(105,-215,o),
(169,-116,o),
(169,44,cs),
(169,501,ls),
(169,509,o),
(166,513,o),
(159,513,cs),
(153,513,o),
(148,510,o),
(141,504,cs),
(114,482,o),
(89,467,o),
(41,461,cs),
(29,459,o),
(23,456,o),
(23,450,cs),
(23,444,o),
(26,440,o),
(38,439,cs),
(62,436,ls),
(84,433,o),
(91,427,o),
(91,403,cs),
(91,-91,ls),
(91,-144,o),
(75,-175,o),
(46,-175,cs),
(5,-175,o),
(21,-119,o),
(-24,-119,cs),
(-48,-119,o),
(-63,-138,o),
(-63,-161,cs),
(-63,-193,o),
(-35,-215,o),
(5,-215,cs)
);
},
{
closed = 1;
nodes = (
(163,605,o),
(187,627,o),
(187,658,cs),
(187,688,o),
(164,710,o),
(131,710,cs),
(98,710,o),
(74,688,o),
(74,658,cs),
(74,628,o),
(98,605,o),
(131,605,cs)
);
}
);
width = 247;
}
);
unicode = 106;
},
{
glyphname = jdotless;
kernLeft = j;
kernRight = j;
lastChange = "2022-08-23 19:56:16 +0000";
layers = (
{
layerId = m01;
shapes = (
{
closed = 1;
nodes = (
(105,-215,o),
(169,-116,o),
(169,44,cs),
(169,501,ls),
(169,509,o),
(166,513,o),
(159,513,cs),
(153,513,o),
(148,510,o),
(141,504,cs),
(114,482,o),
(89,467,o),
(41,461,cs),
(29,459,o),
(23,456,o),
(23,450,cs),
(23,444,o),
(26,440,o),
(38,439,cs),
(62,436,ls),
(84,433,o),
(91,427,o),
(91,403,cs),
(91,-91,ls),
(91,-144,o),
(75,-175,o),
(46,-175,cs),
(5,-175,o),
(21,-119,o),
(-24,-119,cs),
(-48,-119,o),
(-63,-138,o),
(-63,-161,cs),
(-63,-193,o),
(-35,-215,o),
(5,-215,cs)
);
}
);
width = 247;
}
);
unicode = 567;
},
{
glyphname = k;
kernLeft = h;
kernRight = k;
lastChange = "2022-09-01 20:19:58 +0000";
layers = (
{
anchors = (
{
name = bottom;
pos = (226,0);
},
{
name = top;
pos = (226,740);
}
);
background = {
shapes = (
{
closed = 1;
nodes = (
(232,0,ls),
(240,0,o),
(246,4,o),
(246,11,cs),
(246,18,o),
(241,22,o),
(233,23,cs),
(202,26,ls),
(170,29,o),
(163,39,o),
(163,67,cs),
(163,724,ls),
(163,735,o),
(159,740,o),
(151,740,cs),
(144,740,o),
(136,737,o),
(123,730,cs),
(103,719,o),
(75,708,o),
(32,700,cs),
(24,699,o),
(20,694,o),
(20,688,cs),
(20,682,o),
(24,677,o),
(32,676,cs),
(56,673,ls),
(78,670,o),
(85,664,o),
(85,640,cs),
(85,67,ls),
(85,39,o),
(78,29,o),
(46,25,cs),
(30,23,ls),
(22,22,o),
(17,17,o),
(17,11,cs),
(17,5,o),
(23,0,o),
(31,0,cs)
);
},
{
closed = 1;
nodes = (
(367,420,ls),
(415,464,o),
(447,483,o),
(483,486,cs),
(493,487,ls),
(505,488,o),
(508,493,o),
(508,499,cs),
(508,506,o),
(503,510,o),
(492,510,cs),
(294,510,ls),
(284,510,o),
(278,506,o),
(278,500,cs),
(278,493,o),
(283,489,o),
(293,487,cs),
(320,483,ls),
(351,478,o),
(359,455,o),
(327,425,cs),
(167,276,l),
(155,276,l),
(155,229,l)
);
},
{
closed = 1;
nodes = (
(209,292,l),
(209,280,l),
(217,280,l),
(339,74,ls),
(355,46,o),
(350,28,o),
(321,25,cs),
(301,23,ls),
(292,22,o),
(286,17,o),
(286,11,cs),
(286,5,o),
(292,0,o),
(302,0,cs),
(503,0,ls),
(513,0,o),
(519,4,o),
(519,11,cs),
(519,18,o),
(514,21,o),
(505,23,cs),
(493,25,ls),
(463,30,o),
(445,40,o),
(429,67,cs),
(263,343,l)
);
}
);
};
layerId = m01;
shapes = (
{
closed = 1;
nodes = (
(232,0,ls),
(240,0,o),
(246,4,o),
(246,11,cs),
(246,18,o),
(241,22,o),
(233,23,cs),
(202,26,ls),
(170,29,o),
(163,39,o),
(163,67,cs),
(163,214,ls),
(163,229,o),
(167,240,o),
(181,252,cs),
(193,263,ls),
(206,274,o),
(222,272,o),
(230,259,cs),
(339,74,ls),
(355,46,o),
(350,28,o),
(321,25,cs),
(301,23,ls),
(292,22,o),
(286,17,o),
(286,11,cs),
(286,5,o),
(292,0,o),
(302,0,cs),
(503,0,ls),
(513,0,o),
(519,4,o),
(519,11,cs),
(519,18,o),
(514,21,o),
(505,23,cs),
(493,25,ls),
(463,30,o),
(445,40,o),
(429,67,cs),
(284,309,ls),
(276,323,o),
(278,338,o),
(296,354,cs),
(367,420,ls),
(415,464,o),
(447,483,o),
(483,486,cs),
(493,487,ls),
(505,488,o),
(508,493,o),
(508,499,cs),
(508,506,o),
(503,510,o),
(492,510,cs),
(294,510,ls),
(284,510,o),
(278,506,o),
(278,500,cs),
(278,493,o),
(283,489,o),
(293,487,cs),
(320,483,ls),
(351,478,o),
(359,455,o),
(327,425,cs),
(192,299,ls),
(179,287,o),
(163,291,o),
(163,305,cs),
(163,724,ls),
(163,735,o),
(159,740,o),
(151,740,cs),
(144,740,o),
(136,737,o),
(123,730,cs),
(103,719,o),
(75,708,o),
(32,700,cs),
(24,699,o),
(20,694,o),
(20,688,cs),
(20,682,o),
(24,677,o),
(32,676,cs),
(56,673,ls),
(78,670,o),
(85,664,o),
(85,640,cs),
(85,67,ls),
(85,39,o),
(78,29,o),
(46,25,cs),
(30,23,ls),
(22,22,o),
(17,17,o),
(17,11,cs),
(17,5,o),
(23,0,o),
(31,0,cs)
);
}
);
width = 519;
}
);
unicode = 107;
},
{
glyphname = l;
kernLeft = h;
kernRight = l;
lastChange = "2022-09-01 20:39:59 +0000";
layers = (
{
anchors = (
{
name = bottom;
pos = (110,0);
},
{
name = center;
pos = (110,370);
},
{
name = top;
pos = (85,710);
},
{
name = topright;
pos = (173,740);
}
);
background = {
shapes = (
{
closed = 1;
nodes = (
(237,0,l),
(237,21,l),
(202,26,ls),
(170,31,o),
(163,39,o),
(163,67,cs),
(163,740,l),
(140,740,l),
(112,722,o),
(74,707,o),
(20,698,c),
(20,678,l),
(56,673,ls),
(78,670,o),
(85,664,o),
(85,640,cs),
(85,67,ls),
(85,39,o),
(78,29,o),
(46,25,cs),
(12,21,l),
(12,0,l)
);
}
);
};
layerId = m01;
shapes = (
{
closed = 1;
nodes = (
(228,0,ls),
(236,0,o),
(241,4,o),
(241,11,cs),
(241,18,o),
(237,22,o),
(229,23,cs),
(202,26,ls),
(170,30,o),
(163,39,o),
(163,67,cs),
(163,724,ls),
(163,735,o),
(159,740,o),
(151,740,cs),
(144,740,o),
(136,737,o),
(123,730,cs),
(103,719,o),
(72,708,o),
(30,700,cs),
(22,699,o),
(17,694,o),
(17,688,cs),
(17,682,o),
(22,677,o),
(30,676,cs),
(56,673,ls),
(78,671,o),
(85,664,o),
(85,640,cs),
(85,67,ls),
(85,39,o),
(70,29,o),
(38,25,cs),
(22,23,ls),
(14,22,o),
(9,17,o),
(9,11,cs),
(9,5,o),
(15,0,o),
(23,0,cs)
);
}
);
width = 253;
}
);
unicode = 108;
},
{
glyphname = lslash;
kernLeft = h;
kernRight = l;
lastChange = "2022-08-23 20:01:07 +0000";
layers = (
{
layerId = m01;
shapes = (
{
pos = (26,0);
ref = l;
},
{
closed = 1;
nodes = (
(158,383,l),
(17,307,ls),
(12,304,o),
(10,298,o),
(14,293,cs),
(20,286,ls),
(23,281,o),
(29,280,o),
(34,283,cs),
(158,350,l)
);
},
{
closed = 1;
nodes = (
(158,353,l),
(304,432,ls),
(309,435,o),
(310,441,o),
(307,446,cs),
(301,453,ls),
(298,458,o),
(292,459,o),
(286,456,cs),
(158,386,l)
);
}
);
width = 321;
}
);
unicode = 322;
},
{
glyphname = m;
kernLeft = n;
kernRight = n;
lastChange = "2022-09-01 19:49:06 +0000";
layers = (
{
background = {
shapes = (
{
closed = 1;
nodes = (
(163,335,l),
(163,408,o),
(220,470,o),
(289,470,cs),
(335,470,o),
(363,446,o),
(363,381,cs),
(363,67,ls),
(363,39,o),
(356,29,o),
(324,25,cs),
(308,23,ls),
(300,22,o),
(296,17,o),
(296,11,cs),
(296,5,o),
(300,0,o),
(312,0,cs),
(507,0,ls),
(515,0,o),
(521,4,o),
(521,11,cs),
(521,18,o),
(516,22,o),
(508,23,cs),
(483,26,ls),
(448,30,o),
(442,39,o),
(442,67,cs),
(442,392,ls),
(442,473,o),
(397,516,o),
(332,516,cs),
(285,516,o),
(244,500,o),
(192,459,cs),
(163,436,l),
(153,436,l)
);
},
{
closed = 1;
nodes = (
(229,0,ls),
(240,0,o),
(246,4,o),
(246,12,cs),
(246,18,o),
(241,22,o),
(233,23,cs),
(202,26,ls),
(170,29,o),
(163,39,o),
(163,67,cs),
(163,425,l),
(158,425,l),
(158,501,ls),
(158,509,o),
(154,513,o),
(147,513,cs),
(141,513,o),
(137,510,o),
(130,504,cs),
(102,482,o),
(83,467,o),
(36,461,cs),
(23,459,o),
(17,456,o),
(17,450,cs),
(17,444,o),
(21,440,o),
(32,439,cs),
(56,436,ls),
(78,433,o),
(85,427,o),
(85,403,cs),
(85,67,ls),
(85,39,o),
(78,30,o),
(46,25,cs),
(32,23,ls),
(22,21,o),
(17,17,o),
(17,11,cs),
(17,4,o),
(23,0,o),
(34,0,cs)
);
},
{
closed = 1;
nodes = (
(442,335,l),
(442,408,o),
(498,470,o),
(567,470,cs),
(613,470,o),
(642,446,o),
(642,381,cs),
(642,67,ls),
(642,39,o),
(635,29,o),
(599,25,cs),
(583,23,ls),
(575,22,o),
(570,17,o),
(570,11,cs),
(570,5,o),
(575,0,o),
(586,0,cs),
(783,0,ls),
(791,0,o),
(797,4,o),
(797,11,cs),
(797,18,o),
(792,22,o),
(784,23,cs),
(759,26,ls),
(727,30,o),
(720,39,o),
(720,67,cs),
(720,392,ls),
(720,473,o),
(675,516,o),
(611,516,cs),
(564,516,o),
(522,500,o),
(470,459,cs),
(442,436,l),
(431,436,l)
);
}
);
};
layerId = m01;
shapes = (
{
closed = 1;
nodes = (
(229,0,ls),
(240,0,o),
(246,4,o),
(246,12,cs),
(246,18,o),
(241,22,o),
(233,23,cs),
(202,26,ls),
(170,29,o),
(163,39,o),
(163,67,cs),
(163,335,ls),
(163,408,o),
(220,470,o),
(289,470,cs),
(335,470,o),
(363,446,o),
(363,381,cs),
(363,67,ls),
(363,39,o),
(356,29,o),
(324,25,cs),
(308,23,ls),
(300,22,o),
(296,17,o),
(296,11,cs),
(296,5,o),
(300,0,o),
(312,0,cs),
(507,0,ls),
(515,0,o),
(521,4,o),
(521,11,cs),
(521,18,o),
(516,22,o),
(508,23,cs),
(483,26,ls),
(448,30,o),
(442,39,o),
(442,67,cs),
(442,335,ls),
(442,408,o),
(498,470,o),
(567,470,cs),
(613,470,o),
(642,446,o),
(642,381,cs),
(642,67,ls),
(642,39,o),
(635,29,o),
(599,25,cs),
(583,23,ls),
(575,22,o),
(570,17,o),
(570,11,cs),
(570,5,o),
(575,0,o),
(586,0,cs),
(783,0,ls),
(791,0,o),
(797,4,o),
(797,11,cs),
(797,18,o),
(792,22,o),
(784,23,cs),
(759,26,ls),
(727,30,o),
(720,39,o),
(720,67,cs),
(720,392,ls),
(720,473,o),
(675,516,o),
(611,516,cs),
(564,516,o),
(521,501,o),
(459,450,cs),
(447,440,o),
(435,443,o),
(430,454,cs),
(413,495,o),
(377,516,o),
(332,516,cs),
(285,516,o),
(243,501,o),
(179,449,cs),
(168,439,o),
(158,446,o),
(158,456,cs),
(158,501,ls),
(158,509,o),
(154,513,o),
(147,513,cs),
(141,513,o),
(137,510,o),
(130,504,cs),
(102,482,o),
(83,467,o),
(36,461,cs),
(23,459,o),
(17,456,o),
(17,450,cs),
(17,444,o),
(21,440,o),
(32,439,cs),
(56,436,ls),
(78,433,o),
(85,427,o),
(85,403,cs),
(85,67,ls),
(85,39,o),
(78,30,o),
(46,25,cs),
(32,23,ls),
(22,21,o),
(17,17,o),
(17,11,cs),
(17,4,o),
(23,0,o),
(34,0,cs)
);
}
);
width = 810;
}
);
metricRight = n;
unicode = 109;
},
{
glyphname = n;
kernLeft = n;
kernRight = n;
lastChange = "2022-08-31 18:09:38 +0000";
layers = (
{
anchors = (
{
name = bottom;
pos = (235,0);
},
{
name = top;
pos = (235,510);
}
);
background = {
shapes = (
{
closed = 1;
nodes = (
(163,335,l),
(163,408,o),
(220,470,o),
(293,470,cs),
(344,470,o),
(373,446,o),
(373,381,cs),
(373,67,ls),
(373,39,o),
(366,29,o),
(334,25,cs),
(317,23,ls),
(309,22,o),
(305,17,o),
(305,11,cs),
(305,5,o),
(309,0,o),
(321,0,cs),
(514,0,ls),
(522,0,o),
(528,4,o),
(528,11,cs),
(528,18,o),
(523,22,o),
(515,23,cs),
(490,26,ls),
(458,30,o),
(451,39,o),
(451,67,cs),
(451,392,ls),
(451,473,o),
(406,516,o),
(337,516,cs),
(285,516,o),
(244,500,o),
(192,459,cs),
(163,436,l),
(153,436,l)
);
},
{
closed = 1;
nodes = (
(229,0,ls),
(240,0,o),
(246,4,o),
(246,12,cs),
(246,18,o),
(241,22,o),
(233,23,cs),
(202,26,ls),
(170,29,o),
(163,39,o),
(163,67,cs),
(163,425,l),
(158,425,l),
(158,501,ls),
(158,509,o),
(154,513,o),
(147,513,cs),
(141,513,o),
(137,510,o),
(130,504,cs),
(102,482,o),
(83,467,o),
(36,461,cs),
(23,459,o),
(17,456,o),
(17,450,cs),
(17,444,o),
(21,440,o),
(32,439,cs),
(56,436,ls),
(78,433,o),
(85,427,o),
(85,403,cs),
(85,67,ls),
(85,39,o),
(78,30,o),
(46,25,cs),
(32,23,ls),
(22,21,o),
(17,17,o),
(17,11,cs),
(17,4,o),
(23,0,o),
(34,0,cs)
);
}
);
};
layerId = m01;
shapes = (
{
closed = 1;
nodes = (
(229,0,ls),
(240,0,o),
(246,4,o),
(246,12,cs),
(246,18,o),
(241,22,o),
(233,23,cs),
(202,26,ls),
(170,29,o),
(163,39,o),
(163,67,cs),
(163,335,ls),
(163,408,o),
(220,470,o),
(293,470,cs),
(344,470,o),
(373,446,o),
(373,381,cs),
(373,67,ls),
(373,39,o),
(366,29,o),
(334,25,cs),
(317,23,ls),
(309,22,o),
(305,17,o),
(305,11,cs),
(305,5,o),
(309,0,o),
(321,0,cs),
(514,0,ls),
(522,0,o),
(528,4,o),
(528,11,cs),
(528,18,o),
(523,22,o),
(515,23,cs),
(490,26,ls),
(458,30,o),
(451,39,o),
(451,67,cs),
(451,392,ls),
(451,473,o),
(406,516,o),
(337,516,cs),
(285,516,o),
(243,501,o),
(182,450,cs),
(169,439,o),
(158,444,o),
(158,456,cs),
(158,501,ls),
(158,509,o),
(154,513,o),
(147,513,cs),
(141,513,o),
(137,510,o),
(130,504,cs),
(102,482,o),
(83,467,o),
(36,461,cs),
(23,459,o),
(17,456,o),
(17,450,cs),
(17,444,o),
(21,440,o),
(32,439,cs),
(56,436,ls),
(78,433,o),
(85,427,o),
(85,403,cs),
(85,67,ls),
(85,39,o),
(78,30,o),
(46,25,cs),
(32,23,ls),
(22,21,o),
(17,17,o),
(17,11,cs),
(17,4,o),
(23,0,o),
(34,0,cs)
);
}
);
width = 540;
}
);
unicode = 110;
},
{
glyphname = eng;
kernLeft = n;
kernRight = j;
lastChange = "2022-08-23 20:01:41 +0000";
layers = (
{
layerId = m01;
shapes = (
{
closed = 1;
nodes = (
(386,-215,o),
(451,-116,o),
(451,44,cs),
(451,392,ls),
(451,473,o),
(406,516,o),
(337,516,cs),
(285,516,o),
(243,501,o),
(182,450,cs),
(169,439,o),
(158,444,o),
(158,456,cs),
(158,501,ls),
(158,509,o),
(154,513,o),
(147,513,cs),
(141,513,o),
(137,510,o),
(130,504,cs),
(102,482,o),
(83,467,o),
(36,461,cs),
(23,459,o),
(17,456,o),
(17,450,cs),
(17,444,o),
(21,440,o),
(32,439,cs),
(56,436,ls),
(78,433,o),
(85,427,o),
(85,403,cs),
(85,67,ls),
(85,39,o),
(78,30,o),
(46,25,cs),
(32,23,ls),
(22,21,o),
(17,17,o),
(17,11,cs),
(17,4,o),
(23,0,o),
(34,0,cs),
(229,0,ls),
(240,0,o),
(246,4,o),
(246,12,cs),
(246,18,o),
(241,22,o),
(233,23,cs),
(202,26,ls),
(170,29,o),
(163,39,o),
(163,67,cs),
(163,335,ls),
(163,408,o),
(220,470,o),
(293,470,cs),
(344,470,o),
(373,446,o),
(373,381,cs),
(373,-91,ls),
(373,-144,o),
(356,-175,o),
(328,-175,cs),
(286,-175,o),
(302,-119,o),
(254,-119,cs),
(227,-119,o),
(209,-138,o),
(209,-161,cs),
(209,-193,o),
(241,-215,o),
(286,-215,cs)
);
}
);
width = 529;
}
);
unicode = 331;
},
{
glyphname = o;
kernLeft = o;
kernRight = o;
lastChange = "2022-08-31 20:21:46 +0000";
layers = (
{
anchors = (
{
name = bottom;
pos = (204,0);
},
{
name = center;
pos = (204,255);
},
{
name = ogonek;
pos = (367,10);
},
{
name = top;
pos = (204,510);
},
{
name = topright;
pos = (388,510);
}
);
background = {
shapes = (
{
closed = 1;
nodes = (
(360,-9,o),
(455,104,o),
(455,254,cs),
(455,403,o),
(359,516,o),
(232,516,cs),
(106,516,o),
(9,403,o),
(9,254,cs),
(9,104,o),
(105,-9,o),
(232,-9,cs)
);
},
{
closed = 1;
nodes = (
(145,16,o),
(94,106,o),
(94,254,cs),
(94,400,o),
(146,491,o),
(232,491,cs),
(319,491,o),
(370,400,o),
(370,254,cs),
(370,106,o),
(320,16,o),
(232,16,cs)
);
}
);
};
layerId = m01;
shapes = (
{
closed = 1;
nodes = (
(351,-9,o),
(440,105,o),
(440,254,cs),
(440,401,o),
(350,516,o),
(233,516,cs),
(117,516,o),
(26,401,o),
(26,254,cs),
(26,105,o),
(116,-9,o),
(233,-9,cs)
);
},
{
closed = 1;
nodes = (
(152,16,o),
(114,95,o),
(114,254,cs),
(114,411,o),
(153,491,o),
(233,491,cs),
(314,491,o),
(353,411,o),
(353,254,cs),
(353,95,o),
(315,16,o),
(233,16,cs)
);
}
);
width = 469;
}
);
unicode = 111;
},
{
glyphname = oslash;
kernLeft = o;
kernRight = o;
lastChange = "2022-08-23 20:01:47 +0000";
layers = (
{
layerId = m01;
shapes = (
{
ref = o;
},
{
closed = 1;
nodes = (
(91,-50,ls),
(97,-50,o),
(101,-48,o),
(103,-42,cs),
(393,548,ls),
(397,555,o),
(392,560,o),
(384,560,cs),
(376,560,ls),
(370,560,o),
(366,558,o),
(363,552,cs),
(74,-38,ls),
(70,-45,o),
(75,-50,o),
(83,-50,cs)
);
}
);
width = 469;
}
);
unicode = 248;
},
{
glyphname = oe;
kernLeft = o;
kernRight = e;
lastChange = "2022-08-23 20:01:51 +0000";
layers = (
{
layerId = m01;
shapes = (
{
closed = 1;
nodes = (
(351,-9,o),
(429,105,o),
(429,254,cs),
(429,401,o),
(350,516,o),
(233,516,cs),
(117,516,o),
(26,401,o),
(26,254,cs),
(26,105,o),
(116,-9,o),
(233,-9,cs)
);
},
{
closed = 1;
nodes = (
(152,16,o),
(114,95,o),
(114,254,cs),
(114,411,o),
(153,491,o),
(233,491,cs),
(314,491,o),
(353,411,o),
(353,254,cs),
(353,95,o),
(315,16,o),
(233,16,cs)
);
},
{
closed = 1;
nodes = (
(623,-9,o),
(678,32,o),
(704,151,cs),
(706,163,o),
(703,171,o),
(693,171,cs),
(685,171,o),
(681,167,o),
(678,160,cs),
(656,74,o),
(621,42,o),
(562,42,cs),
(489,42,o),
(436,113,o),
(436,254,cs),
(436,270,o),
(444,277,o),
(459,277,cs),
(677,277,ls),
(697,277,o),
(706,289,o),
(706,310,cs),
(706,455,o),
(644,516,o),
(554,516,cs),
(440,516,o),
(353,406,o),
(353,249,cs),
(353,94,o),
(437,-9,o),
(547,-9,cs)
);
},
{
closed = 1;
nodes = (
(444,302,o),
(437,308,o),
(438,318,cs),
(450,428,o),
(493,491,o),
(553,491,cs),
(601,491,o),
(627,439,o),
(627,352,cs),
(627,317,o),
(610,302,o),
(572,302,cs),
(455,302,ls)
);
}
);
width = 735;
}
);
metricRight = e;
unicode = 339;
},
{
glyphname = p;
kernLeft = n;
kernRight = o;
lastChange = "2022-08-31 17:39:19 +0000";
layers = (
{
background = {
shapes = (
{
closed = 1;
nodes = (
(239,-205,ls),
(251,-205,o),
(256,-201,o),
(256,-193,cs),
(256,-187,o),
(252,-183,o),
(244,-182,cs),
(201,-177,ls),
(169,-173,o),
(162,-166,o),
(162,-138,cs),
(162,439,l),
(156,439,l),
(156,501,ls),
(156,509,o),
(153,513,o),
(146,513,cs),
(140,513,o),
(136,510,o),
(129,504,cs),
(101,482,o),
(82,467,o),
(34,461,cs),
(22,459,o),
(16,456,o),
(16,450,cs),
(16,444,o),
(20,440,o),
(31,439,cs),
(55,436,ls),
(77,433,o),
(84,427,o),
(84,403,cs),
(84,-138,ls),
(84,-166,o),
(77,-176,o),
(45,-180,cs),
(29,-182,ls),
(18,-183,o),
(14,-188,o),
(14,-194,cs),
(14,-201,o),
(20,-205,o),
(31,-205,cs)
);
},
{
closed = 1;
nodes = (
(378,-9,o),
(476,107,o),
(476,274,cs),
(476,419,o),
(400,516,o),
(294,516,cs),
(253,516,o),
(222,503,o),
(192,477,cs),
(162,450,l),
(152,450,l),
(162,365,l),
(162,432,o),
(206,471,o),
(259,471,cs),
(343,471,o),
(391,397,o),
(391,260,cs),
(391,110,o),
(334,16,o),
(247,16,cs),
(197,16,o),
(162,53,o),
(162,113,c),
(118,27,l),
(136,27,l),
(170,2,o),
(206,-9,o),
(244,-9,cs)
);
}
);
};
layerId = m01;
shapes = (
{
closed = 1;
nodes = (
(239,-205,ls),
(251,-205,o),
(256,-201,o),
(256,-193,cs),
(256,-187,o),
(252,-183,o),
(244,-182,cs),
(201,-177,ls),
(169,-173,o),
(162,-166,o),
(162,-138,cs),
(162,-9,ls),
(162,2,o),
(170,7,o),
(183,2,cs),
(202,-6,o),
(222,-9,o),
(244,-9,cs),
(378,-9,o),
(476,107,o),
(476,274,cs),
(476,419,o),
(400,516,o),
(294,516,cs),
(253,516,o),
(222,503,o),
(192,477,cs),
(179,466,ls),
(167,455,o),
(156,460,o),
(156,470,cs),
(156,501,ls),
(156,509,o),
(153,513,o),
(146,513,cs),
(140,513,o),
(136,510,o),
(129,504,cs),
(101,482,o),
(82,467,o),
(34,461,cs),
(22,459,o),
(16,456,o),
(16,450,cs),
(16,444,o),
(20,440,o),
(31,439,cs),
(55,436,ls),
(77,433,o),
(84,427,o),
(84,403,cs),
(84,-138,ls),
(84,-166,o),
(77,-176,o),
(45,-180,cs),
(29,-182,ls),
(18,-183,o),
(14,-188,o),
(14,-194,cs),
(14,-201,o),
(20,-205,o),
(31,-205,cs)
);
},
{
closed = 1;
nodes = (
(197,16,o),
(162,53,o),
(162,113,cs),
(162,365,ls),
(162,432,o),
(206,471,o),
(259,471,cs),
(343,471,o),
(391,397,o),
(391,260,cs),
(391,110,o),
(334,16,o),
(247,16,cs)
);
}
);
width = 511;
}
);
unicode = 112;
},
{
glyphname = thorn;
kernLeft = h;
kernRight = o;
lastChange = "2022-08-23 20:02:04 +0000";
layers = (
{
layerId = m01;
shapes = (
{
closed = 1;
nodes = (
(239,-205,ls),
(251,-205,o),
(256,-201,o),
(256,-193,cs),
(256,-187,o),
(252,-183,o),
(244,-182,cs),
(201,-177,ls),
(169,-173,o),
(162,-166,o),
(162,-138,cs),
(162,-9,ls),
(162,2,o),
(170,7,o),
(183,2,cs),
(202,-6,o),
(222,-9,o),
(244,-9,cs),
(378,-9,o),
(476,107,o),
(476,274,cs),
(476,419,o),
(400,516,o),
(294,516,cs),
(253,516,o),
(222,503,o),
(192,477,cs),
(179,466,ls),
(167,455,o),
(156,460,o),
(156,470,cs),
(156,724,ls),
(156,735,o),
(152,740,o),
(144,740,cs),
(137,740,o),
(129,737,o),
(116,730,cs),
(97,719,o),
(68,708,o),
(25,700,cs),
(17,699,o),
(13,694,o),
(13,688,cs),
(13,682,o),
(17,677,o),
(25,676,cs),
(49,673,ls),
(71,670,o),
(84,664,o),
(84,640,cs),
(84,-138,ls),
(84,-166,o),
(77,-176,o),
(45,-180,cs),
(29,-182,ls),
(18,-183,o),
(14,-188,o),
(14,-194,cs),
(14,-201,o),
(20,-205,o),
(31,-205,cs)
);
},
{
closed = 1;
nodes = (
(197,16,o),
(162,53,o),
(162,113,cs),
(162,365,ls),
(162,432,o),
(206,471,o),
(259,471,cs),
(343,471,o),
(391,397,o),
(391,260,cs),
(391,110,o),
(334,16,o),
(247,16,cs)
);
}
);
width = 511;
}
);
unicode = 254;
},
{
glyphname = q;
kernLeft = o;
lastChange = "2022-09-01 20:20:31 +0000";
layers = (
{
background = {
shapes = (
{
closed = 1;
nodes = (
(256,-9,o),
(286,6,o),
(322,47,cs),
(343,71,l),
(353,71,l),
(348,169,l),
(348,95,o),
(292,37,o),
(233,37,cs),
(162,37,o),
(120,110,o),
(120,247,cs),
(120,397,o),
(177,491,o),
(263,491,cs),
(314,491,o),
(348,454,o),
(348,394,c),
(392,480,l),
(375,480,l),
(340,505,o),
(305,516,o),
(267,516,cs),
(132,516,o),
(34,400,o),
(34,233,cs),
(34,88,o),
(106,-9,o),
(208,-9,cs)
);
},
{
closed = 1;
nodes = (
(480,-205,ls),
(491,-205,o),
(497,-201,o),
(497,-194,cs),
(497,-188,o),
(492,-183,o),
(482,-182,cs),
(466,-180,ls),
(434,-176,o),
(427,-166,o),
(427,-138,cs),
(427,347,ls),
(427,427,o),
(430,472,o),
(436,502,cs),
(438,511,o),
(431,516,o),
(424,516,cs),
(417,516,o),
(412,513,o),
(404,504,cs),
(348,446,l),
(348,-138,ls),
(348,-166,o),
(342,-173,o),
(309,-177,cs),
(267,-182,ls),
(259,-183,o),
(254,-187,o),
(254,-193,cs),
(254,-201,o),
(260,-205,o),
(271,-205,cs)
);
}
);
};
layerId = m01;
shapes = (
{
closed = 1;
nodes = (
(480,-205,ls),
(491,-205,o),
(497,-201,o),
(497,-194,cs),
(497,-188,o),
(492,-183,o),
(482,-182,cs),
(466,-180,ls),
(434,-176,o),
(427,-166,o),
(427,-138,cs),
(427,347,ls),
(427,427,o),
(430,472,o),
(436,502,cs),
(438,511,o),
(435,516,o),
(427,516,cs),
(420,516,o),
(413,513,o),
(398,498,cs),
(384,482,o),
(370,479,o),
(352,490,cs),
(322,508,o),
(298,516,o),
(267,516,cs),
(132,516,o),
(34,400,o),
(34,233,cs),
(34,88,o),
(106,-9,o),
(208,-9,cs),
(256,-9,o),
(286,6,o),
(324,50,cs),
(335,61,o),
(348,56,o),
(348,45,cs),
(348,-138,ls),
(348,-166,o),
(342,-173,o),
(309,-177,cs),
(267,-182,ls),
(259,-183,o),
(254,-187,o),
(254,-193,cs),
(254,-201,o),
(260,-205,o),
(271,-205,cs)
);
},
{
closed = 1;
nodes = (
(162,37,o),
(120,110,o),
(120,247,cs),
(120,397,o),
(177,491,o),
(263,491,cs),
(314,491,o),
(348,454,o),
(348,394,cs),
(348,169,ls),
(348,95,o),
(292,37,o),
(233,37,cs)
);
}
);
width = 508;
}
);
unicode = 113;
},
{
glyphname = r;
kernLeft = n;
kernRight = r;
lastChange = "2022-09-01 19:37:15 +0000";
layers = (
{
anchors = (
{
name = bottom;
pos = (109,0);
},
{
name = top;
pos = (159,510);
}
);
background = {
shapes = (
{
closed = 1;
nodes = (
(229,0,ls),
(240,0,o),
(246,4,o),
(246,12,cs),
(246,18,o),
(241,22,o),
(233,23,cs),
(202,26,ls),
(170,29,o),
(163,39,o),
(163,67,cs),
(163,415,l),
(158,415,l),
(158,501,ls),
(158,509,o),
(154,513,o),
(147,513,cs),
(141,513,o),
(137,510,o),
(130,504,cs),
(102,482,o),
(83,467,o),
(36,461,cs),
(23,459,o),
(17,456,o),
(17,450,cs),
(17,444,o),
(21,440,o),
(32,439,cs),
(56,436,ls),
(78,433,o),
(85,427,o),
(85,403,cs),
(85,67,ls),
(85,39,o),
(78,30,o),
(46,25,cs),
(32,23,ls),
(22,21,o),
(17,17,o),
(17,11,cs),
(17,4,o),
(23,0,o),
(34,0,cs)
);
},
{
closed = 1;
nodes = (
(163,390,o),
(204,460,o),
(245,460,cs),
(288,460,o),
(271,410,o),
(321,410,cs),
(351,410,o),
(366,428,o),
(366,453,cs),
(366,485,o),
(342,516,o),
(291,516,cs),
(244,516,o),
(206,489,o),
(179,448,cs),
(163,423,l),
(151,423,l),
(163,299,l)
);
}
);
};
layerId = m01;
shapes = (
{
closed = 1;
nodes = (
(169,434,o),
(158,437,o),
(158,447,cs),
(158,501,ls),
(158,509,o),
(154,513,o),
(147,513,cs),
(141,513,o),
(137,510,o),
(130,504,cs),
(102,482,o),
(83,467,o),
(36,461,cs),
(23,459,o),
(17,456,o),
(17,450,cs),
(17,444,o),
(21,440,o),
(32,439,cs),
(56,436,ls),
(78,433,o),
(85,427,o),
(85,403,cs),
(85,67,ls),
(85,39,o),
(78,30,o),
(46,25,cs),
(32,23,ls),
(22,21,o),
(17,17,o),
(17,11,cs),
(17,4,o),
(23,0,o),
(34,0,cs),
(229,0,ls),
(240,0,o),
(246,4,o),
(246,12,cs),
(246,18,o),
(241,22,o),
(233,23,cs),
(202,26,ls),
(170,29,o),
(163,39,o),
(163,67,cs),
(163,299,ls),
(163,390,o),
(204,460,o),
(245,460,cs),
(288,460,o),
(271,410,o),
(321,410,cs),
(351,410,o),
(366,428,o),
(366,453,cs),
(366,485,o),
(342,516,o),
(291,516,cs),
(246,516,o),
(208,492,o),
(177,446,cs)
);
}
);
width = 366;
}
);
unicode = 114;
},
{
glyphname = s;
kernLeft = s;
kernRight = s;
lastChange = "2022-09-01 21:00:18 +0000";
layers = (
{
anchors = (
{
name = bottom;
pos = (144,0);
},
{
name = top;
pos = (154,510);
}
);
background = {
shapes = (
{
closed = 1;
nodes = (
(253,-9,o),
(322,46,o),
(322,132,cs),
(322,197,o),
(282,252,o),
(206,300,cs),
(121,351,o),
(94,378,o),
(94,417,cs),
(94,461,o),
(126,491,o),
(171,491,cs),
(215,491,o),
(243,462,o),
(263,392,cs),
(269,372,ls),
(271,363,o),
(276,359,o),
(284,359,cs),
(292,359,o),
(297,364,o),
(297,374,cs),
(294,481,ls),
(294,489,o),
(292,493,o),
(285,497,cs),
(262,510,o),
(231,516,o),
(200,516,cs),
(101,516,o),
(32,465,o),
(32,389,cs),
(32,333,o),
(68,288,o),
(147,241,cs),
(227,191,o),
(258,155,o),
(258,102,cs),
(258,49,o),
(223,16,o),
(171,16,cs),
(121,16,o),
(85,47,o),
(66,113,cs),
(57,140,ls),
(54,150,o),
(49,153,o),
(43,153,cs),
(36,153,o),
(30,149,o),
(30,139,cs),
(36,27,ls),
(36,19,o),
(38,14,o),
(46,10,cs),
(70,-1,o),
(115,-9,o),
(151,-9,cs)
);
}
);
};
layerId = m01;
shapes = (
{
closed = 1;
nodes = (
(253,-9,o),
(322,46,o),
(322,132,cs),
(322,197,o),
(282,252,o),
(206,300,cs),
(121,351,o),
(94,378,o),
(94,425,cs),
(94,461,o),
(123,488,o),
(163,488,cs),
(207,488,o),
(235,459,o),
(266,372,cs),
(269,363,o),
(273,356,o),
(283,356,cs),
(291,356,o),
(297,361,o),
(297,371,cs),
(294,481,ls),
(294,489,o),
(291,493,o),
(284,497,cs),
(261,510,o),
(231,516,o),
(200,516,cs),
(99,516,o),
(32,465,o),
(32,389,cs),
(32,333,o),
(68,288,o),
(147,241,cs),
(227,191,o),
(258,155,o),
(258,102,cs),
(258,49,o),
(224,17,o),
(181,17,cs),
(126,17,o),
(90,45,o),
(64,140,cs),
(61,151,o),
(56,156,o),
(47,156,cs),
(38,156,o),
(32,149,o),
(32,139,cs),
(36,27,ls),
(36,19,o),
(38,14,o),
(46,10,cs),
(70,-1,o),
(115,-9,o),
(151,-9,cs)
);
}
);
width = 354;
}
);
unicode = 115;
},
{
glyphname = germandbls;
kernLeft = f;
kernRight = s;
lastChange = "2022-08-23 20:02:28 +0000";
layers = (
{
background = {
shapes = (
{
closed = 1;
nodes = (
(176,484,ls),
(176,664,o),
(215,724,o),
(293,724,cs),
(365,724,o),
(399,673,o),
(399,598,cs),
(399,519,o),
(359,499,o),
(320,484,cs),
(279,469,o),
(239,459,o),
(239,397,cs),
(239,286,o),
(442,256,o),
(442,124,cs),
(442,60,o),
(430,13,o),
(356,13,cs),
(273,13,o),
(283,173,o),
(246,173,cs),
(236,173,o),
(228,169,o),
(228,146,cs),
(228,44,ls),
(228,23,o),
(229,20,o),
(250,8,cs),
(274,-6,o),
(305,-12,o),
(339,-12,cs),
(444,-12,o),
(505,57,o),
(505,142,cs),
(505,235,o),
(451,280,o),
(398,315,cs),
(344,351,o),
(290,375,o),
(290,424,cs),
(290,464,o),
(335,468,o),
(379,483,cs),
(423,498,o),
(468,523,o),
(468,605,cs),
(468,700,o),
(399,748,o),
(300,748,cs),
(186,748,o),
(112,639,o),
(112,499,cs),
(112,472,o),
(94,456,o),
(78,450,cs),
(61,445,o),
(44,443,o),
(44,430,cs),
(44,422,o),
(47,417,o),
(76,417,cs),
(99,417,o),
(107,414,o),
(107,393,cs),
(107,85,ls),
(107,37,o),
(98,27,o),
(49,22,cs),
(39,21,o),
(34,14,o),
(34,9,cs),
(34,2,o),
(41,-4,o),
(51,-4,cs),
(64,-4,o),
(75,1,o),
(107,1,cs),
(125,1,o),
(138,-4,o),
(156,-4,cs),
(172,-4,o),
(176,0,o),
(176,19,cs)
);
}
);
};
layerId = m01;
shapes = (
{
closed = 1;
nodes = (
(437,-9,o),
(496,46,o),
(496,132,cs),
(496,197,o),
(455,252,o),
(385,294,cs),
(300,345,o),
(277,368,o),
(277,405,cs),
(277,483,o),
(452,523,o),
(452,638,cs),
(452,687,o),
(404,748,o),
(304,748,c),
(175,748,o),
(98,654,o),
(98,544,cs),
(98,521,o),
(79,506,o),
(44,503,cs),
(34,502,o),
(30,498,o),
(30,492,cs),
(30,486,o),
(36,482,o),
(44,482,cs),
(70,482,ls),
(87,482,o),
(98,473,o),
(98,458,cs),
(98,67,ls),
(98,39,o),
(91,27,o),
(59,25,cs),
(30,23,ls),
(20,22,o),
(15,17,o),
(15,11,cs),
(15,4,o),
(21,0,o),
(32,0,cs),
(153,0,ls),
(168,0,o),
(176,7,o),
(176,20,c),
(176,570,ls),
(176,672,o),
(231,717,o),
(298,717,cs),
(353,717,o),
(378,688,o),
(378,643,cs),
(378,512,o),
(227,490,o),
(227,379,cs),
(227,324,o),
(259,282,o),
(338,235,cs),
(404,196,o),
(435,155,o),
(435,102,cs),
(435,49,o),
(399,17,o),
(358,17,cs),
(307,17,o),
(284,45,o),
(259,140,cs),
(255,151,o),
(251,156,o),
(241,156,cs),
(232,156,o),
(227,149,o),
(227,139,cs),
(230,27,ls),
(230,19,o),
(232,14,o),
(240,10,cs),
(264,-1,o),
(298,-9,o),
(342,-9,cs)
);
}
);
width = 509;
}
);
metricLeft = f;
unicode = 223;
},
{
glyphname = t;
kernLeft = t;
kernRight = t;
lastChange = "2022-09-01 20:40:20 +0000";
layers = (
{
anchors = (
{
name = bottom;
pos = (150,0);
},
{
name = center;
pos = (130,255);
},
{
name = top;
pos = (130,510);
},
{
name = topright;
pos = (195,760);
}
);
background = {
shapes = (
{
closed = 1;
nodes = (
(77,490,l),
(77,96,ls),
(77,21,o),
(115,-9,o),
(169,-9,cs),
(229,-9,o),
(282,37,o),
(282,151,c),
(254,151,l),
(251,78,o),
(228,48,o),
(193,48,cs),
(164,48,o),
(155,66,o),
(155,95,cs),
(155,490,l)
);
},
{
closed = 1;
nodes = (
(101,569,o),
(71,535,o),
(12,502,c),
(12,482,l),
(262,482,l),
(262,510,l),
(155,510,l),
(155,649,l),
(130,649,l)
);
}
);
};
guides = (
{
angle = 90;
pos = (245,486);
},
{
pos = (-79,649);
}
);
layerId = m01;
shapes = (
{
closed = 1;
nodes = (
(227,-9,o),
(277,33,o),
(282,136,cs),
(282,146,o),
(276,151,o),
(268,151,cs),
(260,151,o),
(254,146,o),
(253,137,cs),
(247,74,o),
(225,48,o),
(193,48,cs),
(164,48,o),
(155,66,o),
(155,95,cs),
(155,468,ls),
(155,477,o),
(161,482,o),
(171,482,cs),
(246,482,ls),
(256,482,o),
(264,487,o),
(264,496,cs),
(264,505,o),
(256,510,o),
(246,510,cs),
(171,510,ls),
(161,510,o),
(155,515,o),
(155,524,cs),
(155,635,ls),
(155,646,o),
(152,651,o),
(143,651,cs),
(135,651,o),
(129,646,o),
(123,630,cs),
(100,569,o),
(72,538,o),
(22,508,cs),
(15,504,o),
(12,500,o),
(12,494,cs),
(12,486,o),
(18,482,o),
(30,482,cs),
(63,482,ls),
(71,482,o),
(77,477,o),
(77,470,cs),
(77,96,ls),
(77,21,o),
(115,-9,o),
(169,-9,cs)
);
}
);
width = 298;
}
);
unicode = 116;
},
{
glyphname = u;
kernLeft = u;
kernRight = u;
lastChange = "2022-09-01 20:40:25 +0000";
layers = (
{
anchors = (
{
name = bottom;
pos = (226,0);
},
{
name = ogonek;
pos = (336,0);
},
{
name = top;
pos = (216,510);
},
{
name = topright;
pos = (436,510);
}
);
background = {
shapes = (
{
closed = 1;
nodes = (
(251,-9,o),
(289,9,o),
(339,53,cs),
(359,70,l),
(369,70,l),
(359,166,l),
(359,96,o),
(305,37,o),
(235,37,cs),
(186,37,o),
(159,60,o),
(159,122,cs),
(159,501,ls),
(159,509,o),
(155,513,o),
(148,513,cs),
(143,513,o),
(138,510,o),
(131,504,cs),
(103,482,o),
(78,467,o),
(31,461,cs),
(18,459,o),
(13,456,o),
(13,449,cs),
(13,444,o),
(16,440,o),
(28,439,cs),
(52,436,ls),
(74,433,o),
(80,427,o),
(80,403,cs),
(80,101,ls),
(80,21,o),
(139,-9,o),
(197,-9,cs)
);
},
{
closed = 1;
nodes = (
(381,-5,o),
(385,-2,o),
(392,4,cs),
(414,26,o),
(439,43,o),
(486,49,cs),
(499,51,o),
(505,54,o),
(505,61,cs),
(505,66,o),
(501,70,o),
(490,71,cs),
(466,74,ls),
(444,77,o),
(437,83,o),
(437,107,cs),
(437,501,ls),
(437,509,o),
(434,513,o),
(427,513,cs),
(421,513,o),
(416,510,o),
(409,504,cs),
(382,482,o),
(356,467,o),
(309,461,cs),
(297,459,o),
(291,456,o),
(291,449,cs),
(291,444,o),
(294,440,o),
(306,439,cs),
(330,436,ls),
(352,433,o),
(359,427,o),
(359,403,cs),
(359,95,l),
(365,95,l),
(365,7,ls),
(365,-1,o),
(368,-5,o),
(375,-5,cs)
);
}
);
};
layerId = m01;
shapes = (
{
closed = 1;
nodes = (
(251,-9,o),
(289,9,o),
(345,58,cs),
(354,66,o),
(365,63,o),
(365,53,cs),
(365,7,ls),
(365,-1,o),
(368,-5,o),
(375,-5,cs),
(381,-5,o),
(385,-2,o),
(392,4,cs),
(414,26,o),
(439,43,o),
(486,49,cs),
(499,51,o),
(505,54,o),
(505,61,cs),
(505,66,o),
(501,70,o),
(490,71,cs),
(466,74,ls),
(444,77,o),
(437,83,o),
(437,107,cs),
(437,495,ls),
(437,504,o),
(430,510,o),
(420,510,cs),
(313,510,ls),
(298,510,o),
(291,504,o),
(291,497,cs),
(291,490,o),
(298,485,o),
(310,484,cs),
(330,482,ls),
(352,480,o),
(359,473,o),
(359,449,cs),
(359,166,ls),
(359,96,o),
(305,37,o),
(235,37,cs),
(186,37,o),
(159,60,o),
(159,122,cs),
(159,495,ls),
(159,504,o),
(152,510,o),
(141,510,cs),
(34,510,ls),
(20,510,o),
(13,504,o),
(13,497,cs),
(13,490,o),
(20,485,o),
(32,484,cs),
(52,482,ls),
(74,480,o),
(80,473,o),
(80,449,cs),
(80,101,ls),
(80,21,o),
(139,-9,o),
(197,-9,cs)
);
}
);
width = 522;
}
);
unicode = 117;
},
{
glyphname = v;
lastChange = "2022-09-01 20:40:32 +0000";
layers = (
{
background = {
shapes = (
{
closed = 1;
nodes = (
(229,-9,o),
(235,-7,o),
(238,2,cs),
(384,419,ls),
(399,461,o),
(414,475,o),
(437,482,cs),
(447,485,ls),
(458,488,o),
(461,493,o),
(461,499,cs),
(461,505,o),
(457,510,o),
(445,510,cs),
(299,510,ls),
(289,510,o),
(283,506,o),
(283,500,cs),
(283,493,o),
(289,489,o),
(298,487,cs),
(322,483,ls),
(360,477,o),
(362,461,o),
(350,425,cs),
(248,127,l),
(243,127,l),
(138,443,ls),
(129,472,o),
(136,481,o),
(172,485,cs),
(191,487,ls),
(200,488,o),
(206,493,o),
(206,500,cs),
(206,506,o),
(200,510,o),
(190,510,cs),
(0,510,ls),
(-9,510,o),
(-14,506,o),
(-14,500,cs),
(-14,493,o),
(-10,489,o),
(-1,487,cs),
(16,484,ls),
(37,480,o),
(44,475,o),
(55,443,cs),
(208,2,ls),
(212,-7,o),
(217,-9,o),
(223,-9,cs)
);
}
);
};
layerId = m01;
shapes = (
{
closed = 1;
nodes = (
(229,-9,o),
(235,-7,o),
(238,2,cs),
(384,419,ls),
(399,461,o),
(414,475,o),
(437,482,cs),
(447,485,ls),
(458,488,o),
(461,493,o),
(461,499,cs),
(461,505,o),
(457,510,o),
(445,510,cs),
(299,510,ls),
(289,510,o),
(283,506,o),
(283,500,cs),
(283,493,o),
(289,489,o),
(298,487,cs),
(322,483,ls),
(360,477,o),
(362,461,o),
(350,425,cs),
(256,154,ls),
(252,139,o),
(238,139,o),
(233,154,cs),
(138,443,ls),
(129,472,o),
(136,481,o),
(172,485,cs),
(191,487,ls),
(200,488,o),
(206,493,o),
(206,500,cs),
(206,506,o),
(200,510,o),
(190,510,cs),
(0,510,ls),
(-9,510,o),
(-14,506,o),
(-14,500,cs),
(-14,493,o),
(-10,489,o),
(-1,487,cs),
(16,484,ls),
(37,480,o),
(44,475,o),
(55,443,cs),
(208,2,ls),
(212,-7,o),
(217,-9,o),
(223,-9,cs)
);
}
);
width = 452;
}
);
unicode = 118;
},
{
glyphname = w;
kernLeft = w;
kernRight = w;
lastChange = "2022-09-01 20:49:11 +0000";
layers = (
{
anchors = (
{
name = bottom;
pos = (299,0);
},
{
name = top;
pos = (311,510);
}
);
background = {
shapes = (
{
closed = 1;
nodes = (
(224,-9,o),
(231,-4,o),
(236,11,cs),
(369,447,l),
(338,453,l),
(239,127,l),
(233,127,l),
(135,443,ls),
(125,472,o),
(132,481,o),
(169,485,cs),
(187,487,ls),
(197,488,o),
(202,493,o),
(202,500,cs),
(202,506,o),
(197,510,o),
(186,510,cs),
(0,510,ls),
(-9,510,o),
(-14,506,o),
(-14,500,cs),
(-14,493,o),
(-10,489,o),
(-1,487,cs),
(16,484,ls),
(37,480,o),
(45,475,o),
(55,443,cs),
(194,11,ls),
(199,-4,o),
(206,-9,o),
(215,-9,cs)
);
},
{
closed = 1;
nodes = (
(476,-9,o),
(483,-4,o),
(488,11,cs),
(619,419,ls),
(632,461,o),
(649,475,o),
(672,482,cs),
(682,485,ls),
(692,488,o),
(696,493,o),
(696,499,cs),
(696,505,o),
(691,510,o),
(680,510,cs),
(536,510,ls),
(526,510,o),
(520,506,o),
(520,500,cs),
(520,493,o),
(526,489,o),
(535,487,cs),
(559,483,ls),
(597,477,o),
(598,461,o),
(586,425,cs),
(491,127,l),
(485,127,l),
(405,443,ls),
(398,472,o),
(402,481,o),
(439,485,cs),
(458,487,ls),
(467,488,o),
(473,493,o),
(473,500,cs),
(473,506,o),
(467,510,o),
(457,510,cs),
(270,510,ls),
(260,510,o),
(254,506,o),
(254,500,cs),
(254,493,o),
(259,489,o),
(269,487,cs),
(286,484,ls),
(307,480,o),
(316,475,o),
(325,443,cs),
(446,11,ls),
(451,-4,o),
(458,-9,o),
(466,-9,cs)
);
}
);
};
layerId = m01;
shapes = (
{
closed = 1;
nodes = (
(224,-9,o),
(231,-4,o),
(236,11,cs),
(335,331,ls),
(339,347,o),
(352,346,o),
(356,331,cs),
(446,11,ls),
(451,-4,o),
(458,-9,o),
(466,-9,cs),
(476,-9,o),
(483,-4,o),
(488,11,cs),
(619,419,ls),
(632,461,o),
(649,475,o),
(672,482,cs),
(682,485,ls),
(692,488,o),
(696,493,o),
(696,499,cs),
(696,505,o),
(691,510,o),
(680,510,cs),
(536,510,ls),
(526,510,o),
(520,506,o),
(520,500,cs),
(520,493,o),
(526,489,o),
(535,487,cs),
(559,483,ls),
(597,477,o),
(598,461,o),
(586,425,cs),
(499,154,ls),
(494,140,o),
(482,141,o),
(478,154,cs),
(405,443,ls),
(398,472,o),
(402,481,o),
(439,485,cs),
(458,487,ls),
(467,488,o),
(473,493,o),
(473,500,cs),
(473,506,o),
(467,510,o),
(457,510,cs),
(270,510,ls),
(260,510,o),
(254,506,o),
(254,500,cs),
(254,493,o),
(259,489,o),
(269,487,cs),
(286,484,ls),
(308,480,o),
(314,476,o),
(325,444,cs),
(330,432,o),
(329,422,o),
(325,411,cs),
(247,152,ls),
(243,138,o),
(230,138,o),
(225,152,cs),
(135,443,ls),
(125,472,o),
(132,481,o),
(169,485,cs),
(187,487,ls),
(197,488,o),
(202,493,o),
(202,500,cs),
(202,506,o),
(197,510,o),
(186,510,cs),
(0,510,ls),
(-9,510,o),
(-14,506,o),
(-14,500,cs),
(-14,493,o),
(-10,489,o),
(-1,487,cs),
(16,484,ls),
(37,480,o),
(45,475,o),
(55,443,cs),
(194,11,ls),
(199,-4,o),
(206,-9,o),
(215,-9,cs)
);
}
);
width = 687;
}
);
unicode = 119;
},
{
glyphname = x;
lastChange = "2022-09-01 20:49:22 +0000";
layers = (
{
background = {
shapes = (
{
closed = 1;
nodes = (
(431,0,ls),
(442,0,o),
(447,4,o),
(447,10,cs),
(447,17,o),
(443,21,o),
(432,23,cs),
(415,26,ls),
(400,29,o),
(392,35,o),
(374,67,cs),
(150,451,ls),
(139,468,o),
(147,480,o),
(168,484,cs),
(185,487,ls),
(194,489,o),
(200,493,o),
(200,500,cs),
(200,506,o),
(194,510,o),
(184,510,cs),
(14,510,ls),
(3,510,o),
(-2,506,o),
(-2,500,cs),
(-2,493,o),
(2,489,o),
(13,487,cs),
(30,484,ls),
(45,481,o),
(54,473,o),
(71,443,cs),
(296,59,ls),
(306,42,o),
(298,30,o),
(277,26,cs),
(260,23,ls),
(251,21,o),
(245,17,o),
(245,10,cs),
(245,4,o),
(251,0,o),
(261,0,cs)
);
},
{
closed = 1;
nodes = (
(154,0,ls),
(164,0,o),
(170,4,o),
(170,10,cs),
(170,17,o),
(166,21,o),
(155,23,cs),
(125,29,ls),
(105,33,o),
(100,48,o),
(117,77,cs),
(200,213,l),
(216,213,l),
(179,258,l),
(186,246,o),
(186,239,o),
(178,227,cs),
(93,91,ls),
(62,41,o),
(47,34,o),
(18,28,cs),
(5,25,ls),
(-5,23,o),
(-8,17,o),
(-8,11,cs),
(-8,5,o),
(-4,0,o),
(7,0,cs)
);
},
{
closed = 1;
nodes = (
(254,272,o),
(254,279,o),
(262,291,cs),
(342,419,ls),
(373,469,o),
(388,476,o),
(416,482,cs),
(430,485,ls),
(440,487,o),
(444,493,o),
(444,499,cs),
(444,505,o),
(439,510,o),
(428,510,cs),
(281,510,ls),
(270,510,o),
(264,506,o),
(264,500,cs),
(264,493,o),
(269,489,o),
(279,487,cs),
(309,481,ls),
(330,477,o),
(335,462,o),
(317,433,cs),
(240,306,l),
(223,306,l),
(261,260,l)
);
}
);
};
layerId = m01;
shapes = (
{
closed = 1;
nodes = (
(431,0,ls),
(442,0,o),
(447,4,o),
(447,10,cs),
(447,17,o),
(443,21,o),
(432,23,cs),
(415,26,ls),
(400,29,o),
(392,35,o),
(374,67,cs),
(261,260,ls),
(254,272,o),
(254,279,o),
(262,291,cs),
(342,419,ls),
(373,469,o),
(388,476,o),
(416,482,cs),
(430,485,ls),
(440,487,o),
(444,493,o),
(444,499,cs),
(444,505,o),
(439,510,o),
(428,510,cs),
(281,510,ls),
(270,510,o),
(264,506,o),
(264,500,cs),
(264,493,o),
(269,489,o),
(279,487,cs),
(309,481,ls),
(330,477,o),
(335,462,o),
(317,433,cs),
(248,319,ls),
(243,310,o),
(233,310,o),
(228,319,cs),
(150,451,ls),
(139,468,o),
(147,480,o),
(168,484,cs),
(185,487,ls),
(194,489,o),
(200,493,o),
(200,500,cs),
(200,506,o),
(194,510,o),
(184,510,cs),
(14,510,ls),
(3,510,o),
(-2,506,o),
(-2,500,cs),
(-2,493,o),
(2,489,o),
(13,487,cs),
(30,484,ls),
(45,481,o),
(54,473,o),
(71,443,cs),
(181,256,ls),
(186,245,o),
(185,238,o),
(178,227,cs),
(93,91,ls),
(62,41,o),
(47,34,o),
(18,28,cs),
(5,25,ls),
(-5,23,o),
(-8,17,o),
(-8,11,cs),
(-8,5,o),
(-4,0,o),
(7,0,cs),
(154,0,ls),
(164,0,o),
(170,4,o),
(170,10,cs),
(170,17,o),
(166,21,o),
(155,23,cs),
(125,29,ls),
(105,33,o),
(100,48,o),
(117,77,cs),
(192,199,ls),
(198,209,o),
(208,208,o),
(214,199,cs),
(296,59,ls),
(306,42,o),
(298,30,o),
(277,26,cs),
(260,23,ls),
(251,21,o),
(245,17,o),
(245,10,cs),
(245,4,o),
(251,0,o),
(261,0,cs)
);
}
);
width = 443;
}
);
unicode = 120;
},
{
glyphname = y;
kernLeft = y;
kernRight = y;
lastChange = "2022-09-01 20:21:06 +0000";
layers = (
{
anchors = (
{
name = bottom;
pos = (201,0);
},
{
name = top;
pos = (201,510);
}
);
background = {
shapes = (
{
closed = 1;
nodes = (
(143,-205,o),
(171,-187,o),
(222,-46,cs),
(393,419,ls),
(409,461,o),
(423,475,o),
(446,482,cs),
(457,485,ls),
(467,488,o),
(470,493,o),
(470,499,cs),
(470,505,o),
(466,510,o),
(454,510,cs),
(308,510,ls),
(298,510,o),
(292,506,o),
(292,500,cs),
(292,493,o),
(298,489,o),
(307,487,cs),
(331,483,ls),
(369,477,o),
(371,461,o),
(359,425,cs),
(253,127,l),
(247,127,l),
(138,443,ls),
(128,472,o),
(136,481,o),
(172,485,cs),
(191,487,ls),
(200,488,o),
(206,493,o),
(206,500,cs),
(206,506,o),
(200,510,o),
(190,510,cs),
(0,510,ls),
(-9,510,o),
(-14,506,o),
(-14,500,cs),
(-14,493,o),
(-10,489,o),
(-1,487,cs),
(16,484,ls),
(37,480,o),
(44,475,o),
(55,443,cs),
(181,96,ls),
(207,23,o),
(207,-5,o),
(185,-64,cs),
(161,-131,o),
(150,-145,o),
(133,-145,cs),
(107,-145,o),
(124,-99,o),
(75,-99,cs),
(45,-99,o),
(28,-119,o),
(28,-144,cs),
(28,-176,o),
(54,-205,o),
(95,-205,cs)
);
}
);
};
layerId = m01;
shapes = (
{
closed = 1;
nodes = (
(143,-205,o),
(170,-187,o),
(222,-46,cs),
(393,419,ls),
(409,461,o),
(423,475,o),
(446,482,cs),
(457,485,ls),
(467,488,o),
(470,493,o),
(470,499,cs),
(470,505,o),
(466,510,o),
(454,510,cs),
(308,510,ls),
(298,510,o),
(292,506,o),
(292,500,cs),
(292,493,o),
(298,489,o),
(307,487,cs),
(331,483,ls),
(369,477,o),
(371,461,o),
(359,425,cs),
(261,150,ls),
(256,137,o),
(244,137,o),
(239,150,cs),
(138,443,ls),
(128,472,o),
(136,481,o),
(172,485,cs),
(191,487,ls),
(200,488,o),
(206,493,o),
(206,500,cs),
(206,506,o),
(200,510,o),
(190,510,cs),
(0,510,ls),
(-9,510,o),
(-14,506,o),
(-14,500,cs),
(-14,493,o),
(-10,489,o),
(-1,487,cs),
(16,484,ls),
(37,480,o),
(44,475,o),
(55,443,cs),
(181,96,ls),
(207,23,o),
(207,-5,o),
(185,-64,cs),
(161,-131,o),
(150,-145,o),
(133,-145,cs),
(107,-145,o),
(124,-99,o),
(75,-99,cs),
(45,-99,o),
(28,-119,o),
(28,-144,cs),
(28,-176,o),
(54,-205,o),
(95,-205,cs)
);
}
);
width = 461;
}
);
metricRight = v;
unicode = 121;
},
{
glyphname = z;
kernLeft = z;
kernRight = z;
lastChange = "2022-09-01 20:49:33 +0000";
layers = (
{
anchors = (
{
name = bottom;
pos = (177,0);
},
{
name = center;
pos = (177,255);
},
{
name = top;
pos = (203,510);
}
);
background = {
shapes = (
{
closed = 1;
nodes = (
(335,0,ls),
(348,0,o),
(356,6,o),
(359,18,cs),
(389,165,ls),
(391,175,o),
(385,182,o),
(377,182,cs),
(368,182,o),
(365,178,o),
(360,169,cs),
(325,96,ls),
(302,48,o),
(276,28,o),
(186,28,cs),
(135,28,ls),
(117,28,o),
(114,37,o),
(121,48,cs),
(376,472,ls),
(383,484,o),
(388,492,o),
(388,497,cs),
(388,504,o),
(383,510,o),
(370,510,cs),
(136,510,ls),
(92,510,o),
(107,534,o),
(86,534,cs),
(76,534,o),
(69,528,o),
(66,510,cs),
(38,374,ls),
(36,365,o),
(40,359,o),
(49,359,cs),
(57,359,o),
(62,363,o),
(67,372,cs),
(92,418,ls),
(115,460,o),
(145,482,o),
(231,482,cs),
(271,482,ls),
(286,482,o),
(292,473,o),
(285,462,cs),
(29,38,ls),
(22,26,o),
(17,18,o),
(17,13,cs),
(17,6,o),
(22,0,o),
(34,0,cs)
);
}
);
};
layerId = m01;
shapes = (
{
closed = 1;
nodes = (
(335,0,ls),
(348,0,o),
(356,6,o),
(359,18,cs),
(389,165,ls),
(391,175,o),
(385,182,o),
(377,182,cs),
(368,182,o),
(365,178,o),
(360,169,cs),
(325,96,ls),
(302,46,o),
(275,26,o),
(185,26,cs),
(133,26,ls),
(116,26,o),
(113,35,o),
(120,46,cs),
(376,472,ls),
(383,484,o),
(388,492,o),
(388,497,cs),
(388,504,o),
(383,510,o),
(370,510,cs),
(140,510,ls),
(97,510,o),
(112,534,o),
(91,534,cs),
(80,534,o),
(74,528,o),
(70,510,cs),
(43,374,ls),
(40,365,o),
(45,359,o),
(54,359,cs),
(62,359,o),
(67,363,o),
(71,372,cs),
(97,418,ls),
(120,460,o),
(150,484,o),
(224,484,cs),
(273,484,ls),
(288,484,o),
(293,475,o),
(286,464,cs),
(29,38,ls),
(22,26,o),
(17,18,o),
(17,13,cs),
(17,6,o),
(22,0,o),
(34,0,cs)
);
}
);
width = 406;
}
);
unicode = 122;
},
{
glyphname = a.ss01;
kernLeft = a;
kernRight = a;
lastChange = "2022-08-27 16:36:11 +0000";
layers = (
{
background = {
shapes = (
{
closed = 1;
nodes = (
(194,-9,o),
(229,14,o),
(266,58,cs),
(276,71,o),
(290,70,o),
(292,57,cs),
(299,21,o),
(321,-9,o),
(358,-9,cs),
(407,-9,o),
(453,32,o),
(453,129,cs),
(453,141,o),
(447,146,o),
(439,146,cs),
(431,146,o),
(424,141,o),
(424,130,cs),
(424,74,o),
(404,53,o),
(384,53,cs),
(369,53,o),
(360,66,o),
(360,95,cs),
(360,401,ls),
(360,479,o),
(320,516,o),
(246,516,cs),
(148,516,o),
(36,433,o),
(36,355,cs),
(36,337,o),
(48,327,o),
(68,327,cs),
(93,327,o),
(123,345,o),
(131,388,cs),
(145,458,o),
(178,486,o),
(217,486,cs),
(256,486,o),
(282,461,o),
(282,397,cs),
(282,175,ls),
(282,97,o),
(228,37,o),
(169,37,cs),
(131,37,o),
(110,61,o),
(110,106,cs),
(110,186,o),
(178,241,o),
(292,269,c),
(292,296,l),
(139,259,o),
(28,178,o),
(28,88,cs),
(28,29,o),
(74,-9,o),
(138,-9,cs)
);
}
);
};
layerId = m01;
shapes = (
{
closed = 1;
nodes = (
(194,-9,o),
(229,14,o),
(266,58,cs),
(276,71,o),
(290,70,o),
(292,57,cs),
(300,10,o),
(316,-9,o),
(356,-9,cs),
(396,-9,o),
(429,19,o),
(429,35,cs),
(429,40,o),
(425,43,o),
(420,43,cs),
(411,43,o),
(404,33,o),
(386,33,cs),
(368,33,o),
(360,43,o),
(360,66,cs),
(360,401,ls),
(360,479,o),
(320,516,o),
(246,516,cs),
(148,516,o),
(36,433,o),
(36,355,cs),
(36,337,o),
(48,327,o),
(68,327,cs),
(93,327,o),
(123,345,o),
(131,388,cs),
(145,458,o),
(178,486,o),
(217,486,cs),
(256,486,o),
(282,461,o),
(282,397,cs),
(282,306,ls),
(282,298,o),
(277,292,o),
(267,289,cs),
(128,250,o),
(28,173,o),
(28,88,cs),
(28,29,o),
(74,-9,o),
(138,-9,cs)
);
},
{
closed = 1;
nodes = (
(131,37,o),
(110,61,o),
(110,106,cs),
(110,178,o),
(164,229,o),
(258,259,cs),
(273,264,o),
(282,259,o),
(282,248,cs),
(282,175,ls),
(282,97,o),
(228,37,o),
(169,37,cs)
);
}
);
width = 447;
}
);
},
{
glyphname = c.ss01;
kernLeft = o;
kernRight = c;
lastChange = "2022-08-27 16:33:08 +0000";
layers = (
{
anchors = (
{
name = bottom;
pos = (182,0);
},
{
name = top;
pos = (208,510);
}
);
background = {
shapes = (
{
closed = 1;
nodes = (
(283,-9,o),
(337,26,o),
(363,167,cs),
(366,179,o),
(362,187,o),
(353,187,cs),
(345,187,o),
(342,183,o),
(339,176,cs),
(313,74,o),
(279,42,o),
(225,42,cs),
(158,42,o),
(112,114,o),
(112,257,cs),
(112,425,o),
(171,490,o),
(217,490,cs),
(256,490,o),
(283,462,o),
(315,352,cs),
(317,343,o),
(323,339,o),
(331,339,cs),
(338,339,o),
(345,344,o),
(345,354,cs),
(343,476,ls),
(343,487,o),
(339,493,o),
(331,498,cs),
(309,511,o),
(285,516,o),
(248,516,cs),
(123,516,o),
(26,406,o),
(26,236,cs),
(26,84,o),
(106,-9,o),
(207,-9,cs)
);
}
);
};
layerId = m01;
shapes = (
{
closed = 1;
nodes = (
(296,-9,o),
(343,38,o),
(363,114,cs),
(366,122,o),
(363,130,o),
(354,130,cs),
(347,130,o),
(343,126,o),
(340,119,cs),
(320,64,o),
(282,37,o),
(235,37,cs),
(158,37,o),
(112,114,o),
(112,257,cs),
(112,425,o),
(171,490,o),
(217,490,cs),
(256,490,o),
(283,462,o),
(315,352,cs),
(317,343,o),
(323,339,o),
(331,339,cs),
(338,339,o),
(345,344,o),
(345,354,cs),
(343,476,ls),
(343,487,o),
(339,493,o),
(331,498,cs),
(309,511,o),
(285,516,o),
(248,516,cs),
(123,516,o),
(26,406,o),
(26,236,cs),
(26,84,o),
(106,-9,o),
(213,-9,cs)
);
}
);
width = 390;
}
);
},
{
glyphname = d.ss01;
kernLeft = o;
kernRight = d;
lastChange = "2022-08-27 16:36:33 +0000";
layers = (
{
anchors = (
{
name = bottom;
pos = (223,0);
},
{
name = center;
pos = (223,255);
},
{
name = top;
pos = (223,740);
},
{
name = topright;
pos = (402,740);
}
);
background = {
shapes = (
{
closed = 1;
nodes = (
(256,-9,o),
(286,6,o),
(322,47,cs),
(343,71,l),
(353,71,l),
(348,169,l),
(348,95,o),
(292,37,o),
(233,37,cs),
(162,37,o),
(120,110,o),
(120,247,cs),
(120,397,o),
(177,491,o),
(263,491,cs),
(314,491,o),
(348,454,o),
(348,394,c),
(392,480,l),
(375,480,l),
(340,505,o),
(305,516,o),
(267,516,cs),
(132,516,o),
(34,400,o),
(34,233,cs),
(34,88,o),
(106,-9,o),
(208,-9,cs)
);
},
{
closed = 1;
nodes = (
(474,-9,o),
(520,32,o),
(520,129,cs),
(520,141,o),
(514,146,o),
(506,146,cs),
(498,146,o),
(491,141,o),
(491,130,cs),
(491,74,o),
(470,53,o),
(451,53,cs),
(436,53,o),
(427,66,o),
(427,95,cs),
(427,724,ls),
(427,735,o),
(422,740,o),
(414,740,cs),
(407,740,o),
(399,737,o),
(386,730,cs),
(367,719,o),
(338,708,o),
(290,700,cs),
(282,699,o),
(277,694,o),
(277,688,cs),
(277,682,o),
(282,677,o),
(290,676,cs),
(320,673,ls),
(342,671,o),
(348,664,o),
(348,640,cs),
(348,73,ls),
(348,21,o),
(383,-9,o),
(425,-9,cs)
);
}
);
};
layerId = m01;
shapes = (
{
closed = 1;
nodes = (
(259,-9,o),
(289,6,o),
(331,58,cs),
(339,68,o),
(352,69,o),
(354,57,cs),
(362,10,o),
(383,-9,o),
(422,-9,cs),
(470,-9,o),
(501,25,o),
(501,41,cs),
(501,46,o),
(498,49,o),
(492,49,cs),
(483,49,o),
(474,33,o),
(452,33,cs),
(435,33,o),
(427,43,o),
(427,66,cs),
(427,724,ls),
(427,735,o),
(422,740,o),
(414,740,cs),
(407,740,o),
(399,737,o),
(386,730,cs),
(367,719,o),
(338,708,o),
(290,700,cs),
(282,699,o),
(277,694,o),
(277,688,cs),
(277,682,o),
(282,677,o),
(290,676,cs),
(320,673,ls),
(342,671,o),
(348,664,o),
(348,640,cs),
(348,512,ls),
(348,502,o),
(342,500,o),
(330,505,cs),
(309,513,o),
(289,516,o),
(267,516,cs),
(132,516,o),
(34,400,o),
(34,233,cs),
(34,88,o),
(106,-9,o),
(208,-9,cs)
);
},
{
closed = 1;
nodes = (
(162,37,o),
(120,110,o),
(120,247,cs),
(120,397,o),
(177,491,o),
(263,491,cs),
(314,491,o),
(348,454,o),
(348,394,cs),
(348,169,ls),
(348,95,o),
(292,37,o),
(233,37,cs)
);
}
);
width = 513;
}
);
},
{
glyphname = dcroat.ss01;
kernLeft = o;
kernRight = d;
lastChange = "2022-08-27 16:34:48 +0000";
layers = (
{
layerId = m01;
shapes = (
{
ref = d.ss01;
},
{
closed = 1;
nodes = (
(491,578,ls),
(498,578,o),
(503,582,o),
(503,588,cs),
(503,596,ls),
(503,602,o),
(498,606,o),
(491,606,cs),
(175,606,ls),
(168,606,o),
(163,602,o),
(163,596,cs),
(163,588,ls),
(163,582,o),
(168,578,o),
(175,578,cs)
);
}
);
width = 526;
}
);
},
{
glyphname = e.ss01;
kernLeft = o;
kernRight = e;
lastChange = "2022-08-27 16:36:41 +0000";
layers = (
{
anchors = (
{
name = bottom;
pos = (178,0);
},
{
name = ogonek;
pos = (266,10);
},
{
name = top;
pos = (178,510);
}
);
background = {
shapes = (
{
closed = 1;
nodes = (
(352,273,ls),
(379,273,o),
(379,276,o),
(379,341,cs),
(379,452,o),
(316,516,o),
(229,516,cs),
(126,516,o),
(26,427,o),
(26,242,cs),
(26,92,o),
(102,-9,o),
(235,-9,cs),
(292,-9,o),
(346,22,o),
(369,72,cs),
(376,88,o),
(382,106,o),
(382,124,cs),
(382,135,o),
(378,137,o),
(375,137,cs),
(366,137,o),
(363,122,o),
(354,100,cs),
(337,60,o),
(301,37,o),
(246,37,cs),
(162,37,o),
(105,121,o),
(105,252,cs),
(105,266,o),
(112,273,o),
(132,273,cs)
);
},
{
closed = 1;
nodes = (
(108,328,ls),
(108,418,o),
(158,489,o),
(223,489,cs),
(275,489,o),
(313,445,o),
(313,369,cs),
(313,339,o),
(308,327,o),
(298,319,cs),
(290,314,o),
(263,308,o),
(223,306,cs),
(205,305,o),
(184,304,o),
(160,304,cs),
(110,304,o),
(108,308,o),
(108,327,cs)
);
}
);
};
layerId = m01;
shapes = (
{
closed = 1;
nodes = (
(310,-9,o),
(355,38,o),
(376,104,cs),
(378,112,o),
(376,120,o),
(367,120,cs),
(360,120,o),
(355,116,o),
(352,109,cs),
(332,64,o),
(299,37,o),
(245,37,cs),
(159,37,o),
(109,113,o),
(109,254,cs),
(109,270,o),
(117,277,o),
(132,277,cs),
(351,277,ls),
(370,277,o),
(379,289,o),
(379,310,cs),
(379,455,o),
(317,516,o),
(228,516,cs),
(114,516,o),
(26,406,o),
(26,249,cs),
(26,94,o),
(110,-9,o),
(224,-9,cs)
);
},
{
closed = 1;
nodes = (
(117,302,o),
(110,308,o),
(112,318,cs),
(123,428,o),
(167,491,o),
(227,491,cs),
(275,491,o),
(300,439,o),
(300,352,cs),
(300,317,o),
(283,302,o),
(245,302,cs),
(129,302,ls)
);
}
);
width = 408;
}
);
},
{
glyphname = g.ss01;
kernLeft = g;
kernRight = g;
lastChange = "2022-08-27 16:37:06 +0000";
layers = (
{
anchors = (
{
name = bottom;
pos = (198,-205);
},
{
name = top;
pos = (198,510);
}
);
background = {
shapes = (
{
closed = 1;
nodes = (
(337,-215,o),
(443,-144,o),
(443,-46,cs),
(443,36,o),
(374,87,o),
(263,87,cs),
(178,87,ls),
(141,87,o),
(122,98,o),
(122,120,cs),
(122,143,o),
(143,157,o),
(195,169,cs),
(264,185,ls),
(344,203,o),
(397,267,o),
(397,348,cs),
(397,401,o),
(374,447,o),
(338,477,c),
(338,482,l),
(417,482,ls),
(430,482,o),
(438,487,o),
(438,496,cs),
(438,505,o),
(430,510,o),
(417,510,cs),
(307,510,ls),
(273,510,o),
(259,516,o),
(227,516,cs),
(130,516,o),
(54,444,o),
(54,352,cs),
(54,279,o),
(106,212,o),
(178,192,c),
(178,188,l),
(136,178,ls),
(83,166,o),
(48,135,o),
(48,99,cs),
(48,67,o),
(74,42,o),
(122,26,c),
(122,20,l),
(95,8,ls),
(43,-16,o),
(16,-49,o),
(16,-93,cs),
(16,-168,o),
(89,-215,o),
(205,-215,cs)
);
},
{
closed = 1;
nodes = (
(85,-22,o),
(159,26,o),
(216,26,cs),
(253,26,ls),
(327,26,o),
(369,-8,o),
(369,-68,cs),
(369,-141,o),
(301,-193,o),
(218,-193,cs),
(133,-193,o),
(85,-157,o),
(85,-81,cs)
);
},
{
closed = 1;
nodes = (
(136,437,o),
(171,494,o),
(225,494,cs),
(279,494,o),
(315,437,o),
(315,350,cs),
(315,261,o),
(281,205,o),
(225,205,cs),
(170,205,o),
(136,261,o),
(136,350,cs)
);
}
);
};
guides = (
{
pos = (124,26);
}
);
layerId = m01;
shapes = (
{
closed = 1;
nodes = (
(351,-215,o),
(457,-144,o),
(457,-46,cs),
(457,36,o),
(388,87,o),
(277,87,cs),
(164,87,ls),
(131,87,o),
(121,111,o),
(152,142,cs),
(181,170,o),
(199,180,o),
(227,180,cs),
(323,180,o),
(397,252,o),
(397,348,cs),
(397,391,o),
(382,429,o),
(356,458,cs),
(352,464,o),
(353,468,o),
(361,470,cs),
(423,483,ls),
(434,485,o),
(438,490,o),
(438,498,cs),
(438,505,o),
(432,510,o),
(421,510,cs),
(319,510,ls),
(268,510,o),
(259,516,o),
(227,516,cs),
(130,516,o),
(54,444,o),
(54,352,cs),
(54,288,o),
(93,234,o),
(138,208,cs),
(156,198,o),
(159,183,o),
(141,170,cs),
(75,121,ls),
(38,94,o),
(49,59,o),
(105,39,cs),
(123,32,o),
(123,18,o),
(105,4,cs),
(26,-56,o),
(16,-76,o),
(16,-111,cs),
(16,-168,o),
(89,-215,o),
(205,-215,cs)
);
},
{
closed = 1;
nodes = (
(85,-70,o),
(91,-46,o),
(133,-6,cs),
(161,19,o),
(178,26,o),
(227,26,cs),
(267,26,ls),
(340,26,o),
(383,-8,o),
(383,-68,cs),
(383,-141,o),
(315,-193,o),
(218,-193,cs),
(133,-193,o),
(85,-154,o),
(85,-98,cs)
);
},
{
closed = 1;
nodes = (
(136,437,o),
(171,494,o),
(225,494,cs),
(279,494,o),
(315,437,o),
(315,350,cs),
(315,261,o),
(281,205,o),
(225,205,cs),
(170,205,o),
(136,261,o),
(136,350,cs)
);
}
);
width = 454;
}
);
},
{
glyphname = f_b;
kernLeft = f;
kernRight = o;
lastChange = "2023-02-22 10:41:05 +0000";
layers = (
{
anchors = (
{
name = bottom_1;
pos = (179,0);
},
{
name = bottom_2;
pos = (537,0);
},
{
name = caret_1;
pos = (358,0);
},
{
name = top_1;
pos = (179,740);
},
{
name = top_2;
pos = (537,740);
}
);
background = {
shapes = (
{
closed = 1;
nodes = (
(98,39,o),
(91,27,o),
(59,25,cs),
(30,23,ls),
(20,22,o),
(15,17,o),
(15,11,cs),
(15,4,o),
(21,0,o),
(32,0,cs),
(271,0,ls),
(283,0,o),
(289,4,o),
(289,12,cs),
(289,18,o),
(284,22,o),
(276,23,cs),
(215,28,ls),
(183,31,o),
(176,39,o),
(176,67,cs),
(176,470,ls),
(176,477,o),
(182,482,o),
(190,482,cs),
(289,482,ls),
(298,482,o),
(306,487,o),
(306,496,cs),
(306,505,o),
(298,510,o),
(289,510,cs),
(190,510,ls),
(182,510,o),
(176,515,o),
(176,522,cs),
(176,610,ls),
(176,692,o),
(194,717,o),
(225,717,cs),
(283,717,o),
(256,632,o),
(319,632,cs),
(343,632,o),
(359,645,o),
(359,670,cs),
(359,713,o),
(312,748,o),
(251,748,cs),
(152,748,o),
(98,654,o),
(98,550,cs),
(98,544,ls),
(98,521,o),
(79,506,o),
(44,503,cs),
(34,502,o),
(30,498,o),
(30,492,cs),
(30,486,o),
(36,482,o),
(44,482,cs),
(70,482,ls),
(87,482,o),
(98,473,o),
(98,458,cs),
(98,67,ls)
);
},
{
closed = 1;
nodes = (
(697,-9,o),
(795,107,o),
(795,274,cs),
(795,419,o),
(719,516,o),
(613,516,cs),
(572,516,o),
(538,502,o),
(505,472,cs),
(492,461,o),
(481,466,o),
(481,477,cs),
(481,724,ls),
(481,735,o),
(476,740,o),
(468,740,cs),
(461,740,o),
(453,737,o),
(440,730,cs),
(421,719,o),
(392,708,o),
(350,700,cs),
(342,699,o),
(337,694,o),
(337,688,cs),
(337,682,o),
(342,677,o),
(350,676,cs),
(374,673,ls),
(396,670,o),
(402,664,o),
(402,640,cs),
(402,160,ls),
(402,80,o),
(399,35,o),
(393,5,cs),
(391,-4,o),
(394,-9,o),
(402,-9,cs),
(409,-9,o),
(416,-6,o),
(431,9,cs),
(445,25,o),
(459,28,o),
(477,17,cs),
(507,-1,o),
(536,-9,o),
(568,-9,cs)
);
},
{
closed = 1;
nodes = (
(515,16,o),
(481,53,o),
(481,113,cs),
(481,365,ls),
(481,432,o),
(524,471,o),
(577,471,cs),
(661,471,o),
(710,397,o),
(710,260,cs),
(710,110,o),
(652,16,o),
(566,16,cs)
);
}
);
};
layerId = m01;
shapes = (
{
closed = 1;
nodes = (
(392,-9,o),
(399,-6,o),
(414,9,cs),
(428,25,o),
(442,28,o),
(460,17,cs),
(490,-1,o),
(519,-9,o),
(551,-9,cs),
(680,-9,o),
(777,107,o),
(777,274,cs),
(777,419,o),
(702,516,o),
(596,516,cs),
(554,516,o),
(521,502,o),
(488,472,cs),
(475,461,o),
(463,466,o),
(463,477,cs),
(463,724,ls),
(463,735,o),
(459,743,o),
(448,743,cs),
(435,743,o),
(430,736,o),
(421,712,cs),
(417,703,o),
(408,702,o),
(401,709,cs),
(374,734,o),
(338,748,o),
(294,748,cs),
(169,748,o),
(98,654,o),
(98,550,cs),
(98,544,ls),
(98,521,o),
(79,506,o),
(44,503,cs),
(34,502,o),
(30,498,o),
(30,492,cs),
(30,486,o),
(36,482,o),
(44,482,cs),
(70,482,ls),
(87,482,o),
(98,473,o),
(98,458,cs),
(98,67,ls),
(98,39,o),
(91,28,o),
(53,25,cs),
(30,23,ls),
(20,22,o),
(15,17,o),
(15,11,cs),
(15,4,o),
(21,0,o),
(32,0,cs),
(233,0,ls),
(245,0,o),
(251,4,o),
(251,12,cs),
(251,18,o),
(246,22,o),
(238,23,cs),
(209,26,ls),
(183,29,o),
(176,39,o),
(176,67,cs),
(176,470,ls),
(176,477,o),
(182,482,o),
(190,482,cs),
(289,482,ls),
(298,482,o),
(306,487,o),
(306,496,cs),
(306,505,o),
(298,510,o),
(289,510,cs),
(190,510,ls),
(182,510,o),
(176,515,o),
(176,522,cs),
(176,590,ls),
(176,692,o),
(228,723,o),
(285,723,cs),
(360,723,o),
(385,671,o),
(385,606,cs),
(385,160,ls),
(385,80,o),
(382,35,o),
(376,5,cs),
(374,-4,o),
(377,-9,o),
(385,-9,cs)
);
},
{
closed = 1;
nodes = (
(498,16,o),
(463,53,o),
(463,113,cs),
(463,365,ls),
(463,432,o),
(507,471,o),
(560,471,cs),
(644,471,o),
(692,397,o),
(692,260,cs),
(692,110,o),
(635,16,o),
(549,16,cs)
);
}
);
width = 823;
}
);
metricLeft = f;
metricRight = b;
},
{
glyphname = f_f_i;
lastChange = "2023-02-22 10:41:05 +0000";
layers = (
{
anchors = (
{
name = caret_1;
pos = (242.333,0);
},
{
name = caret_2;
pos = (484.667,0);
}
);
background = {
shapes = (
{
closed = 1;
nodes = (
(521,0,ls),
(532,0,o),
(538,4,o),
(538,12,cs),
(538,18,o),
(534,22,o),
(526,23,cs),
(497,26,ls),
(470,29,o),
(463,39,o),
(463,67,cs),
(463,470,ls),
(463,477,o),
(469,482,o),
(477,482,cs),
(654,482,ls),
(665,482,o),
(670,477,o),
(670,468,cs),
(670,67,ls),
(670,39,o),
(664,30,o),
(626,25,cs),
(612,23,ls),
(601,21,o),
(597,17,o),
(597,11,cs),
(597,4,o),
(603,0,o),
(614,0,cs),
(806,0,ls),
(818,0,o),
(823,4,o),
(823,12,cs),
(823,18,o),
(819,22,o),
(811,23,cs),
(782,26,ls),
(756,29,o),
(749,39,o),
(749,67,cs),
(749,486,ls),
(749,501,o),
(738,510,o),
(721,510,cs),
(477,510,ls),
(469,510,o),
(463,515,o),
(463,522,cs),
(463,590,ls),
(463,692,o),
(515,719,o),
(573,719,cs),
(661,719,o),
(641,626,o),
(705,626,cs),
(737,626,o),
(751,643,o),
(751,668,cs),
(751,711,o),
(689,748,o),
(596,748,cs),
(486,748,o),
(417,691,o),
(393,616,c),
(385,616,l),
(385,67,ls),
(385,39,o),
(378,28,o),
(340,25,cs),
(317,23,ls),
(307,22,o),
(302,17,o),
(302,11,cs),
(302,4,o),
(308,0,o),
(320,0,cs)
);
},
{
closed = 1;
nodes = (
(438,637,l),
(406,700,o),
(361,728,o),
(294,728,cs),
(169,728,o),
(98,634,o),
(98,550,cs),
(98,544,ls),
(98,521,o),
(79,506,o),
(44,503,cs),
(34,502,o),
(30,498,o),
(30,492,cs),
(30,486,o),
(36,482,o),
(44,482,cs),
(70,482,ls),
(87,482,o),
(98,473,o),
(98,458,cs),
(98,67,ls),
(98,39,o),
(91,28,o),
(53,25,cs),
(30,23,ls),
(20,22,o),
(15,17,o),
(15,11,cs),
(15,4,o),
(21,0,o),
(32,0,cs),
(233,0,ls),
(245,0,o),
(251,4,o),
(251,12,cs),
(251,18,o),
(246,22,o),
(238,23,cs),
(209,26,ls),
(183,29,o),
(176,39,o),
(176,67,cs),
(176,470,ls),
(176,477,o),
(182,482,o),
(190,482,cs),
(400,482,ls),
(409,482,o),
(417,487,o),
(417,496,cs),
(417,505,o),
(409,510,o),
(400,510,cs),
(190,510,ls),
(182,510,o),
(176,515,o),
(176,522,cs),
(176,590,ls),
(176,672,o),
(228,703,o),
(285,703,cs),
(360,703,o),
(385,651,o),
(385,586,c)
);
}
);
};
layerId = m01;
shapes = (
{
closed = 1;
nodes = (
(233,0,ls),
(245,0,o),
(251,4,o),
(251,12,cs),
(251,18,o),
(246,22,o),
(238,23,cs),
(209,26,ls),
(183,29,o),
(176,39,o),
(176,67,cs),
(176,470,ls),
(176,477,o),
(182,482,o),
(190,482,cs),
(371,482,ls),
(379,482,o),
(385,477,o),
(385,470,cs),
(385,67,ls),
(385,39,o),
(378,28,o),
(340,25,cs),
(317,23,ls),
(307,22,o),
(302,17,o),
(302,11,cs),
(302,4,o),
(308,0,o),
(320,0,cs),
(521,0,ls),
(532,0,o),
(538,4,o),
(538,12,cs),
(538,18,o),
(534,22,o),
(526,23,cs),
(497,26,ls),
(470,29,o),
(463,39,o),
(463,67,cs),
(463,470,ls),
(463,477,o),
(469,482,o),
(477,482,cs),
(654,482,ls),
(665,482,o),
(670,477,o),
(670,468,cs),
(670,67,ls),
(670,39,o),
(664,30,o),
(626,25,cs),
(612,23,ls),
(601,21,o),
(597,17,o),
(597,11,cs),
(597,4,o),
(603,0,o),
(614,0,cs),
(806,0,ls),
(818,0,o),
(823,4,o),
(823,12,cs),
(823,18,o),
(819,22,o),
(811,23,cs),
(782,26,ls),
(756,29,o),
(749,39,o),
(749,67,cs),
(749,486,ls),
(749,501,o),
(738,510,o),
(721,510,cs),
(477,510,ls),
(469,510,o),
(463,515,o),
(463,522,cs),
(463,590,ls),
(463,692,o),
(515,719,o),
(573,719,cs),
(661,719,o),
(641,626,o),
(705,626,cs),
(737,626,o),
(751,643,o),
(751,668,cs),
(751,711,o),
(689,748,o),
(596,748,cs),
(521,748,o),
(465,721,o),
(429,680,cs),
(423,673,o),
(416,673,o),
(411,680,cs),
(381,713,o),
(344,728,o),
(294,728,cs),
(169,728,o),
(98,634,o),
(98,550,cs),
(98,544,ls),
(98,521,o),
(79,506,o),
(44,503,cs),
(34,502,o),
(30,498,o),
(30,492,cs),
(30,486,o),
(36,482,o),
(44,482,cs),
(70,482,ls),
(87,482,o),
(98,473,o),
(98,458,cs),
(98,67,ls),
(98,39,o),
(91,28,o),
(53,25,cs),
(30,23,ls),
(20,22,o),
(15,17,o),
(15,11,cs),
(15,4,o),
(21,0,o),
(32,0,cs)
);
},
{
closed = 1;
nodes = (
(182,510,o),
(176,515,o),
(176,522,cs),
(176,590,ls),
(176,672,o),
(228,703,o),
(285,703,cs),
(360,703,o),
(385,651,o),
(385,586,cs),
(385,522,ls),
(385,515,o),
(379,510,o),
(371,510,cs),
(190,510,ls)
);
}
);
width = 836;
}
);
metricLeft = f;
metricRight = i;
},
{
glyphname = f_f_l;
lastChange = "2023-02-22 10:41:05 +0000";
layers = (
{
anchors = (
{
name = caret_1;
pos = (243.667,0);
},
{
name = caret_2;
pos = (487.333,0);
}
);
background = {
shapes = (
{
closed = 1;
nodes = (
(411,680,l),
(381,713,o),
(344,728,o),
(294,728,cs),
(169,728,o),
(98,634,o),
(98,550,cs),
(98,544,ls),
(98,521,o),
(79,506,o),
(44,503,cs),
(34,502,o),
(30,498,o),
(30,492,cs),
(30,486,o),
(36,482,o),
(44,482,cs),
(70,482,ls),
(87,482,o),
(98,473,o),
(98,458,cs),
(98,67,ls),
(98,39,o),
(91,28,o),
(53,25,cs),
(30,23,ls),
(20,22,o),
(15,17,o),
(15,11,cs),
(15,4,o),
(21,0,o),
(32,0,cs),
(233,0,ls),
(245,0,o),
(251,4,o),
(251,12,cs),
(251,18,o),
(246,22,o),
(238,23,cs),
(209,26,ls),
(183,29,o),
(176,39,o),
(176,67,cs),
(176,470,ls),
(176,477,o),
(182,482,o),
(190,482,cs),
(371,482,ls),
(379,482,o),
(385,477,o),
(385,470,cs),
(385,67,ls),
(385,39,o),
(378,28,o),
(340,25,cs),
(317,23,ls),
(307,22,o),
(302,17,o),
(302,11,cs),
(302,4,o),
(308,0,o),
(320,0,cs),
(521,0,ls),
(532,0,o),
(538,4,o),
(538,12,cs),
(538,18,o),
(534,22,o),
(526,23,cs),
(497,26,ls),
(470,29,o),
(463,39,o),
(463,67,cs),
(463,470,ls),
(463,477,o),
(469,482,o),
(477,482,cs),
(576,482,ls),
(585,482,o),
(593,487,o),
(593,496,cs),
(593,505,o),
(585,510,o),
(576,510,cs),
(477,510,ls),
(469,510,o),
(463,515,o),
(463,522,cs),
(463,590,ls),
(463,692,o),
(515,723,o),
(573,723,cs),
(647,723,o),
(673,671,o),
(673,606,cs),
(673,67,ls),
(673,39,o),
(658,29,o),
(626,25,cs),
(610,23,ls),
(601,22,o),
(597,17,o),
(597,11,cs),
(597,5,o),
(603,0,o),
(611,0,cs),
(815,0,ls),
(823,0,o),
(829,4,o),
(829,11,cs),
(829,18,o),
(825,22,o),
(816,23,cs),
(790,26,ls),
(758,30,o),
(751,39,o),
(751,67,cs),
(751,724,ls),
(751,735,o),
(746,743,o),
(736,743,cs),
(722,743,o),
(718,736,o),
(708,712,cs),
(705,703,o),
(696,702,o),
(689,709,cs),
(661,734,o),
(626,748,o),
(582,748,cs),
(485,748,o),
(421,692,o),
(397,619,c),
(385,619,l),
(385,522,ls),
(385,515,o),
(379,510,o),
(371,510,cs),
(190,510,ls),
(182,510,o),
(176,515,o),
(176,522,cs),
(176,590,ls),
(176,672,o),
(228,703,o),
(285,703,cs),
(360,703,o),
(385,651,o),
(385,586,c)
);
}
);
};
layerId = m01;
shapes = (
{
closed = 1;
nodes = (
(233,0,ls),
(245,0,o),
(251,4,o),
(251,12,cs),
(251,18,o),
(246,22,o),
(238,23,cs),
(209,26,ls),
(183,29,o),
(176,39,o),
(176,67,cs),
(176,470,ls),
(176,477,o),
(182,482,o),
(190,482,cs),
(371,482,ls),
(379,482,o),
(385,477,o),
(385,470,cs),
(385,67,ls),
(385,39,o),
(378,28,o),
(340,25,cs),
(317,23,ls),
(307,22,o),
(302,17,o),
(302,11,cs),
(302,4,o),
(308,0,o),
(320,0,cs),
(521,0,ls),
(532,0,o),
(538,4,o),
(538,12,cs),
(538,18,o),
(534,22,o),
(526,23,cs),
(497,26,ls),
(470,29,o),
(463,39,o),
(463,67,cs),
(463,470,ls),
(463,477,o),
(469,482,o),
(477,482,cs),
(576,482,ls),
(585,482,o),
(593,487,o),
(593,496,cs),
(593,505,o),
(585,510,o),
(576,510,cs),
(477,510,ls),
(469,510,o),
(463,515,o),
(463,522,cs),
(463,590,ls),
(463,692,o),
(515,723,o),
(573,723,cs),
(647,723,o),
(673,671,o),
(673,606,cs),
(673,67,ls),
(673,39,o),
(658,29,o),
(626,25,cs),
(610,23,ls),
(601,22,o),
(597,17,o),
(597,11,cs),
(597,5,o),
(603,0,o),
(611,0,cs),
(815,0,ls),
(823,0,o),
(829,4,o),
(829,11,cs),
(829,18,o),
(825,22,o),
(816,23,cs),
(790,26,ls),
(758,30,o),
(751,39,o),
(751,67,cs),
(751,724,ls),
(751,735,o),
(746,743,o),
(736,743,cs),
(722,743,o),
(718,736,o),
(708,712,cs),
(705,703,o),
(696,702,o),
(689,709,cs),
(661,734,o),
(626,748,o),
(582,748,cs),
(514,748,o),
(463,721,o),
(430,680,cs),
(424,673,o),
(417,673,o),
(412,680,cs),
(382,713,o),
(344,728,o),
(294,728,cs),
(169,728,o),
(98,634,o),
(98,550,cs),
(98,544,ls),
(98,521,o),
(79,506,o),
(44,503,cs),
(34,502,o),
(30,498,o),
(30,492,cs),
(30,486,o),
(36,482,o),
(44,482,cs),
(70,482,ls),
(87,482,o),
(98,473,o),
(98,458,cs),
(98,67,ls),
(98,39,o),
(91,28,o),
(53,25,cs),
(30,23,ls),
(20,22,o),
(15,17,o),
(15,11,cs),
(15,4,o),
(21,0,o),
(32,0,cs)
);
},
{
closed = 1;
nodes = (
(182,510,o),
(176,515,o),
(176,522,cs),
(176,590,ls),
(176,672,o),
(228,703,o),
(285,703,cs),
(360,703,o),
(385,651,o),
(385,586,cs),
(385,522,ls),
(385,515,o),
(379,510,o),
(371,510,cs),
(190,510,ls)
);
}
);
width = 841;
}
);
metricLeft = f;
metricRight = l;
},
{
glyphname = f_h;
kernLeft = f;
kernRight = n;
lastChange = "2023-02-22 10:41:05 +0000";
layers = (
{
anchors = (
{
name = bottom_1;
pos = (183,0);
},
{
name = bottom_2;
pos = (548,0);
},
{
name = caret_1;
pos = (365.5,0);
},
{
name = top_1;
pos = (183,740);
},
{
name = top_2;
pos = (548,740);
}
);
background = {
shapes = (
{
closed = 1;
nodes = (
(98,39,o),
(91,27,o),
(59,25,cs),
(30,23,ls),
(20,22,o),
(15,17,o),
(15,11,cs),
(15,4,o),
(21,0,o),
(32,0,cs),
(271,0,ls),
(283,0,o),
(289,4,o),
(289,12,cs),
(289,18,o),
(284,22,o),
(276,23,cs),
(215,28,ls),
(183,31,o),
(176,39,o),
(176,67,cs),
(176,470,ls),
(176,477,o),
(182,482,o),
(190,482,cs),
(289,482,ls),
(298,482,o),
(306,487,o),
(306,496,cs),
(306,505,o),
(298,510,o),
(289,510,cs),
(190,510,ls),
(182,510,o),
(176,515,o),
(176,522,cs),
(176,610,ls),
(176,692,o),
(194,717,o),
(225,717,cs),
(283,717,o),
(256,632,o),
(319,632,cs),
(343,632,o),
(359,645,o),
(359,670,cs),
(359,713,o),
(312,748,o),
(251,748,cs),
(152,748,o),
(98,654,o),
(98,550,cs),
(98,544,ls),
(98,521,o),
(79,506,o),
(44,503,cs),
(34,502,o),
(30,498,o),
(30,492,cs),
(30,486,o),
(36,482,o),
(44,482,cs),
(70,482,ls),
(87,482,o),
(98,473,o),
(98,458,cs),
(98,67,ls)
);
},
{
closed = 1;
nodes = (
(564,0,ls),
(572,0,o),
(577,4,o),
(577,11,cs),
(577,18,o),
(573,22,o),
(565,23,cs),
(534,26,ls),
(501,29,o),
(494,39,o),
(494,67,cs),
(494,335,ls),
(494,408,o),
(551,470,o),
(624,470,cs),
(675,470,o),
(704,446,o),
(704,381,cs),
(704,67,ls),
(704,39,o),
(697,29,o),
(665,25,cs),
(649,23,ls),
(641,22,o),
(636,17,o),
(636,11,cs),
(636,5,o),
(641,0,o),
(652,0,cs),
(845,0,ls),
(853,0,o),
(859,4,o),
(859,11,cs),
(859,18,o),
(854,22,o),
(846,23,cs),
(821,26,ls),
(789,30,o),
(782,39,o),
(782,67,cs),
(782,392,ls),
(782,473,o),
(737,516,o),
(666,516,cs),
(616,516,o),
(576,501,o),
(519,455,cs),
(505,444,o),
(494,447,o),
(494,459,cs),
(494,724,ls),
(494,735,o),
(490,740,o),
(482,740,cs),
(475,740,o),
(467,737,o),
(454,730,cs),
(435,719,o),
(406,708,o),
(363,700,cs),
(355,699,o),
(351,694,o),
(351,688,cs),
(351,682,o),
(355,677,o),
(363,676,cs),
(388,673,ls),
(409,670,o),
(416,664,o),
(416,640,cs),
(416,67,ls),
(416,39,o),
(409,29,o),
(377,25,cs),
(361,23,ls),
(353,22,o),
(348,17,o),
(348,11,cs),
(348,5,o),
(354,0,o),
(362,0,cs)
);
}
);
};
layerId = m01;
shapes = (
{
closed = 1;
nodes = (
(233,0,ls),
(245,0,o),
(251,4,o),
(251,12,cs),
(251,18,o),
(246,22,o),
(238,23,cs),
(209,26,ls),
(183,29,o),
(176,39,o),
(176,67,cs),
(176,470,ls),
(176,477,o),
(182,482,o),
(190,482,cs),
(289,482,ls),
(298,482,o),
(306,487,o),
(306,496,cs),
(306,505,o),
(298,510,o),
(289,510,cs),
(190,510,ls),
(182,510,o),
(176,515,o),
(176,522,cs),
(176,590,ls),
(176,692,o),
(228,723,o),
(285,723,cs),
(360,723,o),
(385,671,o),
(385,606,cs),
(385,67,ls),
(385,39,o),
(378,29,o),
(346,25,cs),
(330,23,ls),
(322,22,o),
(317,17,o),
(317,11,cs),
(317,5,o),
(323,0,o),
(331,0,cs),
(532,0,ls),
(540,0,o),
(546,4,o),
(546,11,cs),
(546,18,o),
(542,22,o),
(534,23,cs),
(503,26,ls),
(470,29,o),
(463,39,o),
(463,67,cs),
(463,335,ls),
(463,408,o),
(520,470,o),
(593,470,cs),
(644,470,o),
(673,446,o),
(673,381,cs),
(673,67,ls),
(673,39,o),
(666,29,o),
(634,25,cs),
(618,23,ls),
(610,22,o),
(605,17,o),
(605,11,cs),
(605,5,o),
(610,0,o),
(621,0,cs),
(814,0,ls),
(822,0,o),
(828,4,o),
(828,11,cs),
(828,18,o),
(823,22,o),
(815,23,cs),
(790,26,ls),
(758,30,o),
(751,39,o),
(751,67,cs),
(751,392,ls),
(751,473,o),
(706,516,o),
(635,516,cs),
(585,516,o),
(545,501,o),
(488,455,cs),
(474,444,o),
(463,447,o),
(463,459,cs),
(463,724,ls),
(463,735,o),
(459,743,o),
(448,743,cs),
(435,743,o),
(430,736,o),
(421,712,cs),
(417,703,o),
(408,702,o),
(401,709,cs),
(374,734,o),
(338,748,o),
(294,748,cs),
(169,748,o),
(98,654,o),
(98,550,cs),
(98,544,ls),
(98,521,o),
(79,506,o),
(44,503,cs),
(34,502,o),
(30,498,o),
(30,492,cs),
(30,486,o),
(36,482,o),
(44,482,cs),
(70,482,ls),
(87,482,o),
(98,473,o),
(98,458,cs),
(98,67,ls),
(98,39,o),
(91,28,o),
(53,25,cs),
(30,23,ls),
(20,22,o),
(15,17,o),
(15,11,cs),
(15,4,o),
(21,0,o),
(32,0,cs)
);
}
);
width = 841;
}
);
metricLeft = f;
metricRight = h;
},
{
glyphname = f_i;
kernLeft = f;
kernRight = i;
lastChange = "2023-02-22 10:41:05 +0000";
layers = (
{
anchors = (
{
name = bottom_1;
pos = (119,0);
},
{
name = bottom_2;
pos = (358,0);
},
{
name = caret_1;
pos = (238.5,0);
},
{
name = top_1;
pos = (119,740);
},
{
name = top_2;
pos = (358,740);
}
);
background = {
shapes = (
{
closed = 1;
nodes = (
(98,39,o),
(91,27,o),
(59,25,cs),
(30,23,ls),
(20,22,o),
(15,17,o),
(15,11,cs),
(15,4,o),
(21,0,o),
(32,0,cs),
(271,0,ls),
(283,0,o),
(289,4,o),
(289,12,cs),
(289,18,o),
(284,22,o),
(276,23,cs),
(215,28,ls),
(183,31,o),
(176,39,o),
(176,67,cs),
(176,470,ls),
(176,477,o),
(182,482,o),
(190,482,cs),
(289,482,ls),
(298,482,o),
(306,487,o),
(306,496,cs),
(306,505,o),
(298,510,o),
(289,510,cs),
(190,510,ls),
(182,510,o),
(176,515,o),
(176,522,cs),
(176,610,ls),
(176,692,o),
(194,717,o),
(225,717,cs),
(283,717,o),
(256,632,o),
(319,632,cs),
(343,632,o),
(359,645,o),
(359,670,cs),
(359,713,o),
(312,748,o),
(251,748,cs),
(152,748,o),
(98,654,o),
(98,550,cs),
(98,544,ls),
(98,521,o),
(79,506,o),
(44,503,cs),
(34,502,o),
(30,498,o),
(30,492,cs),
(30,486,o),
(36,482,o),
(44,482,cs),
(70,482,ls),
(87,482,o),
(98,473,o),
(98,458,cs),
(98,67,ls)
);
},
{
closed = 1;
nodes = (
(526,0,ls),
(537,0,o),
(543,4,o),
(543,12,cs),
(543,18,o),
(538,22,o),
(530,23,cs),
(501,26,ls),
(475,29,o),
(468,39,o),
(468,67,c),
(468,501,ls),
(468,509,o),
(465,513,o),
(458,513,cs),
(452,513,o),
(447,510,o),
(440,504,cs),
(413,482,o),
(388,467,o),
(340,461,cs),
(328,459,o),
(322,456,o),
(322,450,cs),
(322,444,o),
(325,440,o),
(337,439,cs),
(361,436,ls),
(383,433,o),
(390,427,o),
(390,403,cs),
(390,67,ls),
(390,39,o),
(383,30,o),
(345,25,cs),
(331,23,ls),
(321,21,o),
(316,17,o),
(316,11,cs),
(316,4,o),
(322,0,o),
(334,0,cs)
);
},
{
closed = 1;
nodes = (
(462,605,o),
(486,627,o),
(486,658,cs),
(486,689,o),
(462,710,o),
(430,710,cs),
(398,710,o),
(373,689,o),
(373,658,cs),
(373,627,o),
(398,605,o),
(430,605,cs)
);
}
);
};
layerId = m01;
shapes = (
{
closed = 1;
nodes = (
(233,0,ls),
(245,0,o),
(251,4,o),
(251,12,cs),
(251,18,o),
(246,22,o),
(238,23,cs),
(209,26,ls),
(183,29,o),
(176,39,o),
(176,67,cs),
(176,470,ls),
(176,477,o),
(182,482,o),
(190,482,cs),
(367,482,ls),
(377,482,o),
(383,477,o),
(383,468,cs),
(383,67,ls),
(383,39,o),
(376,30,o),
(338,25,cs),
(324,23,ls),
(314,21,o),
(309,17,o),
(309,11,cs),
(309,4,o),
(315,0,o),
(327,0,cs),
(519,0,ls),
(530,0,o),
(536,4,o),
(536,12,cs),
(536,18,o),
(531,22,o),
(523,23,cs),
(494,26,ls),
(468,29,o),
(461,39,o),
(461,67,cs),
(461,486,ls),
(461,501,o),
(451,510,o),
(434,510,cs),
(190,510,ls),
(182,510,o),
(176,515,o),
(176,522,cs),
(176,590,ls),
(176,692,o),
(228,719,o),
(285,719,cs),
(374,719,o),
(353,626,o),
(417,626,cs),
(450,626,o),
(463,643,o),
(463,668,cs),
(463,711,o),
(401,748,o),
(308,748,cs),
(169,748,o),
(98,654,o),
(98,550,cs),
(98,544,ls),
(98,521,o),
(79,506,o),
(44,503,cs),
(34,502,o),
(30,498,o),
(30,492,cs),
(30,486,o),
(36,482,o),
(44,482,cs),
(70,482,ls),
(87,482,o),
(98,473,o),
(98,458,cs),
(98,67,ls),
(98,39,o),
(91,28,o),
(53,25,cs),
(30,23,ls),
(20,22,o),
(15,17,o),
(15,11,cs),
(15,4,o),
(21,0,o),
(32,0,cs)
);
}
);
width = 549;
}
);
metricLeft = f;
metricRight = i;
},
{
glyphname = f_l;
kernLeft = f;
kernRight = l;
lastChange = "2023-02-22 10:41:05 +0000";
layers = (
{
anchors = (
{
name = bottom_1;
pos = (120,0);
},
{
name = bottom_2;
pos = (361,0);
},
{
name = caret_1;
pos = (240.5,0);
},
{
name = top_1;
pos = (120,740);
},
{
name = top_2;
pos = (361,740);
}
);
layerId = m01;
shapes = (
{
closed = 1;
nodes = (
(233,0,ls),
(245,0,o),
(251,4,o),
(251,12,cs),
(251,18,o),
(246,22,o),
(238,23,cs),
(209,26,ls),
(183,29,o),
(176,39,o),
(176,67,cs),
(176,470,ls),
(176,477,o),
(182,482,o),
(190,482,cs),
(289,482,ls),
(298,482,o),
(306,487,o),
(306,496,cs),
(306,505,o),
(298,510,o),
(289,510,cs),
(190,510,ls),
(182,510,o),
(176,515,o),
(176,522,cs),
(176,590,ls),
(176,692,o),
(228,723,o),
(285,723,cs),
(360,723,o),
(385,671,o),
(385,606,cs),
(385,67,ls),
(385,39,o),
(370,29,o),
(338,25,cs),
(322,23,ls),
(314,22,o),
(309,17,o),
(309,11,cs),
(309,5,o),
(315,0,o),
(323,0,cs),
(528,0,ls),
(536,0,o),
(542,4,o),
(542,11,cs),
(542,18,o),
(537,22,o),
(529,23,cs),
(503,26,ls),
(470,30,o),
(463,39,o),
(463,67,cs),
(463,724,ls),
(463,735,o),
(459,743,o),
(448,743,cs),
(435,743,o),
(430,736,o),
(421,712,cs),
(417,703,o),
(408,702,o),
(401,709,cs),
(374,734,o),
(338,748,o),
(294,748,cs),
(169,748,o),
(98,654,o),
(98,550,cs),
(98,544,ls),
(98,521,o),
(79,506,o),
(44,503,cs),
(34,502,o),
(30,498,o),
(30,492,cs),
(30,486,o),
(36,482,o),
(44,482,cs),
(70,482,ls),
(87,482,o),
(98,473,o),
(98,458,cs),
(98,67,ls),
(98,39,o),
(91,28,o),
(53,25,cs),
(30,23,ls),
(20,22,o),
(15,17,o),
(15,11,cs),
(15,4,o),
(21,0,o),
(32,0,cs)
);
}
);
width = 553;
}
);
metricLeft = f;
metricRight = l;
},
{
glyphname = q_j;
lastChange = "2023-02-22 10:41:05 +0000";
layers = (
{
anchors = (
{
name = bottom_1;
pos = (164,0);
},
{
name = bottom_2;
pos = (493,0);
},
{
name = caret_1;
pos = (328.5,0);
},
{
name = top_1;
pos = (164,510);
},
{
name = top_2;
pos = (493,510);
}
);
layerId = m01;
shapes = (
{
closed = 1;
nodes = (
(399,-205,ls),
(416,-205,o),
(427,-196,o),
(427,-181,cs),
(427,347,ls),
(427,427,o),
(430,472,o),
(436,502,cs),
(438,511,o),
(435,516,o),
(427,516,cs),
(420,516,o),
(413,513,o),
(398,498,cs),
(384,482,o),
(370,479,o),
(352,490,cs),
(322,508,o),
(298,516,o),
(267,516,cs),
(132,516,o),
(34,400,o),
(34,233,cs),
(34,88,o),
(106,-9,o),
(208,-9,cs),
(256,-9,o),
(286,6,o),
(324,50,cs),
(335,61,o),
(348,56,o),
(348,45,cs),
(348,-138,ls),
(348,-166,o),
(342,-173,o),
(309,-177,cs),
(267,-182,ls),
(259,-183,o),
(254,-187,o),
(254,-193,cs),
(254,-201,o),
(260,-205,o),
(271,-205,cs)
);
},
{
closed = 1;
nodes = (
(162,37,o),
(120,110,o),
(120,247,cs),
(120,397,o),
(177,491,o),
(263,491,cs),
(314,491,o),
(348,454,o),
(348,394,cs),
(348,169,ls),
(348,95,o),
(292,37,o),
(233,37,cs)
);
},
{
closed = 1;
nodes = (
(613,-215,o),
(677,-116,o),
(677,44,cs),
(677,501,ls),
(677,509,o),
(674,513,o),
(667,513,cs),
(661,513,o),
(657,510,o),
(650,504,cs),
(622,482,o),
(597,467,o),
(550,461,cs),
(537,459,o),
(531,456,o),
(531,450,cs),
(531,444,o),
(535,440,o),
(546,439,cs),
(570,436,ls),
(592,433,o),
(599,427,o),
(599,403,cs),
(599,-91,ls),
(599,-144,o),
(583,-175,o),
(554,-175,cs),
(513,-175,o),
(529,-119,o),
(481,-119,cs),
(453,-119,o),
(436,-138,o),
(436,-161,cs),
(436,-193,o),
(468,-215,o),
(513,-215,cs)
);
},
{
closed = 1;
nodes = (
(672,605,o),
(696,627,o),
(696,658,cs),
(696,688,o),
(673,710,o),
(639,710,cs),
(606,710,o),
(582,688,o),
(582,658,cs),
(582,628,o),
(606,605,o),
(639,605,cs)
);
}
);
width = 756;
}
);
metricLeft = q;
metricRight = j;
},
{
glyphname = ordfeminine;
lastChange = "2022-08-18 20:35:28 +0000";
layers = (
{
layerId = m01;
shapes = (
{
closed = 1;
nodes = (
(172,363,o),
(200,379,o),
(230,410,cs),
(238,419,o),
(250,418,o),
(251,409,cs),
(256,384,o),
(274,363,o),
(304,363,cs),
(343,363,o),
(379,391,o),
(379,459,cs),
(379,468,o),
(375,475,o),
(366,475,cs),
(356,475,o),
(352,468,o),
(352,460,cs),
(352,421,o),
(340,406,o),
(324,406,cs),
(313,406,o),
(305,415,o),
(305,436,cs),
(305,650,ls),
(305,704,o),
(273,730,o),
(214,730,cs),
(136,730,o),
(46,672,o),
(46,618,cs),
(46,605,o),
(59,596,o),
(74,596,cs),
(100,596,o),
(114,611,o),
(122,641,cs),
(133,685,o),
(160,704,o),
(191,704,cs),
(222,704,o),
(243,687,o),
(243,642,cs),
(243,588,ls),
(243,583,o),
(239,578,o),
(231,576,cs),
(120,549,o),
(39,495,o),
(39,431,cs),
(39,389,o),
(76,363,o),
(128,363,cs)
);
},
{
closed = 1;
nodes = (
(122,401,o),
(106,418,o),
(106,446,cs),
(106,494,o),
(148,529,o),
(223,550,cs),
(236,554,o),
(243,550,o),
(243,543,cs),
(243,498,ls),
(243,443,o),
(199,401,o),
(153,401,cs)
);
}
);
width = 419;
}
);
unicode = 170;
},
{
glyphname = ordmasculine;
lastChange = "2022-08-18 20:36:01 +0000";
layers = (
{
layerId = m01;
shapes = (
{
closed = 1;
nodes = (
(306,363,o),
(377,443,o),
(377,547,cs),
(377,650,o),
(305,730,o),
(212,730,cs),
(120,730,o),
(46,650,o),
(46,547,cs),
(46,443,o),
(118,363,o),
(212,363,cs)
);
},
{
closed = 1;
nodes = (
(147,387,o),
(116,441,o),
(116,547,cs),
(116,652,o),
(147,706,o),
(212,706,cs),
(276,706,o),
(308,652,o),
(308,547,cs),
(308,441,o),
(277,387,o),
(212,387,cs)
);
}
);
width = 423;
}
);
metricLeft = O;
metricRight = O;
unicode = 186;
},
{
glyphname = zero;
lastChange = "2022-08-31 19:16:14 +0000";
layers = (
{
background = {
shapes = (
{
closed = 1;
nodes = (
(41,360,ls),
(41,98,o),
(167,-9,o),
(263,-9,cs),
(360,-9,o),
(485,98,o),
(485,360,cs),
(485,622,o),
(360,730,o),
(263,730,cs),
(167,730,o),
(41,622,o),
(41,361,cs)
);
},
{
closed = 1;
nodes = (
(135,360,ls),
(135,606,o),
(172,703,o),
(263,703,cs),
(354,703,o),
(392,606,o),
(392,360,cs),
(392,114,o),
(354,17,o),
(263,17,cs),
(172,17,o),
(135,114,o),
(135,359,cs)
);
}
);
};
layerId = m01;
shapes = (
{
closed = 1;
nodes = (
(398,-9,o),
(488,153,o),
(488,361,cs),
(488,568,o),
(398,730,o),
(264,730,cs),
(130,730,o),
(41,568,o),
(41,361,cs),
(41,153,o),
(130,-9,o),
(264,-9,cs)
);
},
{
closed = 1;
nodes = (
(168,18,o),
(124,130,o),
(124,361,cs),
(124,591,o),
(168,703,o),
(264,703,cs),
(361,703,o),
(405,591,o),
(405,361,cs),
(405,130,o),
(361,18,o),
(264,18,cs)
);
}
);
width = 529;
}
);
unicode = 48;
},
{
glyphname = one;
lastChange = "2022-08-31 19:17:48 +0000";
layers = (
{
layerId = m01;
shapes = (
{
closed = 1;
nodes = (
(258,0,ls),
(269,0,o),
(275,4,o),
(275,11,cs),
(275,17,o),
(270,22,o),
(260,23,cs),
(222,27,ls),
(190,30,o),
(181,38,o),
(181,66,cs),
(181,713,ls),
(181,728,o),
(172,735,o),
(156,735,cs),
(138,735,o),
(105,721,o),
(24,709,cs),
(10,707,o),
(6,701,o),
(6,695,cs),
(6,687,o),
(13,681,o),
(26,682,cs),
(68,686,ls),
(91,688,o),
(107,683,o),
(107,660,cs),
(107,66,ls),
(107,38,o),
(98,30,o),
(66,27,cs),
(21,23,ls),
(10,22,o),
(6,17,o),
(6,11,cs),
(6,4,o),
(12,0,o),
(23,0,cs)
);
}
);
width = 529;
}
);
unicode = 49;
},
{
glyphname = two;
lastChange = "2022-08-31 19:14:36 +0000";
layers = (
{
background = {
shapes = (
{
closed = 1;
nodes = (
(415,553,ls),
(415,665,o),
(346,730,o),
(225,730,cs),
(93,730,o),
(28,632,o),
(28,541,cs),
(28,524,o),
(34,522,o),
(41,522,cs),
(52,522,o),
(60,527,o),
(60,543,cs),
(60,598,o),
(101,691,o),
(198,691,cs),
(276,691,o),
(321,644,o),
(321,551,cs),
(321,463,o),
(292,380,o),
(171,220,cs),
(133,170,o),
(95,119,o),
(59,69,cs),
(51,57,o),
(24,26,o),
(24,14,cs),
(24,5,o),
(31,1,o),
(37,1,cs),
(305,1,ls),
(323,1,o),
(340,-1,o),
(359,-2,cs),
(381,-3,o),
(401,-4,o),
(404,-4,cs),
(419,-4,o),
(424,1,o),
(424,22,cs),
(424,177,ls),
(424,206,o),
(419,212,o),
(411,212,cs),
(397,212,o),
(397,199,o),
(389,164,cs),
(376,104,o),
(343,83,o),
(276,74,cs),
(243,70,o),
(198,69,o),
(140,69,cs),
(112,69,o),
(102,71,o),
(102,78,cs),
(102,86,o),
(122,112,o),
(133,128,cs),
(171,179,o),
(216,226,o),
(255,274,cs),
(320,354,o),
(415,449,o),
(415,552,cs)
);
}
);
};
guides = (
{
pos = (82,730);
}
);
layerId = m01;
shapes = (
{
closed = 1;
nodes = (
(392,0,ls),
(409,0,o),
(420,8,o),
(421,23,cs),
(435,211,ls),
(436,222,o),
(429,228,o),
(421,228,cs),
(412,228,o),
(406,223,o),
(404,215,cs),
(393,168,ls),
(374,80,o),
(336,60,o),
(248,60,cs),
(125,60,ls),
(109,60,o),
(99,70,o),
(108,82,cs),
(198,200,ls),
(323,365,o),
(415,468,o),
(415,573,cs),
(415,671,o),
(342,730,o),
(236,730,cs),
(143,730,o),
(45,685,o),
(29,554,cs),
(28,542,o),
(33,534,o),
(44,534,cs),
(53,534,o),
(59,538,o),
(61,550,cs),
(77,647,o),
(145,690,o),
(218,690,cs),
(292,690,o),
(332,644,o),
(332,562,cs),
(332,470,o),
(284,366,o),
(169,214,cs),
(31,31,ls),
(25,23,o),
(23,19,o),
(23,13,cs),
(23,4,o),
(30,0,o),
(44,0,cs)
);
}
);
width = 529;
}
);
unicode = 50;
},
{
glyphname = three;
lastChange = "2022-08-31 19:18:42 +0000";
layers = (
{
background = {
shapes = (
{
closed = 1;
nodes = (
(393,250,ls),
(393,371,o),
(307,441,o),
(214,441,cs),
(192,441,o),
(177,436,o),
(169,436,cs),
(166,436,o),
(164,437,o),
(164,440,cs),
(164,444,o),
(172,448,o),
(185,457,cs),
(202,468,o),
(232,487,o),
(270,516,cs),
(321,554,o),
(346,590,o),
(346,634,cs),
(346,699,o),
(288,730,o),
(215,730,cs),
(87,730,o),
(53,619,o),
(53,595,cs),
(53,587,o),
(56,581,o),
(64,581,cs),
(76,581,o),
(77,605,o),
(92,633,cs),
(112,670,o),
(147,696,o),
(189,696,cs),
(240,696,o),
(263,670,o),
(263,624,cs),
(263,542,o),
(198,498,o),
(131,445,cs),
(107,426,o),
(84,405,o),
(61,385,cs),
(55,380,o),
(49,373,o),
(49,365,cs),
(49,359,o),
(52,356,o),
(59,356,cs),
(64,356,o),
(70,360,o),
(77,364,cs),
(95,377,o),
(123,399,o),
(167,399,cs),
(250,399,o),
(317,334,o),
(317,213,cs),
(317,102,o),
(250,15,o),
(162,15,cs),
(129,15,o),
(114,19,o),
(106,47,cs),
(99,71,o),
(94,96,o),
(60,96,cs),
(41,96,o),
(24,83,o),
(24,58,cs),
(24,24,o),
(64,-9,o),
(140,-9,cs),
(298,-9,o),
(393,132,o),
(393,249,cs)
);
}
);
};
layerId = m01;
shapes = (
{
closed = 1;
nodes = (
(278,-9,o),
(392,108,o),
(392,236,cs),
(392,356,o),
(317,441,o),
(213,441,cs),
(200,441,o),
(185,439,o),
(174,436,cs),
(166,434,o),
(163,441,o),
(169,445,cs),
(195,461,ls),
(297,522,o),
(344,575,o),
(344,629,cs),
(344,690,o),
(293,730,o),
(216,730,cs),
(126,730,o),
(61,676,o),
(51,594,cs),
(49,583,o),
(55,576,o),
(64,576,cs),
(74,576,o),
(80,582,o),
(82,591,cs),
(93,656,o),
(136,696,o),
(194,696,cs),
(239,696,o),
(266,667,o),
(266,618,cs),
(266,573,o),
(236,529,o),
(169,475,cs),
(86,407,ls),
(76,398,o),
(72,389,o),
(77,383,cs),
(83,377,o),
(92,378,o),
(105,386,cs),
(126,399,o),
(152,405,o),
(183,405,cs),
(267,405,o),
(309,340,o),
(309,212,cs),
(309,96,o),
(250,18,o),
(162,18,cs),
(78,18,o),
(122,96,o),
(64,96,cs),
(40,96,o),
(23,82,o),
(23,60,cs),
(23,18,o),
(75,-9,o),
(155,-9,cs)
);
}
);
width = 529;
}
);
unicode = 51;
},
{
glyphname = four;
lastChange = "2022-08-31 19:18:03 +0000";
layers = (
{
background = {
shapes = (
{
closed = 1;
nodes = (
(419,0,ls),
(430,0,o),
(436,4,o),
(436,11,cs),
(436,17,o),
(431,21,o),
(421,23,cs),
(394,27,ls),
(362,32,o),
(355,38,o),
(355,66,cs),
(355,504,ls),
(355,515,o),
(346,518,o),
(336,513,cs),
(293,492,ls),
(286,488,o),
(282,483,o),
(282,476,cs),
(282,66,ls),
(282,40,o),
(275,33,o),
(243,29,cs),
(193,23,ls),
(183,22,o),
(178,17,o),
(178,11,cs),
(178,4,o),
(184,0,o),
(195,0,cs)
);
},
{
closed = 1;
nodes = (
(12,237,l),
(12,210,l),
(436,210,l),
(436,266,l),
(34,266,l)
);
},
{
closed = 1;
nodes = (
(12,237,l),
(46,237,l),
(350,720,l),
(315,720,l)
);
}
);
};
layerId = m01;
shapes = (
{
closed = 1;
nodes = (
(419,0,ls),
(430,0,o),
(436,4,o),
(436,11,cs),
(436,17,o),
(431,21,o),
(421,23,cs),
(394,27,ls),
(362,32,o),
(355,38,o),
(355,66,cs),
(355,196,ls),
(355,205,o),
(361,210,o),
(371,210,cs),
(422,210,ls),
(430,210,o),
(436,215,o),
(436,222,cs),
(436,254,ls),
(436,261,o),
(430,266,o),
(422,266,cs),
(371,266,ls),
(361,266,o),
(355,271,o),
(355,280,cs),
(355,504,ls),
(355,515,o),
(346,518,o),
(336,513,cs),
(293,492,ls),
(286,488,o),
(282,483,o),
(282,476,cs),
(282,280,ls),
(282,271,o),
(276,266,o),
(266,266,cs),
(83,266,ls),
(72,266,o),
(69,272,o),
(74,280,cs),
(350,703,ls),
(355,713,o),
(352,720,o),
(339,720,cs),
(316,720,ls),
(308,720,o),
(301,717,o),
(298,710,cs),
(22,252,ls),
(15,240,o),
(12,234,o),
(12,227,cs),
(12,217,o),
(20,210,o),
(33,210,cs),
(266,210,ls),
(276,210,o),
(282,205,o),
(282,196,cs),
(282,66,ls),
(282,40,o),
(275,33,o),
(243,29,cs),
(193,23,ls),
(183,22,o),
(178,17,o),
(178,11,cs),
(178,4,o),
(184,0,o),
(195,0,cs)
);
}
);
width = 529;
}
);
unicode = 52;
},
{
glyphname = five;
lastChange = "2022-08-31 19:18:50 +0000";
layers = (
{
background = {
shapes = (
{
closed = 1;
nodes = (
(273,-9,o),
(401,78,o),
(401,239,cs),
(401,371,o),
(314,471,o),
(123,481,c),
(128,451,l),
(176,673,l),
(150,720,l),
(83,416,l),
(252,407,o),
(319,350,o),
(319,218,cs),
(319,69,o),
(237,18,o),
(164,18,cs),
(75,18,o),
(102,96,o),
(49,96,cs),
(26,96,o),
(12,82,o),
(12,62,cs),
(12,15,o),
(89,-9,o),
(152,-9,cs)
);
},
{
closed = 1;
nodes = (
(392,660,l),
(409,712,ls),
(414,725,o),
(412,735,o),
(398,735,cs),
(382,735,o),
(370,720,o),
(297,720,cs),
(150,720,l),
(158,660,l)
);
}
);
};
layerId = m01;
shapes = (
{
closed = 1;
nodes = (
(273,-9,o),
(401,78,o),
(401,229,cs),
(401,354,o),
(323,461,o),
(143,479,cs),
(131,480,o),
(126,484,o),
(129,494,cs),
(162,647,ls),
(164,656,o),
(170,660,o),
(179,660,cs),
(369,660,ls),
(378,660,o),
(384,664,o),
(386,672,cs),
(404,724,ls),
(407,735,o),
(406,745,o),
(393,745,cs),
(375,745,o),
(374,720,o),
(336,720,cs),
(155,720,ls),
(146,720,o),
(140,716,o),
(138,707,cs),
(77,431,ls),
(75,421,o),
(80,416,o),
(91,415,cs),
(256,403,o),
(319,335,o),
(319,208,cs),
(319,69,o),
(237,18,o),
(164,18,cs),
(75,18,o),
(102,96,o),
(49,96,cs),
(26,96,o),
(12,82,o),
(12,62,cs),
(12,15,o),
(89,-9,o),
(152,-9,cs)
);
}
);
width = 529;
}
);
unicode = 53;
},
{
glyphname = six;
lastChange = "2022-08-31 19:18:12 +0000";
layers = (
{
background = {
shapes = (
{
closed = 1;
nodes = (
(345,-9,o),
(432,98,o),
(432,229,cs),
(432,360,o),
(352,456,o),
(244,456,cs),
(182,456,o),
(132,427,o),
(106,376,c),
(135,389,l),
(167,559,o),
(252,660,o),
(402,704,cs),
(411,706,o),
(415,710,o),
(415,717,cs),
(415,725,o),
(408,732,o),
(393,729,cs),
(197,688,o),
(41,480,o),
(41,261,cs),
(41,100,o),
(121,-9,o),
(237,-9,cs)
);
},
{
closed = 1;
nodes = (
(162,18,o),
(124,84,o),
(124,218,cs),
(124,358,o),
(164,431,o),
(243,431,cs),
(316,431,o),
(350,366,o),
(350,224,cs),
(350,84,o),
(314,18,o),
(238,18,cs)
);
}
);
};
layerId = m01;
shapes = (
{
closed = 1;
nodes = (
(345,-9,o),
(432,98,o),
(432,229,cs),
(432,360,o),
(352,456,o),
(244,456,cs),
(213,456,o),
(184,449,o),
(160,434,cs),
(151,429,o),
(144,432,o),
(147,442,cs),
(186,580,o),
(268,665,o),
(402,704,cs),
(411,706,o),
(415,710,o),
(415,717,cs),
(415,725,o),
(408,732,o),
(393,729,cs),
(197,688,o),
(41,480,o),
(41,261,cs),
(41,100,o),
(121,-9,o),
(237,-9,cs)
);
},
{
closed = 1;
nodes = (
(156,18,o),
(117,84,o),
(117,218,cs),
(117,358,o),
(159,431,o),
(239,431,cs),
(315,431,o),
(350,366,o),
(350,224,cs),
(350,84,o),
(313,18,o),
(235,18,cs)
);
}
);
width = 529;
}
);
unicode = 54;
},
{
glyphname = seven;
lastChange = "2022-08-31 19:19:00 +0000";
layers = (
{
background = {
shapes = (
{
closed = 1;
nodes = (
(155,0,l),
(414,700,l),
(381,700,l),
(95,0,l)
);
},
{
closed = 1;
nodes = (
(51,635,o),
(52,660,o),
(90,660,cs),
(377,660,l),
(414,700,l),
(414,720,l),
(56,720,ls),
(47,720,o),
(41,716,o),
(39,708,cs),
(22,656,ls),
(18,645,o),
(20,635,o),
(32,635,cs)
);
}
);
};
layerId = m01;
shapes = (
{
closed = 1;
nodes = (
(143,0,ls),
(151,0,o),
(156,3,o),
(159,11,cs),
(405,675,ls),
(412,694,o),
(414,701,o),
(414,708,cs),
(414,715,o),
(409,720,o),
(398,720,cs),
(56,720,ls),
(47,720,o),
(41,716,o),
(39,708,cs),
(22,656,ls),
(18,645,o),
(20,635,o),
(32,635,cs),
(51,635,o),
(52,660,o),
(90,660,cs),
(345,660,ls),
(356,660,o),
(361,654,o),
(358,644,cs),
(101,15,ls),
(98,6,o),
(103,0,o),
(114,0,cs)
);
}
);
width = 529;
}
);
unicode = 55;
},
{
glyphname = eight;
lastChange = "2022-08-31 19:16:02 +0000";
layers = (
{
background = {
shapes = (
{
closed = 1;
nodes = (
(133,18,o),
(95,92,o),
(95,169,cs),
(95,256,o),
(139,322,o),
(229,364,c),
(216,378,l),
(94,334,o),
(22,264,o),
(22,172,cs),
(22,82,o),
(106,-9,o),
(247,-9,cs),
(376,-9,o),
(476,74,o),
(476,186,cs),
(476,271,o),
(422,337,o),
(281,405,cs),
(150,468,o),
(123,525,o),
(123,590,cs),
(123,658,o),
(178,703,o),
(261,703,cs),
(344,703,o),
(384,653,o),
(384,576,cs),
(384,502,o),
(345,439,o),
(271,405,c),
(284,391,l),
(385,428,o),
(455,494,o),
(455,573,cs),
(455,663,o),
(371,730,o),
(264,730,cs),
(151,730,o),
(52,663,o),
(52,564,cs),
(52,489,o),
(110,410,o),
(230,357,cs),
(361,299,o),
(405,229,o),
(405,151,cs),
(405,70,o),
(346,18,o),
(250,18,cs)
);
}
);
};
layerId = m01;
shapes = (
{
closed = 1;
nodes = (
(370,-9,o),
(466,74,o),
(466,186,cs),
(466,263,o),
(423,325,o),
(312,387,cs),
(302,392,o),
(302,399,o),
(312,403,cs),
(393,442,o),
(446,503,o),
(446,573,cs),
(446,663,o),
(366,730,o),
(263,730,cs),
(155,730,o),
(61,663,o),
(61,564,cs),
(61,500,o),
(101,432,o),
(187,381,cs),
(195,376,o),
(195,369,o),
(186,365,cs),
(89,320,o),
(32,255,o),
(32,172,cs),
(32,82,o),
(113,-9,o),
(247,-9,cs)
);
},
{
closed = 1;
nodes = (
(139,18,o),
(102,92,o),
(102,169,cs),
(102,249,o),
(138,311,o),
(208,353,cs),
(218,359,o),
(228,359,o),
(238,353,cs),
(329,307,o),
(398,252,o),
(398,151,cs),
(398,70,o),
(342,18,o),
(250,18,cs)
);
},
{
closed = 1;
nodes = (
(151,474,o),
(129,529,o),
(129,590,cs),
(129,658,o),
(182,703,o),
(261,703,cs),
(339,703,o),
(378,653,o),
(378,576,cs),
(378,510,o),
(347,452,o),
(290,416,cs),
(279,409,o),
(270,409,o),
(260,415,cs)
);
}
);
width = 529;
}
);
unicode = 56;
},
{
glyphname = nine;
lastChange = "2022-08-31 19:19:08 +0000";
layers = (
{
background = {
shapes = (
{
closed = 1;
nodes = (
(277,33,o),
(421,211,o),
(421,460,cs),
(421,621,o),
(342,730,o),
(225,730,cs),
(117,730,o),
(30,623,o),
(30,502,cs),
(30,381,o),
(110,285,o),
(218,285,cs),
(281,285,o),
(330,314,o),
(356,365,c),
(328,352,l),
(305,163,o),
(223,60,o),
(94,18,cs),
(86,15,o),
(82,11,o),
(82,4,cs),
(82,-4,o),
(89,-11,o),
(103,-8,cs)
);
},
{
closed = 1;
nodes = (
(146,310,o),
(113,375,o),
(113,507,cs),
(113,637,o),
(148,703,o),
(224,703,cs),
(300,703,o),
(338,637,o),
(338,513,cs),
(338,383,o),
(298,310,o),
(220,310,cs)
);
}
);
};
layerId = m01;
shapes = (
{
closed = 1;
nodes = (
(277,33,o),
(421,211,o),
(421,460,cs),
(421,621,o),
(342,730,o),
(225,730,cs),
(117,730,o),
(30,623,o),
(30,502,cs),
(30,381,o),
(110,285,o),
(218,285,cs),
(252,285,o),
(282,293,o),
(306,309,cs),
(315,315,o),
(322,312,o),
(320,302,cs),
(290,145,o),
(212,56,o),
(94,18,cs),
(86,15,o),
(82,11,o),
(82,4,cs),
(82,-4,o),
(89,-11,o),
(103,-8,cs)
);
},
{
closed = 1;
nodes = (
(113,637,o),
(148,703,o),
(224,703,cs),
(300,703,o),
(338,637,o),
(338,513,cs),
(338,383,o),
(298,310,o),
(220,310,cs),
(146,310,o),
(113,375,o),
(113,507,cs)
);
}
);
width = 529;
}
);
unicode = 57;
},
{
glyphname = .notdef;
lastChange = "2023-03-17 07:45:31 +0000";
layers = (
{
layerId = m01;
shapes = (
{
closed = 1;
nodes = (
(557,-130,ls),
(562,-130,o),
(566,-127,o),
(566,-122,cs),
(566,782,ls),
(566,787,o),
(562,790,o),
(557,790,cs),
(136,790,ls),
(130,790,o),
(126,787,o),
(126,782,cs),
(126,-122,ls),
(126,-127,o),
(130,-130,o),
(136,-130,cs)
);
},
{
closed = 1;
nodes = (
(163,758,l),
(529,758,l),
(529,-98,l),
(163,-98,l)
);
}
);
width = 692;
}
);
},
{
glyphname = period;
kernLeft = period;
kernRight = period;
lastChange = "2022-08-31 20:12:01 +0000";
layers = (
{
layerId = m01;
shapes = (
{
closed = 1;
nodes = (
(154,-9,o),
(183,12,o),
(183,44,cs),
(183,74,o),
(154,96,o),
(123,96,cs),
(89,96,o),
(62,74,o),
(62,44,cs),
(62,12,o),
(89,-9,o),
(123,-9,cs)
);
}
);
width = 245;
}
);
unicode = 46;
},
{
glyphname = comma;
kernLeft = period;
kernRight = period;
lastChange = "2022-08-31 20:13:38 +0000";
layers = (
{
layerId = m01;
shapes = (
{
closed = 1;
nodes = (
(145,-112,o),
(187,-42,o),
(187,29,cs),
(187,70,o),
(163,96,o),
(125,96,cs),
(93,96,o),
(70,76,o),
(70,49,cs),
(70,2,o),
(130,7,o),
(130,-35,cs),
(130,-71,o),
(114,-102,o),
(69,-141,cs),
(60,-149,o),
(60,-156,o),
(66,-160,cs),
(71,-164,o),
(79,-163,o),
(87,-156,cs)
);
}
);
width = 250;
}
);
unicode = 44;
},
{
glyphname = exclam;
lastChange = "2022-09-01 19:18:34 +0000";
layers = (
{
background = {
shapes = (
{
closed = 1;
nodes = (
(139,179,ls),
(150,179,o),
(152,190,o),
(154,233,cs),
(155,258,o),
(158,296,o),
(161,349,cs),
(179,595,o),
(184,646,o),
(184,671,cs),
(184,727,o),
(177,750,o),
(139,750,cs),
(101,750,o),
(94,727,o),
(94,671,cs),
(94,646,o),
(99,595,o),
(117,349,cs),
(122,289,o),
(123,250,o),
(125,224,cs),
(126,189,o),
(129,179,o),
(138,179,cs)
);
},
{
closed = 1;
nodes = (
(139,-12,ls),
(168,-12,o),
(184,17,o),
(184,43,cs),
(184,70,o),
(168,98,o),
(139,98,cs),
(110,98,o),
(94,70,o),
(94,43,cs),
(94,17,o),
(110,-12,o),
(138,-12,cs)
);
}
);
};
guides = (
{
angle = 90;
pos = (64,192);
},
{
angle = 90;
pos = (169,192);
}
);
layerId = m01;
shapes = (
{
closed = 1;
nodes = (
(144,179,o),
(148,185,o),
(148,195,cs),
(151,370,o),
(187,639,o),
(187,694,cs),
(187,727,o),
(168,750,o),
(135,750,cs),
(101,750,o),
(82,727,o),
(82,694,cs),
(82,639,o),
(118,370,o),
(121,195,cs),
(121,185,o),
(126,179,o),
(135,179,cs)
);
},
{
pos = (10,0);
ref = period;
}
);
width = 273;
}
);
unicode = 33;
},
{
glyphname = exclamdown;
lastChange = "2022-09-01 19:15:39 +0000";
layers = (
{
layerId = m01;
shapes = (
{
closed = 1;
nodes = (
(172,-215,o),
(192,-192,o),
(192,-159,cs),
(192,-104,o),
(155,141,o),
(153,316,cs),
(153,326,o),
(148,332,o),
(139,332,cs),
(131,332,o),
(125,326,o),
(125,316,cs),
(123,141,o),
(86,-104,o),
(86,-159,cs),
(86,-192,o),
(106,-215,o),
(139,-215,cs)
);
},
{
pos = (14,511);
ref = period;
scale = (1,-1);
}
);
width = 273;
}
);
metricLeft = "=|exclam";
metricRight = "=|exclam";
unicode = 161;
},
{
glyphname = question;
lastChange = "2022-09-01 19:14:29 +0000";
layers = (
{
background = {
shapes = (
{
closed = 1;
nodes = (
(36,675,ls),
(36,602,o),
(40,591,o),
(61,591,cs),
(77,591,o),
(85,621,o),
(95,654,cs),
(107,685,o),
(122,718,o),
(152,718,cs),
(189,718,o),
(223,669,o),
(223,595,cs),
(223,528,o),
(176,464,o),
(100,382,cs),
(85,365,o),
(80,361,o),
(80,309,cs),
(80,251,o),
(82,216,o),
(85,196,cs),
(89,175,o),
(93,169,o),
(101,169,cs),
(113,169,o),
(115,173,o),
(115,245,cs),
(115,267,o),
(116,268,o),
(133,293,cs),
(160,331,o),
(186,360,o),
(208,387,cs),
(247,435,o),
(274,478,o),
(274,556,cs),
(274,675,o),
(200,750,o),
(120,750,cs),
(60,750,o),
(41,741,o),
(37,706,cs),
(36,697,o),
(36,687,o),
(36,677,cs)
);
},
{
closed = 1;
nodes = (
(100,-12,ls),
(129,-12,o),
(145,17,o),
(145,44,cs),
(145,71,o),
(129,99,o),
(100,99,cs),
(71,99,o),
(55,71,o),
(55,44,cs),
(55,17,o),
(71,-12,o),
(99,-12,cs)
);
}
);
};
guides = (
{
pos = (192,750);
}
);
layerId = m01;
shapes = (
{
closed = 1;
nodes = (
(152,179,o),
(158,184,o),
(158,195,cs),
(162,341,ls),
(163,375,o),
(168,386,o),
(184,400,cs),
(229,436,ls),
(294,490,o),
(328,535,o),
(328,611,cs),
(328,699,o),
(264,750,o),
(159,750,cs),
(124,750,o),
(72,740,o),
(48,723,cs),
(40,717,o),
(36,712,o),
(36,701,cs),
(32,580,ls),
(32,569,o),
(37,563,o),
(45,563,cs),
(53,563,o),
(56,567,o),
(60,577,cs),
(94,675,o),
(126,720,o),
(192,720,cs),
(230,720,o),
(262,696,o),
(262,630,cs),
(262,563,o),
(235,533,o),
(186,491,cs),
(159,467,ls),
(131,443,o),
(123,418,o),
(124,372,cs),
(129,195,ls),
(129,184,o),
(135,179,o),
(143,179,cs)
);
},
{
pos = (16,0);
ref = period;
}
);
width = 365;
}
);
unicode = 63;
},
{
glyphname = questiondown;
lastChange = "2022-09-01 19:11:10 +0000";
layers = (
{
layerId = m01;
shapes = (
{
closed = 1;
nodes = (
(240,-215,o),
(292,-205,o),
(316,-188,cs),
(324,-182,o),
(329,-177,o),
(329,-166,cs),
(332,-45,ls),
(332,-34,o),
(328,-28,o),
(320,-28,cs),
(312,-28,o),
(308,-32,o),
(305,-42,cs),
(270,-140,o),
(238,-185,o),
(172,-185,cs),
(135,-185,o),
(102,-161,o),
(102,-95,cs),
(102,-28,o),
(130,2,o),
(178,44,cs),
(206,68,ls),
(233,92,o),
(241,117,o),
(240,163,cs),
(236,316,ls),
(236,327,o),
(230,332,o),
(222,332,cs),
(213,332,o),
(207,327,o),
(207,316,cs),
(202,194,ls),
(201,160,o),
(197,149,o),
(181,135,cs),
(136,99,ls),
(70,45,o),
(37,0,o),
(37,-76,cs),
(37,-164,o),
(100,-215,o),
(206,-215,cs)
);
},
{
angle = 180;
pos = (301,511);
ref = period;
}
);
width = 365;
}
);
metricLeft = "=|question";
metricRight = "=|question";
unicode = 191;
},
{
glyphname = asterisk;
kernLeft = asterisk;
kernRight = asterisk;
lastChange = "2022-08-23 20:03:46 +0000";
layers = (
{
background = {
shapes = (
{
closed = 1;
nodes = (
(256,420,ls),
(282,420,o),
(300,432,o),
(300,454,cs),
(300,488,o),
(263,544,o),
(263,559,cs),
(263,563,o),
(266,569,o),
(274,569,cs),
(289,569,o),
(306,549,o),
(323,527,cs),
(342,507,o),
(363,486,o),
(388,486,cs),
(409,486,o),
(428,503,o),
(428,521,cs),
(428,551,o),
(390,560,o),
(352,564,cs),
(315,568,o),
(277,569,o),
(277,584,cs),
(277,600,o),
(315,600,o),
(352,604,cs),
(390,608,o),
(428,617,o),
(428,648,cs),
(428,666,o),
(409,683,o),
(388,683,cs),
(362,683,o),
(339,663,o),
(322,642,cs),
(305,621,o),
(289,600,o),
(274,600,cs),
(267,600,o),
(263,605,o),
(263,610,cs),
(263,625,o),
(300,681,o),
(300,713,cs),
(300,737,o),
(282,749,o),
(256,749,cs),
(231,749,o),
(213,737,o),
(213,714,cs),
(213,681,o),
(250,625,o),
(250,610,cs),
(250,606,o),
(247,600,o),
(239,600,cs),
(224,600,o),
(209,621,o),
(190,641,cs),
(171,663,o),
(151,683,o),
(125,683,cs),
(103,683,o),
(85,666,o),
(85,648,cs),
(85,617,o),
(123,609,o),
(161,605,cs),
(198,601,o),
(236,599,o),
(236,584,cs),
(236,569,o),
(198,568,o),
(161,564,cs),
(123,560,o),
(85,551,o),
(85,521,cs),
(85,503,o),
(103,486,o),
(125,486,cs),
(151,486,o),
(171,507,o),
(191,527,cs),
(209,549,o),
(224,569,o),
(239,569,cs),
(246,569,o),
(250,564,o),
(250,559,cs),
(250,544,o),
(213,488,o),
(213,456,cs),
(213,432,o),
(231,420,o),
(255,420,cs)
);
}
);
};
layerId = m01;
shapes = (
{
closed = 1;
nodes = (
(284,416,o),
(300,435,o),
(300,455,cs),
(300,486,o),
(271,507,o),
(264,558,cs),
(263,566,o),
(270,568,o),
(277,563,cs),
(323,530,o),
(331,500,o),
(361,485,cs),
(381,475,o),
(407,478,o),
(422,499,cs),
(436,521,o),
(425,543,o),
(406,553,cs),
(374,569,o),
(338,556,o),
(285,577,cs),
(276,580,o),
(276,586,o),
(285,589,cs),
(338,610,o),
(374,597,o),
(406,613,cs),
(425,623,o),
(436,645,o),
(422,667,cs),
(407,688,o),
(381,691,o),
(361,681,cs),
(329,665,o),
(323,633,o),
(276,602,cs),
(269,597,o),
(263,600,o),
(264,608,cs),
(271,659,o),
(300,680,o),
(300,711,cs),
(300,731,o),
(284,750,o),
(255,750,cs),
(227,750,o),
(210,731,o),
(210,711,cs),
(210,680,o),
(239,659,o),
(246,608,cs),
(247,600,o),
(241,597,o),
(235,602,cs),
(187,633,o),
(182,665,o),
(150,681,cs),
(130,691,o),
(103,688,o),
(89,667,cs),
(75,645,o),
(85,623,o),
(105,613,cs),
(137,597,o),
(172,610,o),
(225,589,cs),
(235,586,o),
(235,580,o),
(225,577,cs),
(172,556,o),
(137,569,o),
(105,553,cs),
(85,543,o),
(75,521,o),
(89,499,cs),
(103,478,o),
(130,475,o),
(150,485,cs),
(179,500,o),
(187,530,o),
(233,563,cs),
(240,568,o),
(247,566,o),
(246,558,cs),
(239,507,o),
(210,486,o),
(210,455,cs),
(210,435,o),
(227,416,o),
(255,416,cs)
);
}
);
width = 511;
}
);
unicode = 42;
},
{
glyphname = numbersign;
lastChange = "2022-08-11 18:45:18 +0000";
layers = (
{
background = {
shapes = (
{
closed = 1;
nodes = (
(122,0,l),
(159,0,l),
(350,720,l),
(313,720,l)
);
},
{
closed = 1;
nodes = (
(381,0,l),
(417,0,l),
(608,720,l),
(572,720,l)
);
},
{
closed = 1;
nodes = (
(84,460,l),
(707,460,l),
(707,490,l),
(84,490,l)
);
},
{
closed = 1;
nodes = (
(23,230,l),
(646,230,l),
(646,260,l),
(23,260,l)
);
}
);
};
layerId = m01;
shapes = (
{
closed = 1;
nodes = (
(159,0,l),
(215,213,ls),
(218,224,o),
(227,230,o),
(240,230,cs),
(422,230,ls),
(434,230,o),
(439,224,o),
(437,213,cs),
(381,0,l),
(417,0,l),
(474,213,ls),
(477,224,o),
(485,230,o),
(499,230,cs),
(646,230,l),
(646,260,l),
(506,260,ls),
(494,260,o),
(489,266,o),
(491,277,cs),
(535,442,ls),
(538,453,o),
(546,460,o),
(560,460,cs),
(707,460,l),
(707,490,l),
(567,490,ls),
(555,490,o),
(550,496,o),
(552,507,cs),
(608,720,l),
(572,720,l),
(515,507,ls),
(512,496,o),
(504,490,o),
(490,490,cs),
(308,490,ls),
(297,490,o),
(291,496,o),
(293,507,cs),
(350,720,l),
(313,720,l),
(256,507,ls),
(253,496,o),
(245,490,o),
(231,490,cs),
(84,490,l),
(84,460,l),
(224,460,ls),
(236,460,o),
(241,454,o),
(239,443,cs),
(195,278,ls),
(192,267,o),
(184,260,o),
(170,260,cs),
(23,260,l),
(23,230,l),
(163,230,ls),
(175,230,o),
(181,224,o),
(178,213,cs),
(122,0,l)
);
},
{
closed = 1;
nodes = (
(236,260,o),
(230,266,o),
(232,277,cs),
(276,442,ls),
(279,453,o),
(288,460,o),
(301,460,cs),
(483,460,ls),
(494,460,o),
(500,454,o),
(498,443,cs),
(454,278,ls),
(451,267,o),
(443,260,o),
(429,260,cs),
(247,260,ls)
);
}
);
width = 730;
}
);
unicode = 35;
},
{
glyphname = slash;
lastChange = "2022-08-11 18:55:19 +0000";
layers = (
{
layerId = m01;
shapes = (
{
closed = 1;
nodes = (
(34,-130,ls),
(41,-130,o),
(46,-126,o),
(47,-121,cs),
(285,779,ls),
(286,785,o),
(284,790,o),
(276,790,cs),
(262,790,ls),
(255,790,o),
(251,786,o),
(250,781,cs),
(12,-119,ls),
(10,-125,o),
(13,-130,o),
(21,-130,cs)
);
}
);
width = 297;
}
);
unicode = 47;
},
{
glyphname = backslash;
lastChange = "2022-08-11 18:57:07 +0000";
layers = (
{
layerId = m01;
shapes = (
{
closed = 1;
nodes = (
(276,-130,ls),
(284,-130,o),
(286,-125,o),
(285,-119,cs),
(47,781,ls),
(46,786,o),
(41,790,o),
(34,790,cs),
(21,790,ls),
(13,790,o),
(10,785,o),
(12,779,cs),
(250,-121,ls),
(251,-126,o),
(255,-130,o),
(262,-130,cs)
);
}
);
width = 297;
}
);
unicode = 92;
},
{
glyphname = hyphen;
kernLeft = hyphen;
kernRight = hyphen;
lastChange = "2022-08-31 19:46:08 +0000";
layers = (
{
layerId = m01;
shapes = (
{
closed = 1;
nodes = (
(389,259,ls),
(396,259,o),
(400,263,o),
(400,269,cs),
(400,283,ls),
(400,289,o),
(396,293,o),
(389,293,cs),
(106,293,ls),
(99,293,o),
(94,289,o),
(94,283,cs),
(94,269,ls),
(94,263,o),
(99,259,o),
(106,259,cs)
);
}
);
width = 494;
}
);
unicode = 45;
},
{
glyphname = endash;
kernLeft = hyphen;
kernRight = hyphen;
lastChange = "2022-08-23 20:03:55 +0000";
layers = (
{
layerId = m01;
shapes = (
{
closed = 1;
nodes = (
(481,259,ls),
(488,259,o),
(492,263,o),
(492,269,cs),
(492,283,ls),
(492,289,o),
(488,293,o),
(481,293,cs),
(106,293,ls),
(99,293,o),
(94,289,o),
(94,283,cs),
(94,269,ls),
(94,263,o),
(99,259,o),
(106,259,cs)
);
}
);
width = 586;
}
);
unicode = 8211;
},
{
glyphname = emdash;
kernLeft = hyphen;
kernRight = hyphen;
lastChange = "2022-08-23 20:03:55 +0000";
layers = (
{
layerId = m01;
shapes = (
{
closed = 1;
nodes = (
(722,259,ls),
(729,259,o),
(734,263,o),
(734,269,cs),
(734,283,ls),
(734,289,o),
(729,293,o),
(722,293,cs),
(106,293,ls),
(99,293,o),
(94,289,o),
(94,283,cs),
(94,269,ls),
(94,263,o),
(99,259,o),
(106,259,cs)
);
}
);
width = 828;
}
);
unicode = 8212;
},
{
glyphname = underscore;
lastChange = "2022-08-11 19:14:16 +0000";
layers = (
{
layerId = m01;
shapes = (
{
closed = 1;
nodes = (
(404,-109,ls),
(411,-109,o),
(415,-105,o),
(415,-99,cs),
(415,-85,ls),
(415,-79,o),
(411,-75,o),
(404,-75,cs),
(29,-75,ls),
(22,-75,o),
(17,-79,o),
(17,-85,cs),
(17,-99,ls),
(17,-105,o),
(22,-109,o),
(29,-109,cs)
);
}
);
width = 432;
}
);
unicode = 95;
},
{
glyphname = parenleft;
lastChange = "2022-09-01 21:01:08 +0000";
layers = (
{
background = {
shapes = (
{
closed = 1;
nodes = (
(80,321,ls),
(80,50,o),
(317,-113,o),
(346,-113,cs),
(352,-113,o),
(355,-110,o),
(355,-106,cs),
(355,-99,o),
(335,-87,o),
(323,-78,cs),
(197,21,o),
(159,173,o),
(159,321,cs),
(159,469,o),
(197,621,o),
(323,720,cs),
(335,729,o),
(355,741,o),
(355,748,cs),
(355,752,o),
(352,755,o),
(346,755,cs),
(317,755,o),
(80,592,o),
(80,322,cs)
);
}
);
};
layerId = m01;
shapes = (
{
closed = 1;
nodes = (
(344,-108,o),
(347,-104,o),
(347,-100,cs),
(347,-96,o),
(345,-93,o),
(340,-89,cs),
(214,10,o),
(159,159,o),
(159,322,cs),
(159,485,o),
(214,634,o),
(340,733,cs),
(345,737,o),
(347,740,o),
(347,744,cs),
(347,748,o),
(344,752,o),
(337,752,cs),
(334,752,o),
(330,751,o),
(327,749,cs),
(218,682,o),
(80,531,o),
(80,322,cs),
(80,113,o),
(218,-38,o),
(327,-105,cs),
(330,-107,o),
(334,-108,o),
(337,-108,cs)
);
}
);
width = 391;
}
);
unicode = 40;
},
{
glyphname = braceleft;
lastChange = "2022-09-01 21:01:41 +0000";
layers = (
{
background = {
shapes = (
{
closed = 1;
nodes = (
(138,51,ls),
(138,-65,o),
(194,-98,o),
(281,-98,cs),
(291,-98,o),
(297,-94,o),
(297,-87,cs),
(297,-79,o),
(290,-77,o),
(278,-77,cs),
(222,-77,o),
(205,-33,o),
(205,45,cs),
(205,184,ls),
(205,259,o),
(191,301,o),
(114,320,c),
(114,322,l),
(191,341,o),
(205,383,o),
(205,458,cs),
(205,597,ls),
(205,675,o),
(222,718,o),
(278,718,cs),
(290,718,o),
(297,721,o),
(297,729,cs),
(297,736,o),
(291,740,o),
(281,740,cs),
(194,740,o),
(138,707,o),
(138,591,cs),
(138,442,ls),
(138,387,o),
(129,345,o),
(85,338,cs),
(62,334,o),
(51,330,o),
(51,321,cs),
(51,312,o),
(63,308,o),
(85,304,cs),
(129,296,o),
(138,255,o),
(138,200,cs)
);
}
);
};
layerId = m01;
shapes = (
{
closed = 1;
nodes = (
(291,-96,o),
(297,-91,o),
(297,-84,cs),
(297,-77,o),
(291,-72,o),
(283,-72,cs),
(229,-72,o),
(205,-38,o),
(205,36,cs),
(205,178,ls),
(205,267,o),
(179,302,o),
(120,322,c),
(179,342,o),
(205,377,o),
(205,466,cs),
(205,608,ls),
(205,682,o),
(229,716,o),
(283,716,cs),
(291,716,o),
(297,721,o),
(297,728,cs),
(297,735,o),
(291,740,o),
(283,740,cs),
(189,740,o),
(138,696,o),
(138,604,cs),
(138,462,ls),
(138,368,o),
(114,334,o),
(60,334,cs),
(52,334,o),
(46,329,o),
(46,322,cs),
(46,315,o),
(52,310,o),
(60,310,cs),
(114,310,o),
(138,276,o),
(138,182,cs),
(138,40,ls),
(138,-52,o),
(189,-96,o),
(283,-96,cs)
);
}
);
width = 366;
}
);
unicode = 123;
},
{
glyphname = bracketleft;
lastChange = "2022-09-01 21:02:14 +0000";
layers = (
{
background = {
shapes = (
{
pos = (10,0);
ref = parenleft;
}
);
};
guides = (
{
pos = (156,-108);
}
);
layerId = m01;
shapes = (
{
closed = 1;
nodes = (
(289,-98,ls),
(299,-98,o),
(305,-93,o),
(305,-86,cs),
(305,-79,o),
(299,-74,o),
(289,-74,cs),
(179,-74,ls),
(171,-74,o),
(166,-69,o),
(166,-62,cs),
(166,704,ls),
(166,711,o),
(171,716,o),
(179,716,cs),
(289,716,ls),
(299,716,o),
(305,721,o),
(305,728,cs),
(305,735,o),
(299,740,o),
(289,740,cs),
(126,740,ls),
(109,740,o),
(99,731,o),
(99,716,cs),
(99,-74,ls),
(99,-89,o),
(109,-98,o),
(126,-98,cs)
);
}
);
width = 374;
}
);
unicode = 91;
},
{
glyphname = quoteleft;
kernLeft = quoteleft;
kernRight = quoteleft;
lastChange = "2023-03-17 07:42:45 +0000";
layers = (
{
layerId = m01;
shapes = (
{
closed = 1;
nodes = (
(124,562,o),
(145,582,o),
(145,606,cs),
(145,653,o),
(85,644,o),
(85,692,cs),
(85,715,o),
(94,730,o),
(146,769,cs),
(156,776,o),
(155,784,o),
(150,788,cs),
(144,792,o),
(137,790,o),
(128,784,cs),
(56,740,o),
(28,690,o),
(28,629,cs),
(28,588,o),
(52,562,o),
(90,562,cs)
);
}
);
width = 191;
}
);
metricLeft = "=|quoteright";
metricRight = "=|quoteright";
unicode = 8216;
},
{
glyphname = quoteright;
kernLeft = quoteright;
kernRight = quoteright;
lastChange = "2022-09-19 13:28:36 +0000";
layers = (
{
layerId = m01;
shapes = (
{
closed = 1;
nodes = (
(135,552,o),
(163,602,o),
(163,663,cs),
(163,704,o),
(139,730,o),
(101,730,cs),
(67,730,o),
(46,710,o),
(46,686,cs),
(46,639,o),
(106,648,o),
(106,600,cs),
(106,583,o),
(97,562,o),
(45,523,cs),
(34,516,o),
(36,508,o),
(41,504,cs),
(47,500,o),
(54,502,o),
(63,508,cs)
);
}
);
width = 191;
}
);
unicode = 8217;
},
{
glyphname = guilsinglleft;
kernLeft = guilleft;
kernRight = guilleft;
lastChange = "2022-08-23 20:04:35 +0000";
layers = (
{
layerId = m01;
shapes = (
{
closed = 1;
nodes = (
(194,81,o),
(200,78,o),
(207,78,cs),
(218,78,o),
(221,87,o),
(217,93,cs),
(138,242,ls),
(135,248,o),
(135,254,o),
(138,260,cs),
(217,409,ls),
(221,415,o),
(218,424,o),
(207,424,cs),
(200,424,o),
(194,421,o),
(185,409,cs),
(69,268,ls),
(60,256,o),
(60,246,o),
(69,234,cs),
(185,93,ls)
);
}
);
width = 301;
}
);
unicode = 8249;
},
{
glyphname = guilsinglright;
kernLeft = guilright;
kernRight = guilright;
lastChange = "2022-08-23 20:04:44 +0000";
layers = (
{
background = {
shapes = (
{
closed = 1;
nodes = (
(124,78,l),
(267,251,l),
(124,424,l),
(97,424,l),
(186,251,l),
(97,78,l)
);
}
);
};
layerId = m01;
shapes = (
{
pos = (262,0);
ref = guilsinglleft;
scale = (-1,1);
}
);
width = 301;
}
);
metricLeft = "=|guilsinglleft";
metricRight = "=|guilsinglleft";
unicode = 8250;
},
{
glyphname = quotesingle;
kernLeft = quotesingle;
kernRight = quotesingle;
lastChange = "2022-09-01 20:16:30 +0000";
layers = (
{
background = {
shapes = (
{
pos = (-14,0);
ref = quoteright;
}
);
};
layerId = m01;
shapes = (
{
closed = 1;
nodes = (
(143,489,o),
(147,495,o),
(147,506,cs),
(151,598,o),
(185,643,o),
(185,681,cs),
(185,709,o),
(168,731,o),
(133,731,cs),
(100,731,o),
(83,709,o),
(83,681,cs),
(83,643,o),
(116,598,o),
(120,506,cs),
(120,495,o),
(125,489,o),
(133,489,cs)
);
}
);
width = 268;
}
);
unicode = 39;
},
{
glyphname = at;
kernLeft = o;
kernRight = o;
lastChange = "2022-08-23 20:05:05 +0000";
layers = (
{
layerId = m01;
shapes = (
{
closed = 1;
nodes = (
(482,-81,o),
(553,-62,o),
(606,-26,cs),
(616,-19,o),
(618,-12,o),
(612,-4,cs),
(606,3,o),
(596,3,o),
(583,-6,cs),
(536,-36,o),
(473,-52,o),
(398,-52,cs),
(218,-52,o),
(122,42,o),
(122,215,cs),
(122,414,o),
(252,553,o),
(437,553,cs),
(580,553,o),
(668,464,o),
(668,322,cs),
(668,206,o),
(596,94,o),
(520,94,cs),
(488,94,o),
(478,122,o),
(493,177,cs),
(557,413,ls),
(560,425,o),
(555,433,o),
(545,433,cs),
(537,433,o),
(529,427,o),
(524,416,cs),
(522,411,o),
(519,409,o),
(515,409,cs),
(511,409,o),
(508,411,o),
(505,416,cs),
(494,430,o),
(475,438,o),
(452,438,cs),
(346,438,o),
(225,285,o),
(225,151,cs),
(225,94,o),
(247,63,o),
(288,63,cs),
(335,63,o),
(384,105,o),
(439,192,cs),
(443,198,o),
(450,197,o),
(447,190,cs),
(446,186,o),
(445,182,o),
(444,178,cs),
(423,107,o),
(448,63,o),
(508,63,cs),
(615,63,o),
(713,185,o),
(713,319,cs),
(713,475,o),
(604,580,o),
(442,580,cs),
(231,580,o),
(46,411,o),
(46,218,cs),
(46,45,o),
(175,-81,o),
(400,-81,cs)
);
},
{
closed = 1;
nodes = (
(292,100,o),
(285,112,o),
(285,143,cs),
(285,258,o),
(377,411,o),
(447,411,cs),
(469,411,o),
(482,396,o),
(482,369,cs),
(482,278,o),
(367,100,o),
(308,100,cs)
);
}
);
width = 759;
}
);
metricLeft = O;
metricRight = O;
unicode = 64;
},
{
glyphname = ampersand;
lastChange = "2022-08-27 16:49:40 +0000";
layers = (
{
background = {
shapes = (
{
closed = 1;
nodes = (
(583,367,o),
(613,382,o),
(646,385,cs),
(668,387,ls),
(680,388,o),
(683,393,o),
(683,399,cs),
(683,406,o),
(677,410,o),
(667,410,cs),
(466,410,ls),
(455,410,o),
(450,406,o),
(450,400,cs),
(450,393,o),
(454,389,o),
(465,388,cs),
(505,383,ls),
(536,379,o),
(544,361,o),
(529,322,cs),
(444,101,o),
(347,38,o),
(252,38,cs),
(156,38,o),
(113,105,o),
(113,188,cs),
(113,271,o),
(147,339,o),
(221,384,cs),
(230,390,o),
(238,387,o),
(244,380,cs),
(437,115,l),
(509,16,ls),
(518,5,o),
(528,0,o),
(543,0,cs),
(660,0,ls),
(670,0,o),
(676,4,o),
(676,11,cs),
(676,18,o),
(672,22,o),
(662,23,cs),
(612,27,ls),
(593,28,o),
(584,39,o),
(569,59,cs),
(313,418,ls),
(307,426,o),
(309,432,o),
(319,437,cs),
(427,486,o),
(474,541,o),
(474,609,cs),
(474,666,o),
(421,733,o),
(324,733,cs),
(215,733,o),
(143,667,o),
(143,586,cs),
(143,534,o),
(166,490,o),
(210,426,cs),
(216,418,o),
(215,412,o),
(206,407,cs),
(105,352,o),
(37,268,o),
(37,168,cs),
(37,73,o),
(109,-9,o),
(237,-9,cs),
(355,-9,o),
(467,74,o),
(562,315,cs)
);
},
{
closed = 1;
nodes = (
(292,453,o),
(284,455,o),
(279,463,c),
(230,531,o),
(215,563,o),
(215,607,cs),
(215,656,o),
(255,706,o),
(319,706,cs),
(389,706,o),
(406,653,o),
(406,605,cs),
(406,553,o),
(371,495,o),
(301,458,cs)
);
}
);
};
guides = (
{
angle = 121.4641;
pos = (434,159);
},
{
angle = -57.6671;
pos = (272,286);
},
{
pos = (640,388);
}
);
layerId = m01;
shapes = (
{
closed = 1;
nodes = (
(305,-9,o),
(371,18,o),
(435,89,cs),
(442,97,o),
(450,97,o),
(457,88,cs),
(509,16,ls),
(518,5,o),
(528,0,o),
(543,0,cs),
(660,0,ls),
(670,0,o),
(676,4,o),
(676,11,cs),
(676,18,o),
(672,22,o),
(662,23,cs),
(612,27,ls),
(593,28,o),
(584,39,o),
(569,59,cs),
(503,152,ls),
(494,164,o),
(494,173,o),
(501,185,cs),
(522,222,o),
(544,266,o),
(558,295,cs),
(582,345,o),
(613,360,o),
(646,363,cs),
(668,365,ls),
(680,366,o),
(683,371,o),
(683,377,cs),
(683,384,o),
(677,388,o),
(667,388,cs),
(466,388,ls),
(455,388,o),
(450,384,o),
(450,378,cs),
(450,371,o),
(454,367,o),
(465,366,cs),
(505,361,ls),
(536,357,o),
(542,340,o),
(524,302,cs),
(515,282,o),
(498,246,o),
(481,215,cs),
(475,205,o),
(466,205,o),
(459,214,cs),
(313,418,ls),
(307,426,o),
(309,432,o),
(319,437,cs),
(427,486,o),
(474,541,o),
(474,609,cs),
(474,666,o),
(421,733,o),
(324,733,cs),
(215,733,o),
(143,667,o),
(143,586,cs),
(143,534,o),
(166,490,o),
(210,426,cs),
(216,418,o),
(215,412,o),
(206,407,cs),
(105,352,o),
(37,268,o),
(37,168,cs),
(37,73,o),
(109,-9,o),
(237,-9,cs)
);
},
{
closed = 1;
nodes = (
(156,38,o),
(113,105,o),
(113,188,cs),
(113,271,o),
(147,339,o),
(221,384,cs),
(230,390,o),
(238,387,o),
(244,380,cs),
(413,148,ls),
(421,136,o),
(421,126,o),
(412,114,cs),
(359,58,o),
(306,38,o),
(252,38,cs)
);
},
{
closed = 1;
nodes = (
(292,453,o),
(284,455,o),
(279,463,c),
(230,531,o),
(215,563,o),
(215,607,cs),
(215,656,o),
(255,706,o),
(319,706,cs),
(389,706,o),
(406,653,o),
(406,605,cs),
(406,553,o),
(371,495,o),
(301,458,cs)
);
}
);
width = 666;
}
);
unicode = 38;
},
{
glyphname = paragraph;
lastChange = "2022-08-13 19:12:03 +0000";
layers = (
{
layerId = m01;
shapes = (
{
closed = 1;
nodes = (
(330,-130,ls),
(340,-130,o),
(346,-125,o),
(346,-116,cs),
(346,666,ls),
(346,681,o),
(356,690,o),
(374,690,cs),
(400,690,ls),
(417,690,o),
(428,681,o),
(428,666,cs),
(428,-116,ls),
(428,-125,o),
(434,-130,o),
(444,-130,cs),
(475,-130,ls),
(485,-130,o),
(491,-125,o),
(491,-116,cs),
(491,654,ls),
(491,682,o),
(498,688,o),
(530,693,cs),
(557,697,ls),
(567,699,o),
(572,702,o),
(572,709,cs),
(572,716,o),
(566,720,o),
(554,720,cs),
(256,720,ls),
(121,720,o),
(28,638,o),
(28,520,cs),
(28,406,o),
(121,326,o),
(253,326,cs),
(267,326,ls),
(277,326,o),
(283,321,o),
(283,312,cs),
(283,-116,ls),
(283,-125,o),
(289,-130,o),
(299,-130,cs)
);
}
);
width = 593;
}
);
metricLeft = "=|P";
metricRight = "=|P";
unicode = 182;
},
